<?xml version="1.0" encoding="UTF-8" standalone="no"?>
<svg
   xmlns:dc="http://purl.org/dc/elements/1.1/"
   xmlns:cc="http://creativecommons.org/ns#"
   xmlns:rdf="http://www.w3.org/1999/02/22-rdf-syntax-ns#"
   xmlns:svg="http://www.w3.org/2000/svg"
   xmlns="http://www.w3.org/2000/svg"
   xmlns:sodipodi="http://sodipodi.sourceforge.net/DTD/sodipodi-0.dtd"
   xmlns:inkscape="http://www.inkscape.org/namespaces/inkscape"
   viewBox="0 0 1795.1737 685.16663"
   height="685.16663"
   width="1795.1737"
   xml:space="preserve"
   id="svg2"
   version="1.1"
   inkscape:version="0.48.5 r10040"
   sodipodi:docname="logo.svg"><sodipodi:namedview
     pagecolor="#ffffff"
     bordercolor="#666666"
     borderopacity="1"
     objecttolerance="10"
     gridtolerance="10"
     guidetolerance="10"
     inkscape:pageopacity="0"
     inkscape:pageshadow="2"
     inkscape:window-width="640"
     inkscape:window-height="480"
     id="namedview158"
     showgrid="false"
     fit-margin-top="0"
     fit-margin-left="0"
     fit-margin-right="0"
     fit-margin-bottom="0"
     inkscape:zoom="0.15909826"
     inkscape:cx="913.13395"
     inkscape:cy="304.30267"
     inkscape:window-x="0"
     inkscape:window-y="0"
     inkscape:window-maximized="0"
     inkscape:current-layer="svg2" /><metadata
     id="metadata8"><rdf:RDF><cc:Work
         rdf:about=""><dc:format>image/svg+xml</dc:format><dc:type
           rdf:resource="http://purl.org/dc/dcmitype/StillImage" /></cc:Work></rdf:RDF></metadata><defs
     id="defs6"><clipPath
       id="clipPath18"
       clipPathUnits="userSpaceOnUse"><path
         id="path16"
         d="M 0,1112.52 H 1619.581 V 0 H 0 z"
         inkscape:connector-curvature="0" /></clipPath></defs><g
     transform="matrix(1.3333333,0,0,-1.3333333,-166.58603,1122.544)"
     id="g10"><g
       id="g12"><g
         clip-path="url(#clipPath18)"
         id="g14"><g
           transform="translate(733.25,706.4861)"
           id="g20"><path
             id="path22"
             style="fill:#666666;fill-opacity:1;fill-rule:nonzero;stroke:none"
             d="M 0,0 H 27.518 L 13.759,30.957 z m 50.137,-22.307 c 0,-1.598 -0.644,-2.954 -1.929,-4.064 -1.286,-1.112 -2.762,-1.668 -4.43,-1.668 -1.112,0 -2.154,0.297 -3.127,0.886 -0.973,0.59 -1.737,1.511 -2.293,2.762 l -6.254,13.967 h -36.69 l -6.254,-13.967 c -0.556,-1.251 -1.321,-2.172 -2.293,-2.762 -0.974,-0.589 -2.051,-0.886 -3.231,-0.886 -1.6,0 -3.059,0.556 -4.378,1.668 -1.32,1.11 -1.981,2.466 -1.981,4.064 0,0.903 0.209,1.807 0.626,2.711 l 28.768,61.81 c 0.626,1.39 1.58,2.45 2.867,3.18 1.284,0.729 2.657,1.094 4.117,1.094 1.459,0 2.83,-0.365 4.117,-1.094 1.286,-0.73 2.242,-1.79 2.867,-3.18 l 28.873,-61.81 c 0.416,-0.904 0.625,-1.808 0.625,-2.711"
             inkscape:connector-curvature="0" /></g><g
           transform="translate(858.3301,717.1697)"
           id="g24"><path
             id="path26"
             style="fill:#666666;fill-opacity:1;fill-rule:nonzero;stroke:none"
             d="m 0,0 c 0.972,-0.938 1.459,-2.173 1.459,-3.7 v -22.41 c 0,-3.198 -0.417,-5.456 -1.251,-6.776 -0.834,-1.32 -2.537,-2.397 -5.107,-3.231 -2.781,-0.974 -6.011,-1.737 -9.694,-2.293 -3.684,-0.555 -7.228,-0.834 -10.632,-0.834 -7.575,0 -14.141,1.494 -19.7,4.482 -5.56,2.988 -9.815,7.313 -12.768,12.977 -2.954,5.663 -4.43,12.421 -4.43,20.273 0,7.714 1.476,14.402 4.43,20.066 2.953,5.663 7.139,10.006 12.559,13.029 5.421,3.022 11.814,4.534 19.18,4.534 9.798,0 17.823,-2.641 24.078,-7.922 0.833,-0.765 1.44,-1.529 1.823,-2.293 0.382,-0.765 0.574,-1.668 0.574,-2.71 0,-1.529 -0.417,-2.814 -1.25,-3.857 -0.834,-1.042 -1.843,-1.564 -3.024,-1.564 -0.766,0 -1.459,0.122 -2.084,0.366 -0.626,0.242 -1.355,0.641 -2.189,1.198 -3.059,2.153 -5.908,3.665 -8.547,4.534 -2.642,0.868 -5.629,1.304 -8.964,1.304 -7.575,0 -13.29,-2.241 -17.147,-6.724 -3.856,-4.481 -5.785,-11.137 -5.785,-19.961 0,-18.067 7.922,-27.1 23.766,-27.1 4.724,0 9.449,0.66 14.176,1.98 v 18.449 h -11.78 c -1.667,0 -2.969,0.417 -3.908,1.251 -0.938,0.834 -1.407,2.015 -1.407,3.544 0,1.529 0.469,2.71 1.407,3.544 0.939,0.834 2.241,1.251 3.908,1.251 H -3.856 C -2.259,1.407 -0.975,0.938 0,0"
             inkscape:connector-curvature="0" /></g><g
           transform="translate(883.918,680.532)"
           id="g28"><path
             id="path30"
             style="fill:#666666;fill-opacity:1;fill-rule:nonzero;stroke:none"
             d="m 0,0 c -1.146,1.11 -1.72,2.674 -1.72,4.69 v 60.768 c 0,2.015 0.574,3.578 1.72,4.69 1.146,1.112 2.727,1.668 4.742,1.668 h 37.629 c 2.015,0 3.578,-0.452 4.691,-1.354 1.11,-0.904 1.667,-2.19 1.667,-3.858 0,-1.737 -0.557,-3.074 -1.667,-4.012 -1.113,-0.938 -2.676,-1.407 -4.691,-1.407 H 11.413 V 40.964 h 28.873 c 2.015,0 3.578,-0.453 4.691,-1.356 1.111,-0.904 1.668,-2.224 1.668,-3.961 0,-1.668 -0.557,-2.954 -1.668,-3.856 -1.113,-0.904 -2.676,-1.355 -4.691,-1.355 H 11.413 V 8.964 h 30.958 c 2.015,0 3.578,-0.469 4.691,-1.407 1.11,-0.939 1.667,-2.277 1.667,-4.013 0,-1.668 -0.557,-2.955 -1.667,-3.856 -1.113,-0.905 -2.676,-1.356 -4.691,-1.356 H 4.742 C 2.727,-1.668 1.146,-1.112 0,0"
             inkscape:connector-curvature="0" /></g><g
           transform="translate(1011.1855,751.0457)"
           id="g32"><path
             id="path34"
             style="fill:#666666;fill-opacity:1;fill-rule:nonzero;stroke:none"
             d="m 0,0 c 1.146,-1.217 1.72,-2.832 1.72,-4.847 v -61.185 c 0,-2.016 -0.591,-3.648 -1.772,-4.899 -1.182,-1.251 -2.71,-1.876 -4.587,-1.876 -2.224,0 -3.926,0.798 -5.107,2.397 l -38.045,49.512 v -45.134 c 0,-2.016 -0.557,-3.648 -1.668,-4.899 -1.112,-1.251 -2.642,-1.876 -4.586,-1.876 -1.946,0 -3.476,0.625 -4.586,1.876 -1.112,1.251 -1.668,2.883 -1.668,4.899 v 61.185 c 0,2.015 0.59,3.63 1.772,4.847 1.18,1.215 2.744,1.824 4.69,1.824 2.153,0 3.821,-0.8 5.004,-2.397 l 37.94,-49.303 v 45.029 c 0,2.015 0.574,3.63 1.72,4.847 1.147,1.215 2.658,1.824 4.534,1.824 C -2.693,1.824 -1.146,1.215 0,0"
             inkscape:connector-curvature="0" /></g><g
           transform="translate(1050.2725,682.5125)"
           id="g36"><path
             id="path38"
             style="fill:#666666;fill-opacity:1;fill-rule:nonzero;stroke:none"
             d="m 0,0 c -5.315,3.057 -9.398,7.435 -12.247,13.133 -2.851,5.697 -4.274,12.368 -4.274,20.013 0,7.643 1.423,14.296 4.274,19.96 2.849,5.664 6.932,10.023 12.247,13.082 5.316,3.057 11.518,4.586 18.605,4.586 4.587,0 8.895,-0.677 12.926,-2.033 4.029,-1.354 7.609,-3.318 10.736,-5.888 0.902,-0.696 1.528,-1.425 1.876,-2.19 0.347,-0.765 0.521,-1.703 0.521,-2.813 0,-1.53 -0.417,-2.815 -1.251,-3.858 -0.834,-1.042 -1.842,-1.563 -3.022,-1.563 -1.391,0 -2.815,0.485 -4.274,1.46 -2.988,2.222 -5.768,3.768 -8.339,4.637 -2.571,0.869 -5.42,1.304 -8.547,1.304 -7.228,0 -12.7,-2.26 -16.417,-6.775 -3.717,-4.518 -5.576,-11.154 -5.576,-19.909 0,-8.826 1.859,-15.497 5.576,-20.013 3.717,-4.518 9.189,-6.775 16.417,-6.775 2.987,0 5.749,0.452 8.287,1.355 2.536,0.902 5.402,2.432 8.599,4.586 0.694,0.417 1.389,0.764 2.085,1.043 0.694,0.276 1.423,0.417 2.189,0.417 1.18,0 2.188,-0.522 3.022,-1.564 0.834,-1.043 1.251,-2.329 1.251,-3.856 0,-1.043 -0.174,-1.965 -0.521,-2.763 C 43.795,4.776 43.169,4.029 42.267,3.335 39.14,0.764 35.56,-1.199 31.531,-2.554 27.5,-3.909 23.192,-4.587 18.605,-4.587 11.518,-4.587 5.316,-3.059 0,0"
             inkscape:connector-curvature="0" /></g><g
           transform="translate(1104.3184,683.7635)"
           id="g40"><path
             id="path42"
             style="fill:#666666;fill-opacity:1;fill-rule:nonzero;stroke:none"
             d="M 0,0 C 0,1.667 0.435,2.935 1.303,3.804 2.171,4.672 3.544,5.176 5.42,5.315 l 3.335,0.208 c 2.849,0.139 5.004,1.043 6.463,2.711 1.459,1.667 2.188,4.204 2.188,7.609 v 46.593 c 0,2.014 0.609,3.629 1.824,4.846 1.215,1.215 2.832,1.824 4.847,1.824 2.085,0 3.735,-0.609 4.951,-1.824 1.216,-1.217 1.825,-2.832 1.825,-4.846 V 15.843 C 30.853,2.71 24.354,-4.344 11.361,-5.316 L 8.025,-5.524 C 2.674,-5.733 0,-3.893 0,0"
             inkscape:connector-curvature="0" /></g><g
           transform="translate(1175.4043,706.4861)"
           id="g44"><path
             id="path46"
             style="fill:#666666;fill-opacity:1;fill-rule:nonzero;stroke:none"
             d="M 0,0 H 27.518 L 13.759,30.957 z m 50.137,-22.307 c 0,-1.598 -0.644,-2.954 -1.929,-4.064 -1.286,-1.112 -2.762,-1.668 -4.43,-1.668 -1.112,0 -2.154,0.297 -3.127,0.886 -0.973,0.59 -1.737,1.511 -2.293,2.762 l -6.254,13.967 h -36.69 l -6.254,-13.967 c -0.556,-1.251 -1.321,-2.172 -2.293,-2.762 -0.974,-0.589 -2.051,-0.886 -3.231,-0.886 -1.6,0 -3.059,0.556 -4.378,1.668 -1.32,1.11 -1.981,2.466 -1.981,4.064 0,0.903 0.209,1.807 0.626,2.711 l 28.768,61.81 c 0.626,1.39 1.58,2.45 2.867,3.18 1.284,0.729 2.657,1.094 4.117,1.094 1.459,0 2.83,-0.365 4.117,-1.094 1.286,-0.73 2.242,-1.79 2.867,-3.18 l 28.873,-61.81 c 0.416,-0.904 0.625,-1.808 0.625,-2.711"
             inkscape:connector-curvature="0" /></g><g
           transform="translate(758.6836,562.0936)"
           id="g48"><path
             id="path50"
             style="fill:#666666;fill-opacity:1;fill-rule:nonzero;stroke:none"
             d="m 0,0 c 2.223,1.736 3.335,4.446 3.335,8.13 0,3.683 -1.13,6.427 -3.388,8.234 -2.259,1.807 -5.784,2.71 -10.579,2.71 h -18.763 v -21.68 h 18.763 C -5.769,-2.606 -2.225,-1.738 0,0 m -29.395,29.498 h 16.991 c 9.241,0 13.863,3.44 13.863,10.319 0,3.474 -1.147,6.045 -3.439,7.713 -2.293,1.668 -5.769,2.502 -10.424,2.502 H -29.395 z M 12.56,18.449 c 2.327,-3.127 3.492,-6.949 3.492,-11.466 0,-6.254 -2.241,-11.153 -6.723,-14.697 -4.482,-3.544 -10.65,-5.315 -18.502,-5.315 h -26.892 c -2.016,0 -3.596,0.555 -4.743,1.668 -1.146,1.11 -1.719,2.673 -1.719,4.69 v 60.768 c 0,2.014 0.573,3.578 1.719,4.69 1.147,1.111 2.727,1.668 4.743,1.668 h 25.85 c 7.643,0 13.637,-1.685 17.98,-5.055 4.342,-3.372 6.514,-8.078 6.514,-14.124 0,-3.892 -1.025,-7.261 -3.074,-10.11 C 9.154,28.315 6.322,26.23 2.71,24.912 c 4.237,-1.183 7.52,-3.336 9.85,-6.463"
             inkscape:connector-curvature="0" /></g><g
           transform="translate(811.4258,576.6863)"
           id="g52"><path
             id="path54"
             style="fill:#666666;fill-opacity:1;fill-rule:nonzero;stroke:none"
             d="M 0,0 H 27.518 L 13.759,30.957 z m 50.137,-22.307 c 0,-1.598 -0.644,-2.954 -1.929,-4.064 -1.286,-1.112 -2.762,-1.668 -4.43,-1.668 -1.112,0 -2.154,0.297 -3.127,0.886 -0.973,0.59 -1.737,1.511 -2.293,2.762 l -6.254,13.967 h -36.69 l -6.254,-13.967 c -0.556,-1.251 -1.321,-2.172 -2.293,-2.762 -0.974,-0.589 -2.051,-0.886 -3.231,-0.886 -1.6,0 -3.059,0.556 -4.378,1.668 -1.32,1.11 -1.981,2.466 -1.981,4.064 0,0.903 0.209,1.807 0.626,2.711 l 28.768,61.81 c 0.626,1.39 1.58,2.45 2.867,3.18 1.284,0.729 2.657,1.094 4.117,1.094 1.459,0 2.83,-0.365 4.117,-1.094 1.286,-0.73 2.242,-1.79 2.867,-3.18 l 28.873,-61.81 c 0.416,-0.904 0.625,-1.808 0.625,-2.711"
             inkscape:connector-curvature="0" /></g><g
           transform="translate(905.2354,560.0086)"
           id="g56"><path
             id="path58"
             style="fill:#666666;fill-opacity:1;fill-rule:nonzero;stroke:none"
             d="M 0,0 C 16.886,0 25.329,8.615 25.329,25.85 25.329,43.013 16.886,51.596 0,51.596 H -12.82 V 0 z m -24.547,-9.276 c -1.146,1.11 -1.72,2.673 -1.72,4.69 v 60.768 c 0,2.014 0.574,3.578 1.72,4.69 1.147,1.111 2.727,1.668 4.742,1.668 H 0.834 c 12.021,0 21.35,-3.215 27.986,-9.642 6.636,-6.427 9.954,-15.444 9.954,-27.048 0,-11.674 -3.318,-20.726 -9.954,-27.153 -6.636,-6.428 -15.965,-9.641 -27.986,-9.641 h -20.639 c -2.015,0 -3.595,0.555 -4.742,1.668"
             inkscape:connector-curvature="0" /></g><g
           transform="translate(980.0752,576.6863)"
           id="g60"><path
             id="path62"
             style="fill:#666666;fill-opacity:1;fill-rule:nonzero;stroke:none"
             d="M 0,0 H 27.518 L 13.759,30.957 z m 50.137,-22.307 c 0,-1.598 -0.644,-2.954 -1.929,-4.064 -1.286,-1.112 -2.762,-1.668 -4.43,-1.668 -1.112,0 -2.154,0.297 -3.127,0.886 -0.973,0.59 -1.737,1.511 -2.293,2.762 l -6.254,13.967 h -36.69 l -6.254,-13.967 c -0.556,-1.251 -1.321,-2.172 -2.293,-2.762 -0.974,-0.589 -2.051,-0.886 -3.231,-0.886 -1.6,0 -3.059,0.556 -4.378,1.668 -1.32,1.11 -1.981,2.466 -1.981,4.064 0,0.903 0.209,1.807 0.626,2.711 l 28.768,61.81 c 0.626,1.39 1.58,2.45 2.867,3.18 1.284,0.729 2.657,1.094 4.117,1.094 1.459,0 2.83,-0.365 4.117,-1.094 1.286,-0.73 2.242,-1.79 2.867,-3.18 l 28.873,-61.81 c 0.416,-0.904 0.625,-1.808 0.625,-2.711"
             inkscape:connector-curvature="0" /></g><g
           transform="translate(1078.5752,628.282)"
           id="g64"><path
             id="path66"
             style="fill:#666666;fill-opacity:1;fill-rule:nonzero;stroke:none"
             d="m 0,0 c -0.903,0 -1.668,0.294 -2.293,0.886 -0.625,0.59 -0.938,1.266 -0.938,2.032 0,0.764 0.381,1.528 1.146,2.293 L 7.4,15.009 c 1.32,1.389 2.815,2.085 4.483,2.085 1.389,0 2.588,-0.505 3.596,-1.512 1.006,-1.008 1.511,-2.172 1.511,-3.491 0,-0.904 -0.297,-1.773 -0.886,-2.607 C 15.513,8.651 14.627,7.921 13.446,7.296 L 1.668,0.417 C 1.111,0.138 0.556,0 0,0 m 29.342,-7.036 c 1.146,-1.217 1.72,-2.832 1.72,-4.847 v -61.185 c 0,-2.016 -0.591,-3.648 -1.772,-4.899 -1.183,-1.251 -2.71,-1.876 -4.587,-1.876 -2.224,0 -3.927,0.798 -5.107,2.397 l -38.045,49.511 v -45.133 c 0,-2.016 -0.557,-3.648 -1.668,-4.899 -1.112,-1.251 -2.642,-1.876 -4.586,-1.876 -1.946,0 -3.476,0.625 -4.586,1.876 -1.112,1.251 -1.668,2.883 -1.668,4.899 v 61.185 c 0,2.015 0.59,3.63 1.771,4.847 1.181,1.215 2.745,1.824 4.691,1.824 2.153,0 3.821,-0.8 5.004,-2.397 l 37.94,-49.303 v 45.029 c 0,2.015 0.573,3.63 1.72,4.847 1.146,1.215 2.658,1.824 4.534,1.824 1.945,0 3.492,-0.609 4.639,-1.824"
             inkscape:connector-curvature="0" /></g><g
           transform="translate(786.0967,491.4461)"
           id="g68"><path
             id="path70"
             style="fill:#666666;fill-opacity:1;fill-rule:nonzero;stroke:none"
             d="m 0,0 c 1.181,-1.217 1.772,-2.832 1.772,-4.847 v -61.706 c 0,-1.946 -0.557,-3.475 -1.668,-4.587 -1.112,-1.11 -2.572,-1.667 -4.377,-1.667 -1.808,0 -3.232,0.557 -4.274,1.667 -1.043,1.112 -1.563,2.641 -1.563,4.587 v 42.945 l -17.72,-33.564 c -0.834,-1.529 -1.738,-2.658 -2.71,-3.388 -0.975,-0.729 -2.121,-1.094 -3.44,-1.094 -1.321,0 -2.467,0.346 -3.44,1.043 -0.974,0.693 -1.876,1.84 -2.71,3.439 l -17.824,33.042 v -42.423 c 0,-1.877 -0.539,-3.387 -1.615,-4.534 -1.078,-1.146 -2.52,-1.72 -4.327,-1.72 -1.807,0 -3.23,0.557 -4.273,1.667 -1.042,1.112 -1.563,2.641 -1.563,4.587 v 61.706 c 0,2.015 0.573,3.63 1.719,4.847 1.148,1.215 2.693,1.824 4.639,1.824 2.71,0 4.829,-1.495 6.358,-4.482 l 23.14,-44.091 23.036,44.091 c 1.527,2.987 3.578,4.482 6.15,4.482 C -2.746,1.824 -1.183,1.215 0,0"
             inkscape:connector-curvature="0" /></g><g
           transform="translate(812.8311,420.9324)"
           id="g72"><path
             id="path74"
             style="fill:#666666;fill-opacity:1;fill-rule:nonzero;stroke:none"
             d="m 0,0 c -1.146,1.11 -1.72,2.674 -1.72,4.69 v 60.768 c 0,2.015 0.574,3.578 1.72,4.69 1.146,1.112 2.727,1.668 4.742,1.668 h 37.629 c 2.015,0 3.578,-0.452 4.691,-1.354 1.11,-0.904 1.667,-2.19 1.667,-3.858 0,-1.737 -0.557,-3.074 -1.667,-4.012 -1.113,-0.938 -2.676,-1.407 -4.691,-1.407 H 11.413 V 40.964 h 28.873 c 2.015,0 3.578,-0.453 4.691,-1.356 1.111,-0.904 1.668,-2.224 1.668,-3.961 0,-1.668 -0.557,-2.954 -1.668,-3.856 -1.113,-0.904 -2.676,-1.355 -4.691,-1.355 H 11.413 V 8.964 h 30.958 c 2.015,0 3.578,-0.469 4.691,-1.407 1.11,-0.939 1.667,-2.277 1.667,-4.013 0,-1.668 -0.557,-2.955 -1.667,-3.856 -1.113,-0.905 -2.676,-1.356 -4.691,-1.356 H 4.742 C 2.727,-1.668 1.146,-1.112 0,0"
             inkscape:connector-curvature="0" /></g><g
           transform="translate(906.0674,430.2088)"
           id="g76"><path
             id="path78"
             style="fill:#666666;fill-opacity:1;fill-rule:nonzero;stroke:none"
             d="M 0,0 C 16.886,0 25.329,8.615 25.329,25.85 25.329,43.013 16.886,51.596 0,51.596 H -12.82 V 0 z m -24.547,-9.276 c -1.146,1.11 -1.72,2.673 -1.72,4.69 v 60.768 c 0,2.014 0.574,3.578 1.72,4.69 1.147,1.111 2.727,1.668 4.742,1.668 H 0.834 c 12.021,0 21.35,-3.215 27.986,-9.642 6.636,-6.427 9.954,-15.444 9.954,-27.048 0,-11.674 -3.318,-20.726 -9.954,-27.153 -6.636,-6.428 -15.965,-9.641 -27.986,-9.641 h -20.639 c -2.015,0 -3.595,0.555 -4.742,1.668"
             inkscape:connector-curvature="0" /></g><g
           transform="translate(1011.6562,493.2703)"
           id="g80"><path
             id="path82"
             style="fill:#666666;fill-opacity:1;fill-rule:nonzero;stroke:none"
             d="m 0,0 c 1.598,0 3.022,-0.609 4.273,-1.824 1.251,-1.217 1.876,-2.658 1.876,-4.326 0,-1.391 -0.52,-2.71 -1.563,-3.96 l -23.661,-28.873 v -28.873 c 0,-2.155 -0.625,-3.823 -1.876,-5.003 -1.251,-1.181 -2.85,-1.772 -4.795,-1.772 -2.016,0 -3.648,0.591 -4.899,1.772 -1.251,1.18 -1.876,2.848 -1.876,5.003 v 28.873 l -23.661,28.873 c -1.043,1.25 -1.563,2.569 -1.563,3.96 0,1.668 0.625,3.109 1.876,4.326 1.251,1.215 2.674,1.824 4.273,1.824 1.737,0 3.232,-0.766 4.483,-2.293 l 21.367,-26.476 21.264,26.476 C -3.231,-0.766 -1.738,0 0,0"
             inkscape:connector-curvature="0" /></g><g
           transform="translate(1043.3945,422.9129)"
           id="g84"><path
             id="path86"
             style="fill:#666666;fill-opacity:1;fill-rule:nonzero;stroke:none"
             d="m 0,0 c -5.315,3.057 -9.398,7.435 -12.247,13.133 -2.851,5.697 -4.274,12.368 -4.274,20.013 0,7.643 1.423,14.296 4.274,19.96 2.849,5.664 6.932,10.023 12.247,13.082 5.316,3.057 11.518,4.586 18.605,4.586 4.587,0 8.895,-0.677 12.926,-2.033 4.029,-1.354 7.609,-3.318 10.736,-5.888 0.902,-0.696 1.528,-1.425 1.876,-2.19 0.347,-0.765 0.521,-1.703 0.521,-2.813 0,-1.53 -0.417,-2.815 -1.251,-3.858 -0.834,-1.042 -1.842,-1.563 -3.022,-1.563 -1.391,0 -2.815,0.485 -4.274,1.46 -2.988,2.222 -5.768,3.768 -8.339,4.637 -2.571,0.869 -5.42,1.304 -8.547,1.304 -7.228,0 -12.7,-2.26 -16.417,-6.775 -3.717,-4.518 -5.576,-11.154 -5.576,-19.909 0,-8.826 1.859,-15.497 5.576,-20.013 3.717,-4.518 9.189,-6.775 16.417,-6.775 2.987,0 5.749,0.452 8.287,1.355 2.536,0.902 5.402,2.432 8.599,4.586 0.694,0.417 1.389,0.764 2.085,1.043 0.694,0.276 1.423,0.417 2.189,0.417 1.18,0 2.188,-0.522 3.022,-1.564 0.834,-1.043 1.251,-2.329 1.251,-3.856 0,-1.043 -0.174,-1.965 -0.521,-2.763 C 43.795,4.776 43.169,4.029 42.267,3.335 39.14,0.764 35.56,-1.199 31.531,-2.554 27.5,-3.909 23.192,-4.587 18.605,-4.587 11.518,-4.587 5.316,-3.059 0,0"
             inkscape:connector-curvature="0" /></g><g
           transform="translate(1158.7295,424.6844)"
           id="g88"><path
             id="path90"
             style="fill:#666666;fill-opacity:1;fill-rule:nonzero;stroke:none"
             d="m 0,0 c 0,-3.613 -2.085,-5.42 -6.255,-5.42 h -44.403 c -1.808,0 -3.249,0.537 -4.325,1.615 -1.079,1.077 -1.617,2.451 -1.617,4.117 0,1.668 0.556,3.266 1.668,4.795 l 37.316,52.221 h -32.625 c -4.169,0 -6.254,1.773 -6.254,5.317 0,3.612 2.085,5.419 6.254,5.419 h 43.049 c 1.805,0 3.247,-0.539 4.325,-1.615 1.077,-1.078 1.616,-2.415 1.616,-4.013 0,-1.599 -0.592,-3.197 -1.772,-4.794 L -40.339,5.316 H -6.255 C -2.085,5.316 0,3.544 0,0"
             inkscape:connector-curvature="0" /></g><g
           transform="translate(1236.6426,491.4461)"
           id="g92"><path
             id="path94"
             style="fill:#666666;fill-opacity:1;fill-rule:nonzero;stroke:none"
             d="m 0,0 c 1.146,-1.217 1.72,-2.832 1.72,-4.847 v -61.185 c 0,-2.016 -0.591,-3.648 -1.772,-4.899 -1.182,-1.251 -2.71,-1.876 -4.587,-1.876 -2.224,0 -3.926,0.798 -5.107,2.397 l -38.045,49.512 v -45.134 c 0,-2.016 -0.557,-3.648 -1.668,-4.899 -1.112,-1.251 -2.642,-1.876 -4.586,-1.876 -1.946,0 -3.476,0.625 -4.586,1.876 -1.112,1.251 -1.668,2.883 -1.668,4.899 v 61.185 c 0,2.015 0.59,3.63 1.772,4.847 1.18,1.215 2.744,1.824 4.69,1.824 2.153,0 3.821,-0.8 5.004,-2.397 l 37.94,-49.303 v 45.029 c 0,2.015 0.574,3.63 1.72,4.847 1.147,1.215 2.658,1.824 4.534,1.824 C -2.693,1.824 -1.146,1.215 0,0"
             inkscape:connector-curvature="0" /></g><g
           transform="translate(1311.8457,493.2703)"
           id="g96"><path
             id="path98"
             style="fill:#666666;fill-opacity:1;fill-rule:nonzero;stroke:none"
             d="m 0,0 c 1.598,0 3.022,-0.609 4.273,-1.824 1.251,-1.217 1.876,-2.658 1.876,-4.326 0,-1.391 -0.52,-2.71 -1.563,-3.96 l -23.661,-28.873 v -28.873 c 0,-2.155 -0.625,-3.823 -1.876,-5.003 -1.251,-1.181 -2.85,-1.772 -4.795,-1.772 -2.016,0 -3.648,0.591 -4.899,1.772 -1.251,1.18 -1.876,2.848 -1.876,5.003 v 28.873 l -23.661,28.873 c -1.043,1.25 -1.563,2.569 -1.563,3.96 0,1.668 0.625,3.109 1.876,4.326 1.251,1.215 2.674,1.824 4.273,1.824 1.737,0 3.232,-0.766 4.483,-2.293 l 21.367,-26.476 21.264,26.476 C -3.231,-0.766 -1.738,0 0,0"
             inkscape:connector-curvature="0" /></g><g
           transform="translate(1343.583,422.9129)"
           id="g100"><path
             id="path102"
             style="fill:#666666;fill-opacity:1;fill-rule:nonzero;stroke:none"
             d="m 0,0 c -5.315,3.057 -9.398,7.435 -12.247,13.133 -2.851,5.697 -4.274,12.368 -4.274,20.013 0,7.643 1.423,14.296 4.274,19.96 2.849,5.664 6.932,10.023 12.247,13.082 5.316,3.057 11.518,4.586 18.605,4.586 4.587,0 8.895,-0.677 12.926,-2.033 4.029,-1.354 7.609,-3.318 10.736,-5.888 0.902,-0.696 1.528,-1.425 1.876,-2.19 0.347,-0.765 0.521,-1.703 0.521,-2.813 0,-1.53 -0.417,-2.815 -1.251,-3.858 -0.834,-1.042 -1.842,-1.563 -3.022,-1.563 -1.391,0 -2.815,0.485 -4.274,1.46 -2.988,2.222 -5.768,3.768 -8.339,4.637 -2.571,0.869 -5.42,1.304 -8.547,1.304 -7.228,0 -12.7,-2.26 -16.417,-6.775 -3.717,-4.518 -5.576,-11.154 -5.576,-19.909 0,-8.826 1.859,-15.497 5.576,-20.013 3.717,-4.518 9.189,-6.775 16.417,-6.775 2.987,0 5.749,0.452 8.287,1.355 2.536,0.902 5.402,2.432 8.599,4.586 0.694,0.417 1.389,0.764 2.085,1.043 0.694,0.276 1.423,0.417 2.189,0.417 1.18,0 2.188,-0.522 3.022,-1.564 0.834,-1.043 1.251,-2.329 1.251,-3.856 0,-1.043 -0.174,-1.965 -0.521,-2.763 C 43.795,4.776 43.169,4.029 42.267,3.335 39.14,0.764 35.56,-1.199 31.531,-2.554 27.5,-3.909 23.192,-4.587 18.605,-4.587 11.518,-4.587 5.316,-3.059 0,0"
             inkscape:connector-curvature="0" /></g><g
           transform="translate(1469.5488,491.4461)"
           id="g104"><path
             id="path106"
             style="fill:#666666;fill-opacity:1;fill-rule:nonzero;stroke:none"
             d="m 0,0 c 1.181,-1.217 1.771,-2.832 1.771,-4.847 v -61.185 c 0,-2.016 -0.609,-3.648 -1.824,-4.899 -1.217,-1.251 -2.798,-1.876 -4.742,-1.876 -2.017,0 -3.614,0.625 -4.795,1.876 -1.182,1.251 -1.771,2.883 -1.771,4.899 v 25.746 H -48.99 v -25.746 c 0,-2.016 -0.61,-3.648 -1.824,-4.899 -1.216,-1.251 -2.832,-1.876 -4.847,-1.876 -1.946,0 -3.527,0.625 -4.742,1.876 -1.217,1.251 -1.825,2.883 -1.825,4.899 v 61.185 c 0,2.015 0.59,3.63 1.772,4.847 1.181,1.215 2.779,1.824 4.795,1.824 2.015,0 3.631,-0.609 4.847,-1.824 1.214,-1.217 1.824,-2.832 1.824,-4.847 v -24.599 h 37.629 v 24.599 c 0,2.015 0.589,3.63 1.771,4.847 1.181,1.215 2.778,1.824 4.795,1.824 C -2.78,1.824 -1.183,1.215 0,0"
             inkscape:connector-curvature="0" /></g><g
           transform="translate(186.0835,581.9998)"
           id="g108"><path
             id="path110"
             style="fill:#c90000;fill-opacity:1;fill-rule:nonzero;stroke:none"
             d="M 0,0 H 21.912 L 10.956,24.651 z m 39.923,-17.762 c 0,-1.274 -0.512,-2.352 -1.535,-3.237 -1.025,-0.886 -2.2,-1.328 -3.528,-1.328 -0.886,0 -1.715,0.236 -2.49,0.705 -0.775,0.47 -1.384,1.204 -1.826,2.2 L 25.564,-8.3 H -3.652 l -4.98,-11.122 c -0.444,-0.996 -1.052,-1.73 -1.826,-2.2 -0.775,-0.469 -1.633,-0.705 -2.573,-0.705 -1.274,0 -2.435,0.442 -3.486,1.328 -1.052,0.885 -1.577,1.963 -1.577,3.237 0,0.718 0.166,1.438 0.498,2.158 L 5.312,33.615 c 0.498,1.106 1.258,1.95 2.283,2.531 1.023,0.582 2.116,0.872 3.278,0.872 1.162,0 2.254,-0.29 3.278,-0.872 1.024,-0.581 1.785,-1.425 2.283,-2.531 l 22.991,-49.219 c 0.332,-0.72 0.498,-1.44 0.498,-2.158"
             inkscape:connector-curvature="0" /></g><g
           transform="translate(390.7974,743.6717)"
           id="g112"><path
             id="path114"
             style="fill:#c90000;fill-opacity:1;fill-rule:nonzero;stroke:none"
             d="m 0,0 c 1.771,1.383 2.656,3.54 2.656,6.474 0,2.932 -0.9,5.118 -2.698,6.557 -1.798,1.438 -4.606,2.158 -8.424,2.158 h -14.94 V -2.075 h 14.94 c 3.873,0 6.695,0.691 8.466,2.075 m -23.406,23.489 h 13.529 c 7.358,0 11.039,2.739 11.039,8.217 0,2.767 -0.913,4.814 -2.739,6.142 -1.826,1.328 -4.593,1.992 -8.3,1.992 h -13.529 z m 33.407,-8.798 c 1.854,-2.49 2.781,-5.534 2.781,-9.13 0,-4.98 -1.784,-8.881 -5.353,-11.703 -3.569,-2.822 -8.481,-4.233 -14.733,-4.233 h -21.414 c -1.605,0 -2.864,0.442 -3.776,1.328 -0.913,0.885 -1.37,2.129 -1.37,3.735 v 48.389 c 0,1.605 0.457,2.849 1.37,3.735 0.912,0.884 2.171,1.328 3.776,1.328 h 20.584 c 6.086,0 10.859,-1.342 14.318,-4.026 3.457,-2.684 5.187,-6.432 5.187,-11.246 0,-3.099 -0.817,-5.783 -2.448,-8.051 -1.633,-2.269 -3.888,-3.929 -6.765,-4.98 3.375,-0.941 5.989,-2.656 7.843,-5.146"
             inkscape:connector-curvature="0" /></g><g
           transform="translate(591.3164,617.4822)"
           id="g116"><path
             id="path118"
             style="fill:#c90000;fill-opacity:1;fill-rule:nonzero;stroke:none"
             d="m 0,0 c 0.941,-0.969 1.412,-2.255 1.412,-3.859 v -49.136 c 0,-1.55 -0.443,-2.768 -1.328,-3.652 -0.887,-0.885 -2.049,-1.329 -3.486,-1.329 -1.44,0 -2.573,0.444 -3.403,1.329 -0.83,0.884 -1.246,2.102 -1.246,3.652 V -18.8 L -22.16,-45.525 c -0.664,-1.218 -1.385,-2.117 -2.158,-2.698 -0.776,-0.581 -1.69,-0.872 -2.739,-0.872 -1.052,0 -1.964,0.277 -2.74,0.83 -0.775,0.553 -1.494,1.466 -2.158,2.74 l -14.192,26.31 v -33.78 c 0,-1.494 -0.43,-2.698 -1.287,-3.611 -0.858,-0.913 -2.006,-1.37 -3.444,-1.37 -1.44,0 -2.574,0.444 -3.403,1.329 -0.83,0.884 -1.245,2.102 -1.245,3.652 v 49.136 c 0,1.604 0.456,2.89 1.369,3.859 0.913,0.968 2.144,1.452 3.694,1.452 2.157,0 3.845,-1.19 5.063,-3.568 l 18.425,-35.11 18.344,35.11 c 1.217,2.378 2.848,3.568 4.897,3.568 C -2.186,1.452 -0.941,0.968 0,0"
             inkscape:connector-curvature="0" /></g><g
           transform="translate(634.3145,584.9705)"
           id="g120"><path
             id="path122"
             style="fill:none;stroke:#c90d0d;stroke-width:9;stroke-linecap:butt;stroke-linejoin:miter;stroke-miterlimit:10;stroke-opacity:1;stroke-dasharray:none"
             d="m 0,0 c 0,-139.418 -113.021,-252.438 -252.439,-252.438 -139.418,0 -252.439,113.02 -252.439,252.438 0,139.419 113.021,252.439 252.439,252.439 C -113.021,252.439 0,139.419 0,0 z"
             inkscape:connector-curvature="0" /></g><g
           transform="translate(218.0986,656.2733)"
           id="g124"><path
             id="path126"
             style="fill:#c90d0d;fill-opacity:1;fill-rule:nonzero;stroke:none"
             d="m 0,0 c -7.196,2.999 -8.573,0.941 -3.061,-4.57 l 57.99,-57.99 c 5.512,-5.512 5.512,-14.532 0,-20.044 l -57.99,-57.99 c -5.512,-5.511 -4.135,-7.569 3.061,-4.57 l 161.115,67.131 c 7.196,2.998 7.196,7.904 0,10.902 z"
             inkscape:connector-curvature="0" /></g><g
           transform="translate(456.1191,745.0848)"
           id="g128"><path
             id="path130"
             style="fill:#c90d0d;fill-opacity:1;fill-rule:nonzero;stroke:none"
             d="m 0,0 c 2.999,7.196 0.941,8.573 -4.571,3.062 l -57.989,-57.99 c -5.512,-5.512 -14.532,-5.512 -20.044,0 l -57.99,57.99 c -5.512,5.511 -7.569,4.134 -4.571,-3.062 l 67.131,-161.114 c 2.999,-7.196 7.905,-7.196 10.903,0 z"
             inkscape:connector-curvature="0" /></g><g
           transform="translate(383.6035,665.8797)"
           id="g132"><path
             id="path134"
             style="fill:#a31919;fill-opacity:1;fill-rule:nonzero;stroke:none"
             d="m 0,0 c 0,7.796 -4.51,18.684 -10.022,24.195 l -57.99,57.991 c -5.512,5.511 -7.569,4.133 -4.571,-3.062 L -5.451,-81.991 C -2.453,-89.187 0,-88.695 0,-80.9 z"
             inkscape:connector-curvature="0" /></g><g
           transform="translate(297.2227,582.4822)"
           id="g136"><path
             id="path138"
             style="fill:#a31919;fill-opacity:1;fill-rule:nonzero;stroke:none"
             d="m 0,0 c -7.795,0 -18.683,-4.51 -24.195,-10.022 l -57.99,-57.99 c -5.512,-5.511 -4.135,-7.569 3.061,-4.57 L 81.991,-5.451 C 89.187,-2.453 88.696,0 80.9,0 z"
             inkscape:connector-curvature="0" /></g><g
           transform="translate(308.5366,421.3738)"
           id="g140"><path
             id="path142"
             style="fill:#c90d0d;fill-opacity:1;fill-rule:nonzero;stroke:none"
             d="m 0,0 c -2.999,-7.195 -0.941,-8.572 4.57,-3.061 l 57.99,57.99 c 5.512,5.512 14.532,5.512 20.044,0 l 57.99,-57.99 c 5.512,-5.511 7.569,-4.134 4.571,3.061 L 78.033,161.115 c -2.998,7.196 -7.904,7.196 -10.902,0 z"
             inkscape:connector-curvature="0" /></g><g
           transform="translate(382.3276,500.4979)"
           id="g144"><path
             id="path146"
             style="fill:#a31919;fill-opacity:1;fill-rule:nonzero;stroke:none"
             d="m 0,0 c 0,-7.795 4.51,-18.683 10.022,-24.195 l 57.99,-57.99 c 5.512,-5.511 7.569,-4.134 4.571,3.061 L 5.452,81.991 C 2.453,89.187 0,88.696 0,80.901 z"
             inkscape:connector-curvature="0" /></g><g
           transform="translate(545.3906,511.2518)"
           id="g148"><path
             id="path150"
             style="fill:#c90d0d;fill-opacity:1;fill-rule:nonzero;stroke:none"
             d="m 0,0 c 7.196,-2.998 8.573,-0.941 3.062,4.57 l -57.99,57.991 c -5.512,5.511 -5.512,14.531 0,20.043 l 57.99,57.99 c 5.511,5.511 4.134,7.569 -3.062,4.57 L -161.114,78.033 c -7.196,-2.998 -7.196,-7.904 0,-10.902 z"
             inkscape:connector-curvature="0" /></g><g
           transform="translate(465.4312,583.4822)"
           id="g152"><path
             id="path154"
             style="fill:#a31919;fill-opacity:1;fill-rule:nonzero;stroke:none"
             d="M 0,0 C 7.795,0 18.683,4.51 24.195,10.021 L 83.46,69.287 c 5.512,5.512 4.135,7.569 -3.061,4.57 L -83.776,5.451 C -90.972,2.453 -90.481,0 -82.687,0 z"
             inkscape:connector-curvature="0" /></g><g
           transform="translate(395.0039,446.0506)"
           id="g156"><path
             id="path158"
             style="fill:#c90d0d;fill-opacity:1;fill-rule:nonzero;stroke:none"
             d="m 0,0 c -4.241,4 -6.307,2.942 -6.307,2.942 l -2.83,-0.518 c -16.412,2.312 -17.934,-9.903 -17.934,-9.903 -0.421,-7.738 6.609,-10.805 9.831,-11.793 l -0.152,6.384 c -4.651,2.492 -4.14,4.989 -4.14,4.989 -0.212,6.851 11.305,6.528 11.305,6.528 2.179,-3.895 8.162,-2.942 8.162,-2.942 L 0.65,-4.114 C 4.238,-3.164 0,0 0,0"
             inkscape:connector-curvature="0" /></g><g
           transform="translate(395.0039,446.0506)"
           id="g160"><path
             id="path162"
             style="fill:none;stroke:#c90d0d;stroke-width:0.25;stroke-linecap:butt;stroke-linejoin:miter;stroke-miterlimit:10;stroke-opacity:1;stroke-dasharray:none"
             d="m 0,0 c -4.241,4 -6.307,2.942 -6.307,2.942 l -2.83,-0.518 c -16.412,2.312 -17.934,-9.903 -17.934,-9.903 -0.421,-7.738 6.609,-10.805 9.831,-11.793 l -0.152,6.384 c -4.651,2.492 -4.14,4.989 -4.14,4.989 -0.212,6.851 11.305,6.528 11.305,6.528 2.179,-3.895 8.162,-2.942 8.162,-2.942 L 0.65,-4.114 C 4.238,-3.164 0,0 0,0 z"
             inkscape:connector-curvature="0" /></g><g
           transform="translate(385.8374,456.616)"
           id="g164"><path
             id="path166"
             style="fill:#c90d0d;fill-opacity:1;fill-rule:nonzero;stroke:none"
             d="m 0,0 c 0,-2.823 -2.375,-5.123 -5.297,-5.123 -2.924,0 -5.286,2.3 -5.286,5.123 0,2.826 2.362,5.131 5.286,5.131 C -2.375,5.131 0,2.826 0,0"
             inkscape:connector-curvature="0" /></g><g
           transform="translate(385.8374,456.616)"
           id="g168"><path
             id="path170"
             style="fill:none;stroke:#c90d0d;stroke-width:0.25;stroke-linecap:butt;stroke-linejoin:miter;stroke-miterlimit:10;stroke-opacity:1;stroke-dasharray:none"
             d="m 0,0 c 0,-2.823 -2.375,-5.123 -5.297,-5.123 -2.924,0 -5.286,2.3 -5.286,5.123 0,2.826 2.362,5.131 5.286,5.131 C -2.375,5.131 0,2.826 0,0 z"
             inkscape:connector-curvature="0" /></g><g
           transform="translate(382.2725,374.7664)"
           id="g172"><path
             id="path174"
             style="fill:#c90d0d;fill-opacity:1;fill-rule:nonzero;stroke:none"
             d="m 0,0 -0.041,-2.209 c 1.78,-1.182 1.68,-2.237 1.68,-2.237 0.547,-4.953 -7.39,-6.325 -7.39,-6.325 10.214,0.535 9.023,6.43 9.023,6.43 C 3.129,-2.005 1.272,-0.654 0,0"
             inkscape:connector-curvature="0" /></g><g
           transform="translate(382.2725,374.7664)"
           id="g176"><path
             id="path178"
             style="fill:none;stroke:#c90d0d;stroke-width:0.25;stroke-linecap:butt;stroke-linejoin:miter;stroke-miterlimit:10;stroke-opacity:1;stroke-dasharray:none"
             d="m 0,0 -0.041,-2.209 c 1.78,-1.182 1.68,-2.237 1.68,-2.237 0.547,-4.953 -7.39,-6.325 -7.39,-6.325 10.214,0.535 9.023,6.43 9.023,6.43 C 3.129,-2.005 1.272,-0.654 0,0 z"
             inkscape:connector-curvature="0" /></g><g
           transform="translate(388.1558,391.3895)"
           id="g180"><path
             id="path182"
             style="fill:#c90d0d;fill-opacity:1;fill-rule:nonzero;stroke:none"
             d="M 0,0 C 0.066,3.223 -3.092,5.161 -5.392,6.136 L -5.477,2.182 c 1.779,-1.052 1.888,-2.079 1.888,-2.079 0.325,-4.109 -4.027,-5.477 -4.027,-5.477 -6.844,-2.006 -5.982,-6.528 -5.982,-6.528 -0.069,-3.04 2.729,-4.736 4.482,-5.502 l -0.05,2.3 c -2.098,1.401 -2.037,2.991 -2.037,2.991 0.108,3.052 3.698,4.319 3.698,4.319 C 1.188,-5.585 0,0 0,0"
             inkscape:connector-curvature="0" /></g><g
           transform="translate(388.1558,391.3895)"
           id="g184"><path
             id="path186"
             style="fill:none;stroke:#c90d0d;stroke-width:0.25;stroke-linecap:butt;stroke-linejoin:miter;stroke-miterlimit:10;stroke-opacity:1;stroke-dasharray:none"
             d="M 0,0 C 0.066,3.223 -3.092,5.161 -5.392,6.136 L -5.477,2.182 c 1.779,-1.052 1.888,-2.079 1.888,-2.079 0.325,-4.109 -4.027,-5.477 -4.027,-5.477 -6.844,-2.006 -5.982,-6.528 -5.982,-6.528 -0.069,-3.04 2.729,-4.736 4.482,-5.502 l -0.05,2.3 c -2.098,1.401 -2.037,2.991 -2.037,2.991 0.108,3.052 3.698,4.319 3.698,4.319 C 1.188,-5.585 0,0 0,0 z"
             inkscape:connector-curvature="0" /></g><g
           transform="translate(391.5259,419.9276)"
           id="g188"><path
             id="path190"
             style="fill:#c90d0d;fill-opacity:1;fill-rule:nonzero;stroke:none"
             d="M 0,0 C 0.217,6.38 -4.853,9.563 -8.041,10.929 L -8.19,4.131 c 2.141,-1.88 2.099,-3.603 2.099,-3.603 0.11,-5.264 -4.673,-6.74 -4.673,-6.74 -9.353,-2.837 -8.809,-10.219 -8.809,-10.219 -0.43,-5.568 4.577,-7.759 6.577,-8.406 l -0.099,4.19 c -2.383,1.583 -2.239,3.689 -2.239,3.689 0,3.583 5.114,5.901 5.114,5.901 C 0.755,-7.052 0,0 0,0"
             inkscape:connector-curvature="0" /></g><g
           transform="translate(391.5259,419.9276)"
           id="g192"><path
             id="path194"
             style="fill:none;stroke:#c90d0d;stroke-width:0.25;stroke-linecap:butt;stroke-linejoin:miter;stroke-miterlimit:10;stroke-opacity:1;stroke-dasharray:none"
             d="M 0,0 C 0.217,6.38 -4.853,9.563 -8.041,10.929 L -8.19,4.131 c 2.141,-1.88 2.099,-3.603 2.099,-3.603 0.11,-5.264 -4.673,-6.74 -4.673,-6.74 -9.353,-2.837 -8.809,-10.219 -8.809,-10.219 -0.43,-5.568 4.577,-7.759 6.577,-8.406 l -0.099,4.19 c -2.383,1.583 -2.239,3.689 -2.239,3.689 0,3.583 5.114,5.901 5.114,5.901 C 0.755,-7.052 0,0 0,0 z"
             inkscape:connector-curvature="0" /></g><g
           transform="translate(380.4658,414.6238)"
           id="g196"><path
             id="path198"
             style="fill:#c90d0d;fill-opacity:1;fill-rule:nonzero;stroke:none"
             d="m 0,0 c 0.069,0.026 0.849,0.298 1.699,0.953 l 0.6,28.074 C 1.058,28.919 -0.583,28.671 -2.1,28.126 L -1.409,-0.493 C -0.959,-0.319 -0.501,-0.148 0,0"
             inkscape:connector-curvature="0" /></g><g
           transform="translate(380.4658,414.6238)"
           id="g200"><path
             id="path202"
             style="fill:none;stroke:#c90d0d;stroke-width:0.25;stroke-linecap:butt;stroke-linejoin:miter;stroke-miterlimit:10;stroke-opacity:1;stroke-dasharray:none"
             d="m 0,0 c 0.069,0.026 0.849,0.298 1.699,0.953 l 0.6,28.074 C 1.058,28.919 -0.583,28.671 -2.1,28.126 L -1.409,-0.493 C -0.959,-0.319 -0.501,-0.148 0,0 z"
             inkscape:connector-curvature="0" /></g><g
           transform="translate(380.2568,386.9295)"
           id="g204"><path
             id="path206"
             style="fill:#c90d0d;fill-opacity:1;fill-rule:nonzero;stroke:none"
             d="m 0,0 c 0.054,0.015 0.637,0.223 1.307,0.655 l 0.442,20.538 c -0.122,-0.05 -0.229,-0.1 -0.355,-0.149 0.006,0 -1.233,-0.58 -2.405,-1.546 L -0.537,-0.168 C -0.351,-0.127 -0.191,-0.056 0,0"
             inkscape:connector-curvature="0" /></g><g
           transform="translate(380.2568,386.9295)"
           id="g208"><path
             id="path210"
             style="fill:none;stroke:#c90d0d;stroke-width:0.25;stroke-linecap:butt;stroke-linejoin:miter;stroke-miterlimit:10;stroke-opacity:1;stroke-dasharray:none"
             d="m 0,0 c 0.054,0.015 0.637,0.223 1.307,0.655 l 0.442,20.538 c -0.122,-0.05 -0.229,-0.1 -0.355,-0.149 0.006,0 -1.233,-0.58 -2.405,-1.546 L -0.537,-0.168 C -0.351,-0.127 -0.191,-0.056 0,0 z"
             inkscape:connector-curvature="0" /></g><g
           transform="translate(380.2153,366.2967)"
           id="g212"><path
             id="path214"
             style="fill:#c90d0d;fill-opacity:1;fill-rule:nonzero;stroke:none"
             d="M 0,0 C 0.315,0.167 0.615,0.357 0.901,0.569 L 1.247,16.543 C 1.058,16.482 0.885,16.427 0.687,16.377 H 0.69 c 0.005,0 -0.487,-0.196 -1.069,-0.564 z"
             inkscape:connector-curvature="0" /></g><g
           transform="translate(380.2153,366.2967)"
           id="g216"><path
             id="path218"
             style="fill:none;stroke:#c90d0d;stroke-width:0.25;stroke-linecap:butt;stroke-linejoin:miter;stroke-miterlimit:10;stroke-opacity:1;stroke-dasharray:none"
             d="M 0,0 C 0.315,0.167 0.615,0.357 0.901,0.569 L 1.247,16.543 C 1.058,16.482 0.885,16.427 0.687,16.377 H 0.69 c 0.005,0 -0.487,-0.196 -1.069,-0.564 z"
             inkscape:connector-curvature="0" /></g><g
           transform="translate(380.2842,363.5594)"
           id="g220"><path
             id="path222"
             style="fill:#c90d0d;fill-opacity:1;fill-rule:nonzero;stroke:none"
             d="M 0,0 0.365,-11.646 0.77,0.205 C 0.521,0.133 0.263,0.067 0,0"
             inkscape:connector-curvature="0" /></g><g
           transform="translate(380.2842,363.5594)"
           id="g224"><path
             id="path226"
             style="fill:none;stroke:#c90d0d;stroke-width:0.25;stroke-linecap:butt;stroke-linejoin:miter;stroke-miterlimit:10;stroke-opacity:1;stroke-dasharray:none"
             d="M 0,0 0.365,-11.646 0.77,0.205 C 0.521,0.133 0.263,0.067 0,0 z"
             inkscape:connector-curvature="0" /></g><g
           transform="translate(380.54,450.535)"
           id="g228"><path
             id="path230"
             style="fill:#c90d0d;fill-opacity:1;fill-rule:nonzero;stroke:none"
             d="m 0,0 c -0.839,0 -1.64,0.164 -2.365,0.463 l 0.031,-1.626 c 1.14,0.196 2.343,0.345 3.723,0.345 0.316,0 0.653,-0.019 0.975,-0.032 L 2.391,0.469 C 1.654,0.164 0.848,0 0,0"
             inkscape:connector-curvature="0" /></g><g
           transform="translate(380.54,450.535)"
           id="g232"><path
             id="path234"
             style="fill:none;stroke:#c90d0d;stroke-width:0.25;stroke-linecap:butt;stroke-linejoin:miter;stroke-miterlimit:10;stroke-opacity:1;stroke-dasharray:none"
             d="m 0,0 c -0.839,0 -1.64,0.164 -2.365,0.463 l 0.031,-1.626 c 1.14,0.196 2.343,0.345 3.723,0.345 0.316,0 0.653,-0.019 0.975,-0.032 L 2.391,0.469 C 1.654,0.164 0.848,0 0,0 z"
             inkscape:connector-curvature="0" /></g><g
           transform="translate(395.0039,446.0506)"
           id="g236"><path
             id="path238"
             style="fill:#c90d0d;fill-opacity:1;fill-rule:nonzero;stroke:none"
             d="m 0,0 c -4.241,4 -6.307,2.942 -6.307,2.942 l -2.83,-0.518 c -16.412,2.312 -17.934,-9.903 -17.934,-9.903 -0.421,-7.738 6.609,-10.805 9.831,-11.793 l -0.152,6.384 c -4.651,2.492 -4.14,4.989 -4.14,4.989 -0.212,6.851 11.305,6.528 11.305,6.528 2.179,-3.895 8.162,-2.942 8.162,-2.942 L 0.65,-4.114 C 4.238,-3.164 0,0 0,0"
             inkscape:connector-curvature="0" /></g><g
           transform="translate(395.0039,446.0506)"
           id="g240"><path
             id="path242"
             style="fill:none;stroke:#c90d0d;stroke-width:0.25;stroke-linecap:butt;stroke-linejoin:miter;stroke-miterlimit:10;stroke-opacity:1;stroke-dasharray:none"
             d="m 0,0 c -4.241,4 -6.307,2.942 -6.307,2.942 l -2.83,-0.518 c -16.412,2.312 -17.934,-9.903 -17.934,-9.903 -0.421,-7.738 6.609,-10.805 9.831,-11.793 l -0.152,6.384 c -4.651,2.492 -4.14,4.989 -4.14,4.989 -0.212,6.851 11.305,6.528 11.305,6.528 2.179,-3.895 8.162,-2.942 8.162,-2.942 L 0.65,-4.114 C 4.238,-3.164 0,0 0,0 z"
             inkscape:connector-curvature="0" /></g><g
           transform="translate(385.8374,456.616)"
           id="g244"><path
             id="path246"
             style="fill:#c90d0d;fill-opacity:1;fill-rule:nonzero;stroke:none"
             d="m 0,0 c 0,-2.823 -2.375,-5.123 -5.297,-5.123 -2.924,0 -5.286,2.3 -5.286,5.123 0,2.826 2.362,5.131 5.286,5.131 C -2.375,5.131 0,2.826 0,0"
             inkscape:connector-curvature="0" /></g><g
           transform="translate(385.8374,456.616)"
           id="g248"><path
             id="path250"
             style="fill:none;stroke:#c90d0d;stroke-width:0.25;stroke-linecap:butt;stroke-linejoin:miter;stroke-miterlimit:10;stroke-opacity:1;stroke-dasharray:none"
             d="m 0,0 c 0,-2.823 -2.375,-5.123 -5.297,-5.123 -2.924,0 -5.286,2.3 -5.286,5.123 0,2.826 2.362,5.131 5.286,5.131 C -2.375,5.131 0,2.826 0,0 z"
             inkscape:connector-curvature="0" /></g><g
           transform="translate(382.2725,374.7664)"
           id="g252"><path
             id="path254"
             style="fill:#c90d0d;fill-opacity:1;fill-rule:nonzero;stroke:none"
             d="m 0,0 -0.041,-2.209 c 1.78,-1.182 1.68,-2.237 1.68,-2.237 0.547,-4.953 -7.39,-6.325 -7.39,-6.325 10.214,0.535 9.023,6.43 9.023,6.43 C 3.129,-2.005 1.272,-0.654 0,0"
             inkscape:connector-curvature="0" /></g><g
           transform="translate(382.2725,374.7664)"
           id="g256"><path
             id="path258"
             style="fill:none;stroke:#c90d0d;stroke-width:0.25;stroke-linecap:butt;stroke-linejoin:miter;stroke-miterlimit:10;stroke-opacity:1;stroke-dasharray:none"
             d="m 0,0 -0.041,-2.209 c 1.78,-1.182 1.68,-2.237 1.68,-2.237 0.547,-4.953 -7.39,-6.325 -7.39,-6.325 10.214,0.535 9.023,6.43 9.023,6.43 C 3.129,-2.005 1.272,-0.654 0,0 z"
             inkscape:connector-curvature="0" /></g><g
           transform="translate(388.1558,391.3895)"
           id="g260"><path
             id="path262"
             style="fill:#c90d0d;fill-opacity:1;fill-rule:nonzero;stroke:none"
             d="M 0,0 C 0.066,3.223 -3.092,5.161 -5.392,6.136 L -5.477,2.182 c 1.779,-1.052 1.888,-2.079 1.888,-2.079 0.325,-4.109 -4.027,-5.477 -4.027,-5.477 -6.844,-2.006 -5.982,-6.528 -5.982,-6.528 -0.069,-3.04 2.729,-4.736 4.482,-5.502 l -0.05,2.3 c -2.098,1.401 -2.037,2.991 -2.037,2.991 0.108,3.052 3.698,4.319 3.698,4.319 C 1.188,-5.585 0,0 0,0"
             inkscape:connector-curvature="0" /></g><g
           transform="translate(388.1558,391.3895)"
           id="g264"><path
             id="path266"
             style="fill:none;stroke:#c90d0d;stroke-width:0.25;stroke-linecap:butt;stroke-linejoin:miter;stroke-miterlimit:10;stroke-opacity:1;stroke-dasharray:none"
             d="M 0,0 C 0.066,3.223 -3.092,5.161 -5.392,6.136 L -5.477,2.182 c 1.779,-1.052 1.888,-2.079 1.888,-2.079 0.325,-4.109 -4.027,-5.477 -4.027,-5.477 -6.844,-2.006 -5.982,-6.528 -5.982,-6.528 -0.069,-3.04 2.729,-4.736 4.482,-5.502 l -0.05,2.3 c -2.098,1.401 -2.037,2.991 -2.037,2.991 0.108,3.052 3.698,4.319 3.698,4.319 C 1.188,-5.585 0,0 0,0 z"
             inkscape:connector-curvature="0" /></g><g
           transform="translate(391.5259,419.9276)"
           id="g268"><path
             id="path270"
             style="fill:#c90d0d;fill-opacity:1;fill-rule:nonzero;stroke:none"
             d="M 0,0 C 0.217,6.38 -4.853,9.563 -8.041,10.929 L -8.19,4.131 c 2.141,-1.88 2.099,-3.603 2.099,-3.603 0.11,-5.264 -4.673,-6.74 -4.673,-6.74 -9.353,-2.837 -8.809,-10.219 -8.809,-10.219 -0.43,-5.568 4.577,-7.759 6.577,-8.406 l -0.099,4.19 c -2.383,1.583 -2.239,3.689 -2.239,3.689 0,3.583 5.114,5.901 5.114,5.901 C 0.755,-7.052 0,0 0,0"
             inkscape:connector-curvature="0" /></g><g
           transform="translate(391.5259,419.9276)"
           id="g272"><path
             id="path274"
             style="fill:none;stroke:#c90d0d;stroke-width:0.25;stroke-linecap:butt;stroke-linejoin:miter;stroke-miterlimit:10;stroke-opacity:1;stroke-dasharray:none"
             d="M 0,0 C 0.217,6.38 -4.853,9.563 -8.041,10.929 L -8.19,4.131 c 2.141,-1.88 2.099,-3.603 2.099,-3.603 0.11,-5.264 -4.673,-6.74 -4.673,-6.74 -9.353,-2.837 -8.809,-10.219 -8.809,-10.219 -0.43,-5.568 4.577,-7.759 6.577,-8.406 l -0.099,4.19 c -2.383,1.583 -2.239,3.689 -2.239,3.689 0,3.583 5.114,5.901 5.114,5.901 C 0.755,-7.052 0,0 0,0 z"
             inkscape:connector-curvature="0" /></g><g
           transform="translate(380.4658,414.6238)"
           id="g276"><path
             id="path278"
             style="fill:#c90d0d;fill-opacity:1;fill-rule:nonzero;stroke:none"
             d="m 0,0 c 0.069,0.026 0.849,0.298 1.699,0.953 l 0.6,28.074 C 1.058,28.919 -0.583,28.671 -2.1,28.126 L -1.409,-0.493 C -0.959,-0.319 -0.501,-0.148 0,0"
             inkscape:connector-curvature="0" /></g><g
           transform="translate(380.4658,414.6238)"
           id="g280"><path
             id="path282"
             style="fill:none;stroke:#c90d0d;stroke-width:0.25;stroke-linecap:butt;stroke-linejoin:miter;stroke-miterlimit:10;stroke-opacity:1;stroke-dasharray:none"
             d="m 0,0 c 0.069,0.026 0.849,0.298 1.699,0.953 l 0.6,28.074 C 1.058,28.919 -0.583,28.671 -2.1,28.126 L -1.409,-0.493 C -0.959,-0.319 -0.501,-0.148 0,0 z"
             inkscape:connector-curvature="0" /></g><g
           transform="translate(380.2568,386.9295)"
           id="g284"><path
             id="path286"
             style="fill:#c90d0d;fill-opacity:1;fill-rule:nonzero;stroke:none"
             d="m 0,0 c 0.054,0.015 0.637,0.223 1.307,0.655 l 0.442,20.538 c -0.122,-0.05 -0.229,-0.1 -0.355,-0.149 0.006,0 -1.233,-0.58 -2.405,-1.546 L -0.537,-0.168 C -0.351,-0.127 -0.191,-0.056 0,0"
             inkscape:connector-curvature="0" /></g><g
           transform="translate(380.2568,386.9295)"
           id="g288"><path
             id="path290"
             style="fill:none;stroke:#c90d0d;stroke-width:0.25;stroke-linecap:butt;stroke-linejoin:miter;stroke-miterlimit:10;stroke-opacity:1;stroke-dasharray:none"
             d="m 0,0 c 0.054,0.015 0.637,0.223 1.307,0.655 l 0.442,20.538 c -0.122,-0.05 -0.229,-0.1 -0.355,-0.149 0.006,0 -1.233,-0.58 -2.405,-1.546 L -0.537,-0.168 C -0.351,-0.127 -0.191,-0.056 0,0 z"
             inkscape:connector-curvature="0" /></g><g
           transform="translate(380.2153,366.2967)"
           id="g292"><path
             id="path294"
             style="fill:#c90d0d;fill-opacity:1;fill-rule:nonzero;stroke:none"
             d="M 0,0 C 0.315,0.167 0.615,0.357 0.901,0.569 L 1.247,16.543 C 1.058,16.482 0.885,16.427 0.687,16.377 H 0.69 c 0.005,0 -0.487,-0.196 -1.069,-0.564 z"
             inkscape:connector-curvature="0" /></g><g
           transform="translate(380.2153,366.2967)"
           id="g296"><path
             id="path298"
             style="fill:none;stroke:#c90d0d;stroke-width:0.25;stroke-linecap:butt;stroke-linejoin:miter;stroke-miterlimit:10;stroke-opacity:1;stroke-dasharray:none"
             d="M 0,0 C 0.315,0.167 0.615,0.357 0.901,0.569 L 1.247,16.543 C 1.058,16.482 0.885,16.427 0.687,16.377 H 0.69 c 0.005,0 -0.487,-0.196 -1.069,-0.564 z"
             inkscape:connector-curvature="0" /></g><g
           transform="translate(380.2842,363.5594)"
           id="g300"><path
             id="path302"
             style="fill:#c90d0d;fill-opacity:1;fill-rule:nonzero;stroke:none"
             d="M 0,0 0.365,-11.646 0.77,0.205 C 0.521,0.133 0.263,0.067 0,0"
             inkscape:connector-curvature="0" /></g><g
           transform="translate(380.2842,363.5594)"
           id="g304"><path
             id="path306"
             style="fill:none;stroke:#c90d0d;stroke-width:0.25;stroke-linecap:butt;stroke-linejoin:miter;stroke-miterlimit:10;stroke-opacity:1;stroke-dasharray:none"
             d="M 0,0 0.365,-11.646 0.77,0.205 C 0.521,0.133 0.263,0.067 0,0 z"
             inkscape:connector-curvature="0" /></g><g
           transform="translate(380.54,450.535)"
           id="g308"><path
             id="path310"
             style="fill:#c90d0d;fill-opacity:1;fill-rule:nonzero;stroke:none"
             d="m 0,0 c -0.839,0 -1.64,0.164 -2.365,0.463 l 0.031,-1.626 c 1.14,0.196 2.343,0.345 3.723,0.345 0.316,0 0.653,-0.019 0.975,-0.032 L 2.391,0.469 C 1.654,0.164 0.848,0 0,0"
             inkscape:connector-curvature="0" /></g><g
           transform="translate(380.54,450.535)"
           id="g312"><path
             id="path314"
             style="fill:none;stroke:#c90d0d;stroke-width:0.25;stroke-linecap:butt;stroke-linejoin:miter;stroke-miterlimit:10;stroke-opacity:1;stroke-dasharray:none"
             d="m 0,0 c -0.839,0 -1.64,0.164 -2.365,0.463 l 0.031,-1.626 c 1.14,0.196 2.343,0.345 3.723,0.345 0.316,0 0.653,-0.019 0.975,-0.032 L 2.391,0.469 C 1.654,0.164 0.848,0 0,0 z"
             inkscape:connector-curvature="0" /></g></g></g></g></svg>