<?xml version="1.0" encoding="UTF-8"?>
<svg version="1.1" xmlns="http://www.w3.org/2000/svg" width="2452" height="632">
<path d="M0 0 C809.16 0 1618.32 0 2452 0 C2452 208.56 2452 417.12 2452 632 C1642.84 632 833.68 632 0 632 C0 423.44 0 214.88 0 0 Z " fill="#FEFEFE" transform="translate(0,0)"/>
<path d="M0 0 C88.0790625 -0.12375 88.0790625 -0.12375 177.9375 -0.25 C196.43159912 -0.28641602 214.92569824 -0.32283203 233.98022461 -0.36035156 C256.68273926 -0.37841797 256.68273926 -0.37841797 267.33375549 -0.3817749 C274.72235802 -0.38547937 282.11083719 -0.40004181 289.49940491 -0.42230225 C298.04997759 -0.44802485 306.60043353 -0.45928382 315.15104506 -0.4537798 C319.51159368 -0.45140201 323.87188249 -0.45478062 328.2323817 -0.47686052 C344.86648667 -0.55673261 361.26918496 -0.21266114 377.79957581 1.77838135 C379.09815362 1.9335635 380.39673143 2.08874565 381.73466009 2.24863029 C405.86948074 5.45401411 428.53876995 12.68004115 447 29 C447.63679688 29.54140625 448.27359375 30.0828125 448.9296875 30.640625 C460.07179395 40.80715531 468.24662923 57.01759025 469.19287109 72.06762695 C469.9008214 102.12548059 469.9008214 102.12548059 464 115 C463.40058594 116.4540625 463.40058594 116.4540625 462.7890625 117.9375 C453.2619715 138.26196081 431.54741365 149.12861812 411.59790039 156.42431641 C411.07059326 156.61429199 410.54328613 156.80426758 410 157 C410.99257812 157.29132813 411.98515625 157.58265625 413.0078125 157.8828125 C432.81156588 163.80380077 450.37680545 172.26788114 466 186 C466.62003906 186.5259375 467.24007813 187.051875 467.87890625 187.59375 C476.60520008 195.55868934 482.22868026 206.95446211 486 218 C486.39316406 219.11246094 486.78632812 220.22492188 487.19140625 221.37109375 C493.02152386 241.21787041 492.27839356 266.38514955 486 286 C485.43925781 287.87945312 485.43925781 287.87945312 484.8671875 289.796875 C477.71584742 311.86657353 461.20005895 328.49815104 440.93212891 339.07958984 C421.93396308 348.502506 401.94142257 353.2712225 381 356 C379.75757915 356.16943556 378.51515831 356.33887112 377.23508835 356.51344109 C360.92944293 358.53672937 344.55695314 358.27291886 328.15866828 358.23213124 C323.74316437 358.22339521 319.32766529 358.22642399 314.91215515 358.22793579 C307.28464593 358.2289783 299.65717125 358.22276854 292.02967072 358.21146011 C281.00194732 358.19512131 269.97424042 358.18998859 258.94650623 358.18748413 C241.04945175 358.18312009 223.15241562 358.16984624 205.25537109 358.15087891 C187.88265065 358.13248654 170.50993524 358.11836948 153.13720703 358.10986328 C151.51126907 358.10905929 151.51126907 358.10905929 149.85248387 358.10823905 C141.37367766 358.10407957 132.89487134 358.10016594 124.41606498 358.09632993 C82.94402646 358.07750418 41.47203397 358.03725777 0 358 C0 239.86 0 121.72 0 0 Z " fill="#29315E" transform="translate(1087,13)"/>
<path d="M0 0 C56.05875 -0.04125 112.1175 -0.0825 169.875 -0.125 C196.38046143 -0.15231201 196.38046143 -0.15231201 223.42138672 -0.18017578 C245.07641602 -0.18920898 245.07641602 -0.18920898 255.22903442 -0.19088745 C262.28707224 -0.19274318 269.34507795 -0.20003967 276.40310669 -0.21115112 C284.56415858 -0.22397983 292.72517996 -0.22964925 300.88624198 -0.2268899 C305.05127099 -0.2256971 309.21623203 -0.22744204 313.38124824 -0.23843026 C362.50874953 -0.3617713 416.73857428 1.01261338 455.00390625 36.00390625 C460.55510594 41.55510594 464.44992627 48.04377445 468 55 C468.3609375 55.68578125 468.721875 56.3715625 469.09375 57.078125 C474.73993248 68.62713463 475.46788283 81.03933738 475.3125 93.6875 C475.31461357 95.02409083 475.31786628 96.36068036 475.32226562 97.69726562 C475.22596791 115.35476506 471.07662889 129.96302486 460 144 C459.27103516 144.99193359 459.27103516 144.99193359 458.52734375 146.00390625 C446.53443813 161.18674073 426.20700403 170.70341701 408 176 C407.01 176 406.02 176 405 176 C405 176.66 405 177.32 405 178 C406.0209375 178.12246094 407.041875 178.24492187 408.09375 178.37109375 C423.77002582 180.89497416 439.31123356 189.44175329 451 200 C451.75667969 200.66386719 452.51335938 201.32773438 453.29296875 202.01171875 C466.92118841 214.70167888 476.0067893 233.3055975 477.11770058 251.97837257 C477.2838692 256.68653162 477.2997225 261.39568283 477.30496025 266.10637856 C477.30867266 268.79544255 477.32553037 271.48415343 477.34571838 274.17314148 C477.40066506 281.810917 477.43171565 289.44874252 477.45629883 297.08666992 C477.472307 301.78088739 477.50265749 306.47485104 477.54106331 311.16893578 C477.552592 312.94084131 477.55864258 314.71279245 477.55874443 316.48473549 C477.55981302 330.12602187 478.92370312 342.18839358 484 355 C484 355.99 484 356.98 484 358 C437.8 358 391.6 358 344 358 C340.86514573 351.73029147 339.88619688 347.98729633 339.84228516 341.16259766 C339.82689194 339.43391953 339.82689194 339.43391953 339.81118774 337.6703186 C339.80388641 336.43075409 339.79658508 335.19118958 339.7890625 333.9140625 C339.76816969 331.94325592 339.74725895 329.97244936 339.72536278 328.00165367 C339.67255724 323.16507107 339.62828962 318.32848017 339.59863281 313.49169922 C339.58155142 310.7774796 339.55667643 308.0635307 339.52377319 305.34945679 C339.49326237 302.80613197 339.47349079 300.2626455 339.46670532 297.71914673 C339.21722334 279.88914754 335.55177231 264.32663248 323.19140625 251.05859375 C317.87266107 245.93888685 311.89815271 243.43094848 305 241 C304.16339844 240.70222656 303.32679688 240.40445313 302.46484375 240.09765625 C290.93291648 236.3286849 279.16784193 235.7008886 267.12182617 235.68115234 C265.68149774 235.67182765 264.24117458 235.66165532 262.80085754 235.65071106 C258.93399319 235.62368289 255.06716467 235.60834351 251.20023131 235.59528303 C247.14299318 235.57953193 243.08582702 235.55278069 239.02864075 235.5272522 C231.3650857 235.48067462 223.70151679 235.44382957 216.03789359 235.41057932 C205.66839831 235.36501767 195.29899267 235.30422238 184.92957211 235.24433136 C168.61975993 235.15052753 152.30992089 235.07690495 136 235 C136 275.59 136 316.18 136 358 C91.12 358 46.24 358 0 358 C0 239.86 0 121.72 0 0 Z " fill="#29315E" transform="translate(1606,13)"/>
<path d="M0 0 C50.82 0 101.64 0 154 0 C163.9 9.9 173.8 19.8 184 30 C186.64 32.31 189.28 34.62 192 37 C193.50292212 38.4326144 194.99067346 39.88156427 196.453125 41.35546875 C197.2275293 42.13317627 198.00193359 42.91088379 198.79980469 43.7121582 C199.60836914 44.529021 200.41693359 45.34588379 201.25 46.1875 C202.10754883 47.04883545 202.96509766 47.9101709 203.84863281 48.79760742 C207.48494939 52.45013983 211.11524371 56.10863635 214.74609375 59.76660156 C217.41197597 62.45065156 220.0809181 65.13163241 222.75 67.8125 C223.55856445 68.62936279 224.36712891 69.44622559 225.20019531 70.2878418 C229.33249485 74.43776767 233.5468511 78.39113679 237.98510742 82.20996094 C241.83140374 85.6270268 245.41369219 89.31303269 249.03125 92.96875 C250.28427917 94.22745911 250.28427917 94.22745911 251.56262207 95.51159668 C255.10336129 99.0685452 258.63807324 102.6314612 262.17333984 106.19384766 C264.7697206 108.80840164 267.36916566 111.41988184 269.96875 114.03125 C270.75544067 114.82623901 271.54213135 115.62122803 272.35266113 116.44030762 C275.80571176 119.90847813 279.27573969 123.29361377 282.98632812 126.48632812 C287.63922965 130.49188442 291.93285374 134.82604664 296.25 139.1875 C297.53632324 140.47950317 297.53632324 140.47950317 298.84863281 141.79760742 C302.48494939 145.45013983 306.11524371 149.10863635 309.74609375 152.76660156 C312.41197597 155.45065156 315.0809181 158.13163241 317.75 160.8125 C318.55856445 161.62936279 319.36712891 162.44622559 320.20019531 163.2878418 C321.36180176 164.45440308 321.36180176 164.45440308 322.546875 165.64453125 C323.21557617 166.31846924 323.88427734 166.99240723 324.57324219 167.68676758 C327.94642608 170.90215162 331.49287438 173.93126509 335 177 C343.25 185.25 351.5 193.5 360 202 C360.33 135.34 360.66 68.68 361 0 C405.88 0 450.76 0 497 0 C497 118.14 497 236.28 497 358 C451.79 358 406.58 358 360 358 C356.7 354.7 353.4 351.4 350 348 C347.08125766 345.45475022 347.08125766 345.45475022 344.1484375 342.92578125 C338.8661283 338.19091137 333.97147589 333.01864573 328.99072266 327.97021484 C322.1838643 321.036338 322.1838643 321.036338 315 314.5 C308.98555004 309.3615007 303.54247754 303.59740606 297.99072266 297.97021484 C291.20035218 291.05093436 291.20035218 291.05093436 284.03125 284.53125 C277.80239791 279.20957431 272.16959554 273.22364586 266.41796875 267.39746094 C261.11685062 262.03386065 255.81894075 256.75414004 250.078125 251.85546875 C244.8123839 247.15391419 239.94718872 241.99402855 234.99072266 236.97021484 C228.1838643 230.036338 228.1838643 230.036338 221 223.5 C214.98555004 218.3615007 209.54247754 212.59740606 203.99072266 206.97021484 C197.1838643 200.036338 197.1838643 200.036338 190 193.5 C183.98555004 188.3615007 178.54247754 182.59740606 172.99072266 176.97021484 C171.50640103 175.4675623 170.01888796 173.96811835 168.53125 172.46875 C167.66048828 171.58638672 166.78972656 170.70402344 165.89257812 169.79492188 C162.38104396 166.40194051 158.67479391 163.21544467 155 160 C149.06 154.06 143.12 148.12 137 142 C136.67 213.28 136.34 284.56 136 358 C91.12 358 46.24 358 0 358 C0 239.86 0 121.72 0 0 Z " fill="#29315E" transform="translate(3,13)"/>
<path d="M0 0 C2.19726736 0.00502619 4.39451665 0.00649663 6.59178925 0.00745392 C33.45537509 0.03236673 60.05460245 1.27370507 86.75054169 4.33698273 C87.77880569 4.45407089 87.77880569 4.45407089 88.82784271 4.57352448 C95.06739419 5.31424973 101.16753802 6.5331672 107.30767059 7.84479523 C109.99786942 8.39897962 112.69528085 8.90583455 115.39507294 9.41120148 C161.72216187 18.16394813 213.21213337 37.33837364 241.37773895 77.54816437 C248.86974785 88.57652655 254.73823994 100.13315218 259.03960419 112.75495148 C259.41037079 113.83643463 259.41037079 113.83643463 259.78862762 114.93976593 C263.63995112 126.88793395 262.60210419 138.77595072 262.60210419 151.31745148 C216.07210419 151.31745148 169.54210419 151.31745148 121.60210419 151.31745148 C116.65210419 141.91245148 116.65210419 141.91245148 111.60210419 132.31745148 C99.02419321 117.22395831 83.07171245 109.65845347 64.60210419 104.31745148 C63.58479218 104.01581085 63.58479218 104.01581085 62.54692841 103.70807648 C44.03556163 98.30303128 25.15219936 97.94422103 5.9885788 97.94684601 C2.43673746 97.94247869 -1.11385114 97.906029 -4.66547394 97.86823273 C-34.99374173 97.71794776 -70.36828936 102.14642258 -93.32050323 124.1138382 C-110.05740642 140.81920019 -115.71727501 159.7670442 -115.89789581 182.94245148 C-115.71857178 208.11571557 -106.55000446 229.10821897 -89.38227081 247.47370148 C-74.17634683 262.09924668 -51.76792232 269.02673047 -31.39789581 272.31745148 C-30.21324738 272.52112335 -29.02859894 272.72479523 -27.80805206 272.93463898 C-4.8365347 276.39641455 20.48609506 275.72713497 43.31548309 271.71881866 C45.37816532 271.35675913 47.44888944 271.04126226 49.52007294 270.73151398 C73.94173952 266.63016539 97.84581804 256.85080714 112.60210419 236.31745148 C113.08550262 235.6600296 113.56890106 235.00260773 114.06694794 234.32526398 C118.0677129 228.4639609 119.20009295 223.52348518 121.60210419 216.31745148 C168.46210419 216.31745148 215.32210419 216.31745148 263.60210419 216.31745148 C263.60210419 237.19166034 263.60210419 237.19166034 261.91460419 244.50495148 C261.73308807 245.33607452 261.55157196 246.16719757 261.36455536 247.02350616 C257.02172619 266.20940622 249.00964212 282.07560376 236.60210419 297.31745148 C236.13900848 297.88737823 235.67591278 298.45730499 235.19878387 299.04450226 C214.3701893 324.49938203 187.61469737 340.85243965 156.60210419 351.31745148 C155.95596161 351.54013702 155.30981903 351.76282257 154.64409637 351.99225616 C124.63147143 362.21603558 94.08771912 367.22665952 62.60210419 370.31745148 C61.97121887 370.40078232 61.34033356 370.48411316 60.69033051 370.56996918 C51.59183379 371.67554814 42.43948399 371.48173665 33.28960419 371.48542023 C31.39320095 371.48864312 29.49679795 371.49200792 27.6003952 371.49550629 C23.62634966 371.50147719 19.65232577 371.50334868 15.67827606 371.50275421 C11.65609438 371.50267348 7.63402785 371.50953256 3.61186981 371.52326202 C-18.14023585 371.5963801 -39.7431124 371.65071053 -61.39789581 369.31745148 C-62.14506866 369.24174927 -62.89224152 369.16604706 -63.66205597 369.08805084 C-115.5701558 363.81528547 -169.75533399 348.91697755 -208.39789581 312.31745148 C-208.89257355 311.86063995 -209.38725128 311.40382843 -209.89691925 310.93317413 C-232.08375382 290.3642718 -249.09398736 261.23174072 -254.39789581 231.31745148 C-254.54742706 230.52580597 -254.69695831 229.73416046 -254.85102081 228.9185257 C-257.68047452 213.23762007 -257.71387013 197.44953477 -257.77289581 181.56745148 C-257.78075104 180.52790314 -257.78860626 179.4883548 -257.79669952 178.41730499 C-258.07334284 131.29882119 -243.01298765 91.88146133 -210.00336456 57.84870148 C-180.07017405 29.70028383 -140.41352206 17.61211802 -101.26752472 8.95465851 C-98.9572634 8.44166021 -96.65172751 7.91356605 -94.34711456 7.37604523 C-86.48307432 5.64359807 -78.5815164 4.66340737 -70.58539581 3.75495148 C-69.57356232 3.63998322 -68.56172882 3.52501495 -67.5192337 3.40656281 C-63.8149816 3.00991055 -60.1075378 2.65877338 -56.39789581 2.31745148 C-55.52579468 2.23413574 -54.65369354 2.15082001 -53.7551651 2.06497955 C-35.83552085 0.38544403 -17.98368246 -0.04508217 0 0 Z " fill="#29315E" transform="translate(791.3978958129883,5.682548522949219)"/>
<path d="M0 0 C13.52042425 3.38010606 13.52042425 3.38010606 17.89453125 5.19921875 C18.86189209 5.59931152 19.82925293 5.9994043 20.82592773 6.41162109 C21.81149658 6.83266113 22.79706543 7.25370117 23.8125 7.6875 C24.85929932 8.13174316 25.90609863 8.57598633 26.98461914 9.03369141 C58.01919736 22.38246361 86.48183494 42.8651232 100 75 C107.50910247 96.61711317 106.85964702 117.50329291 97.24584961 138.40551758 C87.32386801 158.65083576 71.04896746 174.3268501 52 186 C51.31631348 186.42619629 50.63262695 186.85239258 49.92822266 187.29150391 C34.48829677 196.7971466 17.76475031 203.44704994 0 207 C0 138.69 0 70.38 0 0 Z " fill="#2A325F" transform="translate(2344,87)"/>
<path d="M0 0 C22.93199058 -0.09049171 45.86383533 -0.16409312 68.79595947 -0.20724869 C79.44509296 -0.2278242 90.09410717 -0.25584843 100.74316406 -0.30175781 C110.03101626 -0.34177959 119.31878202 -0.36746918 128.60671806 -0.37635398 C133.51906926 -0.38154287 138.43117329 -0.39363282 143.34344482 -0.42292023 C147.97932746 -0.45033245 152.61486416 -0.45839359 157.25082016 -0.45243073 C158.94052901 -0.45351954 160.630251 -0.46131827 162.31988907 -0.4768219 C175.95315568 -0.59564358 190.90808233 0.06297264 202.00390625 8.98828125 C208.19153116 15.22434158 209.45971322 21.53293958 209.5625 30.0625 C209.43013718 39.42381277 207.32046039 45.94252479 201 53 C194.18793836 57.42484356 187.02739732 60.01584346 179 61 C177.80339249 61.16934555 176.60678497 61.3386911 175.37391663 61.51316833 C168.06770904 62.31472511 160.71254991 62.13089256 153.37280273 62.11352539 C151.69661969 62.11324296 150.02043652 62.11340235 148.34425354 62.1139679 C143.81599434 62.11425368 139.28776186 62.10839242 134.75950885 62.10139394 C130.01895965 62.09512386 125.27840977 62.09455372 120.53785706 62.09336853 C111.57082798 62.09026597 102.60381116 62.0820671 93.63678747 62.07201904 C83.42395734 62.06082448 73.2111266 62.05533904 62.99829185 62.05032361 C41.99885288 62.03988356 20.99943071 62.02155148 0 62 C0 41.54 0 21.08 0 0 Z " fill="#FDFDFD" transform="translate(1224,225)"/>
<path d="M0 0 C21.64542345 -0.09048945 43.29069242 -0.16409178 64.93625736 -0.20724869 C74.98792889 -0.22782478 85.03947406 -0.2558501 95.09106445 -0.30175781 C103.85775592 -0.34177785 112.62435582 -0.36746876 121.39113611 -0.37635398 C126.02791752 -0.38154318 130.66443709 -0.393635 135.30113411 -0.42292023 C139.6768331 -0.45032974 144.05216559 -0.45839416 148.42794228 -0.45243073 C150.02293142 -0.45351967 151.61793448 -0.46132014 153.21284866 -0.4768219 C165.50061738 -0.59026501 179.55439582 -0.12158284 189.3515625 8.28515625 C197.31838121 16.57291316 198.4558495 23.29049423 198.28125 34.5234375 C198.06651977 39.70917263 196.92913823 43.68792437 194 48 C193.63777344 48.56847656 193.27554687 49.13695312 192.90234375 49.72265625 C189.76287921 54.05405309 185.79104922 56.00372949 181 58 C180.24149372 58.32481417 179.48298744 58.64962833 178.70149612 58.98428535 C168.79453395 62.70912748 158.0077223 62.27860874 147.58300781 62.22705078 C145.96549486 62.22648542 144.3479814 62.22680567 142.73046875 62.22793579 C138.3759004 62.22850542 134.02144409 62.21681489 129.66690159 62.20278788 C125.10254561 62.19021489 120.53818655 62.18910487 115.97381592 62.18673706 C107.34686137 62.18054148 98.71995801 62.16415689 90.09302592 62.14403808 C80.2646468 62.12161898 70.43626513 62.11067058 60.60786676 62.10064721 C40.40520966 62.07978879 20.20262266 62.0431368 0 62 C0 41.54 0 21.08 0 0 Z " fill="#FDFDFD" transform="translate(1742,100)"/>
<path d="M0 0 C21.74904449 -0.04517802 43.49805087 -0.08200735 65.24713039 -0.10362434 C75.34600443 -0.11392906 85.4448472 -0.12797403 95.54370117 -0.15087891 C104.34769002 -0.17083739 113.15165623 -0.18372228 121.95566708 -0.18817699 C126.61564473 -0.1907802 131.2755576 -0.19688215 135.93551445 -0.21146011 C140.32589644 -0.22508286 144.71618725 -0.22921317 149.10658836 -0.22621536 C150.71375779 -0.22676343 152.32093042 -0.23071283 153.92808151 -0.23841095 C166.94344999 -0.29767053 177.75950793 0.80084933 189 8 C193.92223848 12.93268909 195.1727681 17.88476294 195.3125 24.6875 C195.23883351 31.84051666 194.35898008 36.59521565 189.28125 41.7421875 C178.2715711 51.49228449 165.11730047 51.44224617 151.10229492 51.34057617 C149.44522619 51.33972797 147.78815634 51.34020881 146.13108826 51.34190369 C141.67322142 51.34275753 137.21560125 51.32523188 132.75779128 51.30418181 C128.08400869 51.28531205 123.41021923 51.28365651 118.73640442 51.28010559 C109.90404112 51.27081518 101.07179042 51.24624246 92.2394765 51.21605712 C82.17650454 51.1824191 72.11352694 51.16600355 62.05051267 51.15097082 C41.36693181 51.11968992 20.68350514 51.06471581 0 51 C0 34.17 0 17.34 0 0 Z " fill="#FCFDFD" transform="translate(1224,94)"/>
<path d="M0 0 C0 73.26 0 146.52 0 222 C-18 222 -18 222 -33 220 C-33 148.06 -33 76.12 -33 2 C-20 0 -20 0 0 0 Z " fill="#2C3460" transform="translate(2286,80)"/>
<path d="M0 0 C11.25590817 0 11.25590817 0 15.02734375 0.62109375 C16.24454102 0.81735352 16.24454102 0.81735352 17.48632812 1.01757812 C18.29521484 1.15615234 19.10410156 1.29472656 19.9375 1.4375 C20.77345703 1.57220703 21.60941406 1.70691406 22.47070312 1.84570312 C25.76933096 2.38885068 28.82068019 2.94022673 32 4 C32 73.96 32 143.92 32 216 C9 220 9 220 0 220 C0 147.4 0 74.8 0 0 Z " fill="#2C3460" transform="translate(2302,81)"/>
<path d="M0 0 C43.66666667 0 43.66666667 0 51 6 C56.9513258 12.14970333 58.48664748 16.73711434 58.50415039 25.27441406 C58.34125793 30.48443741 57.29128487 33.71481852 53.80078125 37.546875 C51.01519187 39.79468249 48.40488401 40.91043712 45 42 C46.175625 42.495 47.35125 42.99 48.5625 43.5 C54.21844007 46.322947 58.42123433 50.73195506 61.171875 56.42578125 C63.40354034 63.36289189 62.60343529 70.54926822 59.328125 76.99609375 C55.55938428 82.68245842 50.38847193 85.79307333 44 88 C29.52915326 90.41180779 14.67045406 89 0 89 C0 59.63 0 30.26 0 0 Z " fill="#303763" transform="translate(1162,514)"/>
<path d="M0 0 C0 68.97 0 137.94 0 209 C-10.16129032 207.87096774 -10.16129032 207.87096774 -14 206.5 C-14.7425 206.2421875 -15.485 205.984375 -16.25 205.71875 C-18 205 -18 205 -19 204 C-19.09777019 201.43281803 -19.12995016 198.89256084 -19.12025452 196.32493591 C-19.12110894 195.51145457 -19.12196337 194.69797322 -19.12284368 193.85984093 C-19.12450097 191.11283759 -19.11897306 188.36589427 -19.11352539 185.61889648 C-19.11324355 183.65818279 -19.1134012 181.697469 -19.1139679 179.73675537 C-19.11425598 174.39606666 -19.10835752 169.05540019 -19.10139394 163.71471667 C-19.09516218 158.13997684 -19.09455674 152.56523655 -19.09336853 146.99049377 C-19.09025469 136.42593909 -19.08204059 125.86139469 -19.07201904 115.29684454 C-19.06085955 103.2728677 -19.05534787 91.24889039 -19.05032361 79.22490966 C-19.03985801 54.48326739 -19.02225755 29.74163427 -19 5 C-16.2092793 4.16338138 -13.41751988 3.33057263 -10.625 2.5 C-9.8309375 2.26152344 -9.036875 2.02304688 -8.21875 1.77734375 C-7.45820313 1.55175781 -6.69765625 1.32617188 -5.9140625 1.09375 C-5.2123291 0.88427734 -4.5105957 0.67480469 -3.78759766 0.45898438 C-2 0 -2 0 0 0 Z " fill="#2F3763" transform="translate(2233,86)"/>
<path d="M0 0 C43.2 0 43.2 0 52 7 C57.81650608 12.84882001 59.39645036 18.11495233 59.375 26.25 C59.32846089 34.06690901 58.6865308 40.16511786 53.05859375 46.01953125 C50.17971869 48.62271293 47.22956126 50.84695916 44 53 C46.03777969 56.79376769 48.08094466 60.58461043 50.125 64.375 C50.69476562 65.43589844 51.26453125 66.49679687 51.8515625 67.58984375 C55.05371723 73.52110763 58.35387117 79.34586571 61.92919922 85.06103516 C63 87 63 87 63 89 C58.71 89 54.42 89 50 89 C49.53851562 88.05382812 49.07703125 87.10765625 48.6015625 86.1328125 C47.59375903 84.07216259 46.57192712 82.02262846 45.51611328 79.98608398 C43.46894647 76.03563101 41.62301601 72.11566635 40.015625 67.96484375 C37.0608228 60.76380599 37.0608228 60.76380599 32 55 C24.73577244 52.53808228 17.59720946 53.54233678 10 54 C10 65.22 10 76.44 10 88 C6.7 88 3.4 88 0 88 C0 58.96 0 29.92 0 0 Z " fill="#2C3460" transform="translate(1623,514)"/>
<path d="M0 0 C3.3 0 6.6 0 10 0 C10 29.37 10 58.74 10 89 C6.7 89 3.4 89 0 89 C-0.33 85.7 -0.66 82.4 -1 79 C-2.010625 80.258125 -3.02125 81.51625 -4.0625 82.8125 C-8.15248874 87.41577418 -11.51953824 89.56617474 -17.7578125 90.34375 C-26.08841235 90.76986764 -32.327874 88.86092171 -38.77734375 83.53125 C-47.21647544 74.77001405 -48.8108377 63.91011246 -48.72998047 52.23413086 C-48.32383718 42.63221299 -45.77132884 35.03692965 -39.03515625 27.92578125 C-37.09184986 26.33650296 -35.22923212 25.1468304 -33 24 C-32.36191406 23.66613281 -31.72382812 23.33226562 -31.06640625 22.98828125 C-25.24401598 20.39925057 -18.93312111 19.82843201 -12.796875 21.65625 C-7.14362294 24.15921656 -5.29279315 26.99174132 -1 32 C-0.67 21.44 -0.34 10.88 0 0 Z " fill="#2D3561" transform="translate(1354,514)"/>
<path d="M0 0 C3.3 0 6.6 0 10 0 C10 29.04 10 58.08 10 88 C7.03 88 4.06 88 1 88 C1 84.7 1 81.4 1 78 C0.278125 78.721875 -0.44375 79.44375 -1.1875 80.1875 C-2.115625 81.115625 -3.04375 82.04375 -4 83 C-4.804375 83.886875 -5.60875 84.77375 -6.4375 85.6875 C-11.58462385 90.33246542 -17.20478765 90.50787642 -23.8984375 90.375 C-30.51475987 89.57504163 -35.8871135 86.57929628 -40.375 81.6875 C-48.86873347 70.64324033 -49.01250036 58.44249783 -48 45 C-46.37504485 36.8458576 -41.50498242 30.38505221 -34.91015625 25.4296875 C-28.45441036 21.22203189 -22.68669156 20.18965601 -15 21 C-8.37307669 22.93674167 -5.62064551 26.60924691 -1 32 C-0.67 21.44 -0.34 10.88 0 0 Z " fill="#2D3561" transform="translate(328,514)"/>
<path d="M0 0 C6.70233689 5.21939033 10.01262695 12.59868696 11.92578125 20.71484375 C13.11523087 31.85886951 12.68676673 42.77218772 6.1953125 52.23828125 C1.81616672 57.64010179 -2.56190663 60.44499222 -9.07421875 62.71484375 C-10.06421875 63.20984375 -10.06421875 63.20984375 -11.07421875 63.71484375 C-20.33354156 64.5860166 -27.26135843 63.85880713 -35.07421875 58.71484375 C-36.00234375 58.11671875 -36.93046875 57.51859375 -37.88671875 56.90234375 C-45.74421489 49.04484761 -48.12398939 39.03461447 -48.51171875 28.15234375 C-48.2424713 17.4593737 -44.11231398 8.38578198 -36.38671875 1.02734375 C-25.62313908 -7.96551763 -11.61580481 -7.19698641 0 0 Z " fill="#2F3763" transform="translate(1978.07421875,540.28515625)"/>
<path d="M0 0 C6.70233689 5.21939033 10.01262695 12.59868696 11.92578125 20.71484375 C13.11523087 31.85886951 12.68676673 42.77218772 6.1953125 52.23828125 C1.81616672 57.64010179 -2.56190663 60.44499222 -9.07421875 62.71484375 C-10.06421875 63.20984375 -10.06421875 63.20984375 -11.07421875 63.71484375 C-20.33354156 64.5860166 -27.26135843 63.85880713 -35.07421875 58.71484375 C-36.00234375 58.11671875 -36.93046875 57.51859375 -37.88671875 56.90234375 C-45.74421489 49.04484761 -48.12398939 39.03461447 -48.51171875 28.15234375 C-48.2424713 17.4593737 -44.11231398 8.38578198 -36.38671875 1.02734375 C-25.62313908 -7.96551763 -11.61580481 -7.19698641 0 0 Z " fill="#2F3763" transform="translate(1743.07421875,540.28515625)"/>
<path d="M0 0 C6.71055749 5.22579206 9.99385138 12.59563186 11.92578125 20.71484375 C12.96854165 33.07034194 12.37654888 44.7085107 4.23828125 54.71484375 C0.30366838 58.78971486 -3.78099014 60.869901 -9.07421875 62.71484375 C-10.06421875 63.20984375 -10.06421875 63.20984375 -11.07421875 63.71484375 C-20.33354156 64.5860166 -27.26135843 63.85880713 -35.07421875 58.71484375 C-36.00234375 58.11671875 -36.93046875 57.51859375 -37.88671875 56.90234375 C-45.74421489 49.04484761 -48.12398939 39.03461447 -48.51171875 28.15234375 C-48.2424713 17.4593737 -44.11231398 8.38578198 -36.38671875 1.02734375 C-25.62313908 -7.96551763 -11.61580481 -7.19698641 0 0 Z " fill="#2E3662" transform="translate(403.07421875,540.28515625)"/>
<path d="M0 0 C7.28422567 4.80758894 11.80159565 12.62174932 14 21 C14.29581175 23.9221211 14.33403477 26.81450272 14.3125 29.75 C14.30404053 30.94761963 14.30404053 30.94761963 14.29541016 32.16943359 C14.06212784 43.52635609 10.86762354 51.29096088 2.6875 59.25 C-5.64090922 64.67315019 -12.99032684 66.4127438 -23 65 C-32.53560066 62.02713627 -38.26194678 56.71182046 -43.05078125 48.11328125 C-47.43636332 38.86406787 -47.5860257 25.92528225 -44.5625 16.25 C-41.42037172 8.73331858 -35.24264964 0.81794168 -27.5625 -2.44921875 C-18.68317415 -4.35773239 -8.05693276 -4.40851038 0 0 Z " fill="#2E3661" transform="translate(253,539)"/>
<path d="M0 0 C11 0 11 0 13.46362305 1.74633789 C13.97449463 2.56352295 14.48536621 3.38070801 15.01171875 4.22265625 C15.61564453 5.14175781 16.21957031 6.06085937 16.84179688 7.0078125 C17.45087891 8.01585937 18.05996094 9.02390625 18.6875 10.0625 C20.06539752 12.1894559 21.44433268 14.3157399 22.82421875 16.44140625 C23.51563965 17.53469238 24.20706055 18.62797852 24.91943359 19.75439453 C28.13688353 24.77349561 31.57038717 29.62315114 35 34.5 C43 46 51 57.5 59 69 C59.33 46.23 59.66 23.46 60 0 C63.3 0 66.6 0 70 0 C70 29.04 70 58.08 70 88 C59 88 59 88 56.08203125 85.30859375 C55.28739904 84.04134933 54.53319277 82.74820618 53.8125 81.4375 C52.89874169 79.95653493 51.98188612 78.47747791 51.0625 77 C50.33353516 75.79150391 50.33353516 75.79150391 49.58984375 74.55859375 C46.68798443 69.88852531 43.477824 65.43115346 40.3125 60.9375 C38.94813306 58.97992291 37.58486777 57.02157759 36.22265625 55.0625 C34.07694064 51.98157532 31.9309269 48.90085871 29.78466797 45.8203125 C28.31348787 43.7085769 26.84253647 41.59668195 25.37182617 39.48461914 C23.99101573 37.50166032 22.60969487 35.51905678 21.2277832 33.53686523 C20.600896 32.63653564 19.97400879 31.73620605 19.328125 30.80859375 C18.7805957 30.02282959 18.23306641 29.23706543 17.66894531 28.42749023 C15.7508794 25.6376527 13.87798339 22.81697509 12 20 C11.67 42.77 11.34 65.54 11 89 C7.37 89 3.74 89 0 89 C0 59.63 0 30.26 0 0 Z " fill="#2C3460" transform="translate(8,514)"/>
<path d="M0 0 C4.19737573 3.11384265 6.53668393 7.1096714 8.18359375 11.96875 C8.70182465 16.03153452 8.65125332 20.03487787 8.57421875 24.125 C8.56855896 25.26787476 8.56289917 26.41074951 8.55706787 27.58825684 C8.53479223 31.21552552 8.48461 34.84178309 8.43359375 38.46875 C8.41351746 40.93748567 8.39526868 43.40623692 8.37890625 45.875 C8.33495595 51.90663578 8.26598758 57.93752183 8.18359375 63.96875 C4.88359375 63.96875 1.58359375 63.96875 -1.81640625 63.96875 C-2.31140625 60.00875 -2.31140625 60.00875 -2.81640625 55.96875 C-3.47640625 56.71125 -4.13640625 57.45375 -4.81640625 58.21875 C-9.80096217 63.09222946 -14.69493101 65.20829072 -21.69140625 65.46875 C-28.22004257 65.22114053 -34.41057475 63.89375823 -39.4765625 59.54296875 C-44.32503133 54.0725389 -45.27530747 48.69275042 -45.1328125 41.625 C-44.54689119 36.70615441 -41.99158064 34.11128065 -38.56640625 30.78125 C-31.69806229 26.25438693 -24.50699516 25.30613159 -16.50390625 24.40625 C-14.54863622 24.18304566 -12.59414446 23.95288322 -10.640625 23.71484375 C-9.78557373 23.61872803 -8.93052246 23.5226123 -8.04956055 23.42358398 C-5.543611 23.05951365 -5.543611 23.05951365 -2.81640625 20.96875 C-2.25357864 16.78774493 -2.57664107 14.45750209 -4.44140625 10.65625 C-8.13913383 6.47197931 -11.26337758 6.1190431 -16.69140625 5.59375 C-21.33999636 5.72733018 -25.01928457 7.33932724 -28.81640625 9.96875 C-31.27598365 12.53684828 -31.27598365 12.53684828 -32.81640625 14.96875 C-37.27140625 13.97875 -37.27140625 13.97875 -41.81640625 12.96875 C-41.81640625 7.82463949 -40.24346088 6.52316853 -36.890625 2.87109375 C-27.02122808 -6.18050004 -11.37506921 -6.45810381 0 0 Z " fill="#2E3662" transform="translate(1281.81640625,539.03125)"/>
<path d="M0 0 C4.18920799 3.12343971 6.5286784 7.10910187 8.17578125 11.96875 C8.69401215 16.03153452 8.64344082 20.03487787 8.56640625 24.125 C8.56074646 25.26787476 8.55508667 26.41074951 8.54925537 27.58825684 C8.52697973 31.21552552 8.4767975 34.84178309 8.42578125 38.46875 C8.40570496 40.93748567 8.38745618 43.40623692 8.37109375 45.875 C8.32714345 51.90663578 8.25817508 57.93752183 8.17578125 63.96875 C4.87578125 63.96875 1.57578125 63.96875 -1.82421875 63.96875 C-2.31921875 60.00875 -2.31921875 60.00875 -2.82421875 55.96875 C-3.48421875 56.71125 -4.14421875 57.45375 -4.82421875 58.21875 C-10.00482239 63.26983855 -14.94340807 65.22394508 -22.19921875 65.53125 C-29.35769549 65.28211508 -35.48474664 63.49331987 -40.515625 58.18359375 C-45.07050996 52.07148317 -45.58643325 46.35799608 -44.82421875 38.96875 C-42.23188567 33.6880715 -38.49647792 30.13690901 -33.08984375 27.7734375 C-25.89684574 25.55590703 -18.95030182 24.29650903 -11.47363281 23.65185547 C-7.83706393 23.32041061 -5.92735652 23.03750851 -2.82421875 20.96875 C-2.26139114 16.78774493 -2.58445357 14.45750209 -4.44921875 10.65625 C-8.14694633 6.47197931 -11.27119008 6.1190431 -16.69921875 5.59375 C-21.34780886 5.72733018 -25.02709707 7.33932724 -28.82421875 9.96875 C-31.28379615 12.53684828 -31.28379615 12.53684828 -32.82421875 14.96875 C-34.30539676 14.68747579 -35.78415124 14.39341268 -37.26171875 14.09375 C-38.08542969 13.93132813 -38.90914062 13.76890625 -39.7578125 13.6015625 C-40.43972656 13.39273438 -41.12164063 13.18390625 -41.82421875 12.96875 C-42.15421875 12.30875 -42.48421875 11.64875 -42.82421875 10.96875 C-37.87343628 2.78091746 -31.88488407 -1.02980156 -22.83984375 -3.59375 C-15.09681122 -5.27440822 -6.88284687 -3.89094556 0 0 Z " fill="#2E3561" transform="translate(1425.82421875,539.03125)"/>
<path d="M0 0 C3.13715563 1.96817749 4.93103104 4.27484043 7.0546875 7.2890625 C7.50199219 6.89074219 7.94929688 6.49242187 8.41015625 6.08203125 C14.99188651 0.31424631 19.90920543 -3.06366349 28.90234375 -2.9296875 C34.71417366 -2.3390115 39.98562699 0.10697253 44.0546875 4.2890625 C48.30553919 11.08807124 48.59424144 16.53798498 48.4453125 24.4453125 C48.43965271 25.58818726 48.43399292 26.73106201 48.42816162 27.90856934 C48.40588598 31.53583802 48.35570375 35.16209559 48.3046875 38.7890625 C48.28461121 41.25779817 48.26636243 43.72654942 48.25 46.1953125 C48.2060497 52.22694828 48.13708133 58.25783433 48.0546875 64.2890625 C44.7546875 64.2890625 41.4546875 64.2890625 38.0546875 64.2890625 C38.04010498 62.83089111 38.02552246 61.37271973 38.01049805 59.87036133 C37.95249103 54.45621313 37.87525755 49.04247977 37.79223633 43.62866211 C37.75899844 41.28628272 37.730963 38.94382346 37.70825195 36.60131836 C37.67468582 33.23256417 37.62236731 29.86454119 37.56640625 26.49609375 C37.56001633 25.45008499 37.5536264 24.40407623 37.54704285 23.32637024 C37.46333729 16.30007818 37.46333729 16.30007818 34.0546875 10.2890625 C29.45662509 7.02592143 23.42235464 7.67960098 18.0546875 8.2890625 C14.53346911 10.33136917 13.30251073 11.91732766 11.0546875 15.2890625 C10.72746579 17.61066922 10.72746579 17.61066922 10.73583984 20.21948242 C10.71597015 21.22029343 10.69610046 22.22110443 10.67562866 23.25224304 C10.65830185 24.8695507 10.65830185 24.8695507 10.640625 26.51953125 C10.62125885 27.62508865 10.6018927 28.73064606 10.5819397 29.8697052 C10.52209914 33.40524551 10.4757402 36.94081829 10.4296875 40.4765625 C10.39151188 42.87175909 10.3524604 45.2669419 10.3125 47.66210938 C10.21639375 53.5376486 10.13237895 59.41325209 10.0546875 65.2890625 C6.4246875 65.2890625 2.7946875 65.2890625 -0.9453125 65.2890625 C-0.9546582 63.77030518 -0.96400391 62.25154785 -0.97363281 60.68676758 C-1.01352146 55.04893727 -1.07927821 49.41165328 -1.15283203 43.77416992 C-1.18104797 41.33478822 -1.20225935 38.89531498 -1.21630859 36.45581055 C-1.2377286 32.94792802 -1.28437685 29.44114679 -1.3359375 25.93359375 C-1.33716614 24.84383743 -1.33839478 23.75408112 -1.33966064 22.63130188 C-1.43395777 16.57406821 -1.43395777 16.57406821 -3.85839844 11.1237793 C-7.7720603 7.68307166 -11.12229827 7.95214218 -16.1796875 8.01171875 C-20.08229613 8.40308204 -22.11773148 9.60286053 -24.9453125 12.2890625 C-28.48894514 17.70597878 -28.41602553 22.67923283 -28.45703125 28.9375 C-28.47498245 29.95002838 -28.49293365 30.96255676 -28.51142883 32.00576782 C-28.56541208 35.22515761 -28.59938957 38.44440013 -28.6328125 41.6640625 C-28.6659961 43.85288502 -28.70048672 46.04168814 -28.73632812 48.23046875 C-28.82113193 53.5832269 -28.88800061 58.93594226 -28.9453125 64.2890625 C-32.2453125 64.2890625 -35.5453125 64.2890625 -38.9453125 64.2890625 C-38.9453125 42.5090625 -38.9453125 20.7290625 -38.9453125 -1.7109375 C-35.6453125 -1.7109375 -32.3453125 -1.7109375 -28.9453125 -1.7109375 C-28.6153125 1.2590625 -28.2853125 4.2290625 -27.9453125 7.2890625 C-27.0996875 6.1959375 -26.2540625 5.1028125 -25.3828125 3.9765625 C-18.30815534 -4.20816967 -9.20620475 -4.42789779 0 0 Z " fill="#2F3662" transform="translate(1059.9453125,537.7109375)"/>
<path d="M0 0 C6.08539332 4.64654761 9.10492359 11.46656937 10.92578125 18.75 C10.92578125 23.37 10.92578125 27.99 10.92578125 32.75 C-4.91421875 32.75 -20.75421875 32.75 -37.07421875 32.75 C-34.93653399 43.27662873 -34.93653399 43.27662873 -28.35546875 51.13671875 C-22.9483679 54.29455428 -17.19029687 54.79008887 -11.07421875 53.75 C-6.44106035 51.82205744 -2.66757766 49.12629316 -0.07421875 44.75 C6.55078125 45.5 6.55078125 45.5 9.92578125 47.75 C7.37796128 54.27878866 2.92013881 58.81416801 -3.36328125 61.859375 C-11.41716778 64.64019576 -20.87063719 65.39393262 -28.88671875 62.1875 C-36.89306374 57.9860052 -42.61733497 52.14740867 -46.07421875 43.75 C-48.69683367 34.22840444 -48.73838662 20.54831666 -44.07421875 11.75 C-43.67203125 10.98429688 -43.26984375 10.21859375 -42.85546875 9.4296875 C-38.733597 2.49120339 -33.35200895 -1.24763012 -26.13671875 -4.625 C-16.68402164 -6.55412186 -8.29242007 -4.99731529 0 0 Z " fill="#2F3662" transform="translate(763.07421875,540.25)"/>
<path d="M0 0 C6.88387961 4.80113411 11.88046557 10.81726595 13.8125 19 C13.8125 24.28 13.8125 29.56 13.8125 35 C-1.6975 35 -17.2075 35 -33.1875 35 C-31.26067647 45.99476439 -31.26067647 45.99476439 -24.125 53.3125 C-18.83884466 56.34922753 -14.16285147 56.63642797 -8.1875 56 C-3.76812019 54.63562771 -0.92142139 53.00914191 1.8125 49.25 C2.1425 48.5075 2.4725 47.765 2.8125 47 C5.7825 47.33 8.7525 47.66 11.8125 48 C12.8125 52 12.8125 52 11.94921875 53.96484375 C6.85475302 60.8993591 0.34313356 64.69162062 -8.1875 66 C-17.94784325 66.84212297 -25.96719157 65.39488895 -33.9375 59.5 C-39.93359449 53.91595939 -43.89704234 45.13281448 -44.1875 37 C-44.23648438 36.10796875 -44.28546875 35.2159375 -44.3359375 34.296875 C-44.66615069 24.39047939 -43.3174496 15.58461031 -36.86328125 7.78515625 C-27.59560532 -2.08740295 -12.87913475 -6.62929466 0 0 Z " fill="#2E3662" transform="translate(566.1875,538)"/>
<path d="M0 0 C3.90119057 3.12259161 6.07151777 5.9593024 7.921875 10.67578125 C8.33279037 14.66562927 8.27092071 18.62948672 8.21484375 22.63671875 C8.21059891 23.7824234 8.20635406 24.92812805 8.20198059 26.10855103 C8.1852314 29.7562034 8.14758491 33.40329676 8.109375 37.05078125 C8.09432336 39.52863784 8.08063579 42.00650311 8.06835938 44.484375 C8.03533999 50.54839141 7.98358249 56.61199165 7.921875 62.67578125 C4.621875 62.67578125 1.321875 62.67578125 -2.078125 62.67578125 C-2.573125 59.21078125 -2.573125 59.21078125 -3.078125 55.67578125 C-3.5525 56.41828125 -4.026875 57.16078125 -4.515625 57.92578125 C-8.73793057 62.45703601 -13.13287626 64.31932694 -19.2734375 65.0625 C-26.00653101 65.28901939 -31.65137283 64.91581768 -37.078125 60.67578125 C-40.97165791 56.92161417 -44.67650027 52.83662002 -45.37890625 47.30859375 C-45.41118178 40.40163058 -44.45866356 36.30690281 -39.703125 31.05078125 C-31.3355054 24.68811696 -19.74670523 24.03819989 -9.6328125 23.0703125 C-6.11979191 22.80614079 -6.11979191 22.80614079 -3.078125 21.67578125 C-2.57472653 15.43369407 -2.57472653 15.43369407 -4.828125 9.73828125 C-9.16696108 5.76101484 -12.72312121 5.23208648 -18.4765625 5.359375 C-24.03510148 6.03541352 -27.85186618 8.32689654 -31.578125 12.42578125 C-32.073125 13.16828125 -32.568125 13.91078125 -33.078125 14.67578125 C-34.55930301 14.39450704 -36.03805749 14.10044393 -37.515625 13.80078125 C-38.33933594 13.63835938 -39.16304688 13.4759375 -40.01171875 13.30859375 C-40.69363281 13.09976563 -41.37554687 12.8909375 -42.078125 12.67578125 C-42.408125 12.01578125 -42.738125 11.35578125 -43.078125 10.67578125 C-38.39477305 3.52657353 -33.67402528 -0.5369242 -25.703125 -3.63671875 C-16.87385732 -5.31123504 -7.77473445 -4.95420109 0 0 Z " fill="#2E3662" transform="translate(140.078125,539.32421875)"/>
<path d="M0 0 C3.3 0 6.6 0 10 0 C12.61476337 6.5965155 14.56542082 13.28441339 16.4375 20.125 C17.05164975 22.35038012 17.66623041 24.57564137 18.28125 26.80078125 C18.72210938 28.39913818 18.72210938 28.39913818 19.171875 30.02978516 C20.51449848 34.8453386 21.93513805 39.63725953 23.37109375 44.42578125 C24 47 24 47 24 51 C24.66 51 25.32 51 26 51 C26.10699219 49.71222656 26.21398437 48.42445313 26.32421875 47.09765625 C26.89441571 41.98585546 28.24360676 37.32075257 29.8125 32.4375 C32.19062885 24.80207909 34.2892544 17.16181704 36.140625 9.3828125 C36.95136336 6.19145149 37.91646677 3.10802954 39 0 C42.63 0 46.26 0 50 0 C52.5107669 6.29554312 54.29070956 12.61819111 55.9375 19.1875 C58.59802997 29.5974432 61.5882897 39.80976002 65 50 C65.36351562 48.51113281 65.36351562 48.51113281 65.734375 46.9921875 C69.6256053 31.1681127 74.29270543 15.59683601 79 0 C82.63 0 86.26 0 90 0 C87.24505822 10.40755785 84.12377845 20.69867117 81 31 C80.70512695 31.97243652 80.41025391 32.94487305 80.10644531 33.94677734 C76.76079077 44.97165932 73.39781595 55.99107633 70 67 C66.37 67 62.74 67 59 67 C58.79246094 66.11183594 58.58492188 65.22367188 58.37109375 64.30859375 C56.09560111 54.87339206 53.43301128 45.60356586 50.55053711 36.33569336 C48.5605169 29.92514951 46.72536496 23.48683726 45 17 C43.33662465 20.05759611 42.3590147 23.01011473 41.484375 26.375 C41.20537354 27.43412598 40.92637207 28.49325195 40.63891602 29.58447266 C40.34557373 30.71159668 40.05223145 31.8387207 39.75 33 C36.73498267 44.41028797 33.47501388 55.72211612 30 67 C26.7 67 23.4 67 20 67 C15.44265386 55.24684417 11.72357278 43.27959439 8.31469727 31.15209961 C6.25680489 23.83817602 4.08021244 16.56441429 1.82836914 9.30786133 C1.58852295 8.52306396 1.34867676 7.7382666 1.1015625 6.9296875 C0.88838379 6.24116699 0.67520508 5.55264648 0.45556641 4.84326172 C0 3 0 3 0 0 Z " fill="#303763" transform="translate(424,536)"/>
<path d="M0 0 C3.3 0 6.6 0 10 0 C12.71129956 6.76588736 14.59749242 13.64046848 16.4375 20.6875 C18.56788022 28.75311389 20.73573084 36.76257214 23.37109375 44.6796875 C24 47 24 47 24 51 C24.66 51 25.32 51 26 51 C26.0825 49.80375 26.165 48.6075 26.25 47.375 C26.70345509 43.29390421 27.62361051 39.53156543 28.78125 35.59375 C29.13993164 34.36317871 29.49861328 33.13260742 29.86816406 31.86474609 C30.05511841 31.22768738 30.24207275 30.59062866 30.43469238 29.93426514 C31.35175695 26.79642309 32.24492547 23.65180831 33.140625 20.5078125 C36.0703125 10.25390625 36.0703125 10.25390625 39 0 C42.96 0 46.92 0 51 0 C51.20753906 0.8765625 51.41507813 1.753125 51.62890625 2.65625 C55.50177769 18.60146127 60.27190725 34.29143468 65 50 C65.31638428 48.7939209 65.31638428 48.7939209 65.63916016 47.56347656 C69.82983714 31.62389671 74.11047791 15.74277946 79 0 C82.63 0 86.26 0 90 0 C87.86027639 9.23857135 85.35542185 18.23655288 82.28491211 27.20996094 C80.30950839 33.00149958 78.53396177 38.83051308 76.83544922 44.70849609 C74.67407182 52.17587064 72.34420271 59.5883293 70 67 C66.37 67 62.74 67 59 67 C58.64953613 65.5600769 58.64953613 65.5600769 58.29199219 64.09106445 C55.64916511 53.32614337 52.69315503 42.66977516 49.62548828 32.01928711 C49.02303488 29.92395133 48.42532926 27.82730557 47.828125 25.73046875 C47.4765332 24.50739014 47.12494141 23.28431152 46.76269531 22.02416992 C46 19 46 19 46 16 C45.34 16 44.68 16 44 16 C43.7721582 16.94037109 43.54431641 17.88074219 43.30957031 18.84960938 C40.70856102 29.47572142 37.78580932 39.99092309 34.75 50.5 C34.28620651 52.11320887 33.82266369 53.72648983 33.359375 55.33984375 C32.24245588 59.22739518 31.12220316 63.11397076 30 67 C26.7 67 23.4 67 20 67 C17.30250811 60.50175937 15.03372634 54.09607816 13.1875 47.3125 C10.47555341 37.58492297 7.5739459 27.92394779 4.61328125 18.26953125 C4.34725098 17.39893066 4.0812207 16.52833008 3.80712891 15.63134766 C3.25217004 13.82210789 2.69163376 12.01457249 2.12646484 10.20849609 C1.85141113 9.31855957 1.57635742 8.42862305 1.29296875 7.51171875 C1.04442139 6.71596436 0.79587402 5.92020996 0.53979492 5.1003418 C0 3 0 3 0 0 Z " fill="#2F3762" transform="translate(1832,536)"/>
<path d="M0 0 C6.90745898 4.96690194 11.8676432 11.18233599 13.7734375 19.5546875 C13.9796875 20.8540625 14.1859375 22.1534375 14.3984375 23.4921875 C10.7684375 23.4921875 7.1384375 23.4921875 3.3984375 23.4921875 C2.6971875 21.9453125 1.9959375 20.3984375 1.2734375 18.8046875 C-2.07412152 12.16583095 -5.91537471 8.43260818 -13.19921875 6 C-20.67467349 4.41982257 -28.32070583 4.33166597 -34.96875 8.37890625 C-35.50757813 8.74628906 -36.04640625 9.11367188 -36.6015625 9.4921875 C-37.9009375 10.265625 -37.9009375 10.265625 -39.2265625 11.0546875 C-48.08570873 20.14696915 -48.90752052 30.09799541 -48.91625977 42.06298828 C-48.77162944 52.48150651 -46.80587573 60.16479487 -39.46484375 67.8359375 C-35.41601081 71.43490011 -31.08028372 73.97040453 -25.6015625 74.4921875 C-24.95574219 74.55535156 -24.30992187 74.61851562 -23.64453125 74.68359375 C-16.13707471 75.09117896 -10.2074687 72.57559997 -3.7890625 68.8671875 C-0.40902597 65.19743355 1.31573068 61.01463658 3.3984375 56.4921875 C7.0284375 56.4921875 10.6584375 56.4921875 14.3984375 56.4921875 C12.75755701 62.56344531 11.37823278 67.5174434 7.3984375 72.4921875 C6.93953125 73.06710937 6.480625 73.64203125 6.0078125 74.234375 C-0.40680286 81.48974091 -9.81618181 84.89919578 -19.328125 85.73046875 C-30.02873653 86.00447363 -38.38317868 83.33780057 -46.60546875 76.390625 C-56.07633472 67.38310864 -60.01682194 55.6371464 -60.83984375 42.765625 C-61.12268554 27.90898806 -57.60578443 14.89901267 -47.3515625 3.6796875 C-34.54261829 -8.38753611 -14.80799801 -8.58241326 0 0 Z " fill="#2F3762" transform="translate(688.6015625,518.5078125)"/>
<path d="M0 0 C0 58.74 0 117.48 0 178 C-8.19311581 175.2689614 -8.19311581 175.2689614 -12 172 C-12.76622009 168.93208504 -12.76622009 168.93208504 -12.78881836 165.25735474 C-12.80100057 164.58030074 -12.81318277 163.90324674 -12.82573414 163.20567596 C-12.85902899 160.93737893 -12.84944183 158.67132324 -12.83984375 156.40283203 C-12.85452314 154.77650619 -12.87169505 153.15020121 -12.89117432 151.52392578 C-12.93565042 147.10636117 -12.94146564 142.68954208 -12.93767929 138.27178431 C-12.93744007 134.58385451 -12.95456075 130.89608322 -12.97123432 127.20819747 C-13.00971961 118.50701782 -13.0154645 109.80622192 -13.00195312 101.10498047 C-12.98867207 92.12936897 -13.03439218 83.15540145 -13.10858059 74.18012345 C-13.16996814 66.47375927 -13.19269559 58.76792399 -13.18490696 51.06132019 C-13.18077052 46.45859084 -13.1917449 41.85714029 -13.24069214 37.25464249 C-13.28521621 32.92491265 -13.28149251 28.59785411 -13.2408371 24.26811218 C-13.23401349 22.68062643 -13.24421281 21.09296115 -13.27280426 19.50571823 C-13.3506764 14.86166068 -13.31216835 10.49819292 -12 6 C-8.76143717 2.66145611 -4.79386259 0 0 0 Z " fill="#2E3661" transform="translate(2190,102)"/>
<path d="M0 0 C3.3 0 6.6 0 10 0 C10.0093457 1.38711182 10.01869141 2.77422363 10.02832031 4.20336914 C10.06830354 9.36791663 10.13408633 14.53187366 10.20751953 19.69604492 C10.23568072 21.92773838 10.2569193 24.15953068 10.27099609 26.39135742 C10.29249228 29.60646999 10.33917863 32.8204002 10.390625 36.03515625 C10.39185364 37.02709488 10.39308228 38.01903351 10.39434814 39.04103088 C10.52356317 45.20372318 11.33339871 48.98528554 15 54 C18.42329851 56.28219901 19.84137668 56.29741163 23.875 56.3125 C24.90367187 56.32925781 25.93234375 56.34601562 26.9921875 56.36328125 C30.36865179 55.95547452 32.19284726 54.85350329 35 53 C35.66 53 36.32 53 37 53 C39.03194926 49.07156476 40.12028928 45.87063064 40.20532227 41.43676758 C40.22526749 40.51603958 40.24521271 39.59531158 40.26576233 38.64668274 C40.28247482 37.65597275 40.29918732 36.66526276 40.31640625 35.64453125 C40.33718735 34.62775803 40.35796844 33.6109848 40.37937927 32.56340027 C40.44480048 29.31316937 40.50372537 26.06285723 40.5625 22.8125 C40.60569227 20.61001762 40.64930679 18.40754347 40.69335938 16.20507812 C40.80047432 10.80346883 40.90176289 5.40177775 41 0 C44.63 0 48.26 0 52 0 C52 22.11 52 44.22 52 67 C48.37 67 44.74 67 41 67 C40.505 62.545 40.505 62.545 40 58 C39.54109375 58.48210938 39.0821875 58.96421875 38.609375 59.4609375 C37.99578125 60.09257813 37.3821875 60.72421875 36.75 61.375 C36.14671875 62.00148438 35.5434375 62.62796875 34.921875 63.2734375 C29.81022184 67.86561371 24.32474898 67.57029526 17.7109375 67.37109375 C12.67643319 66.86764332 9.52122149 65.63424835 6 62 C2.07878553 56.92316313 -0.12954007 52.46372671 -0.11352539 45.9777832 C-0.11344986 44.95695145 -0.11337433 43.93611969 -0.11329651 42.88435364 C-0.10813522 41.78427475 -0.10297394 40.68419586 -0.09765625 39.55078125 C-0.0962413 38.4230278 -0.09482635 37.29527435 -0.09336853 36.13334656 C-0.0877647 32.52637088 -0.07521153 28.91945696 -0.0625 25.3125 C-0.05748549 22.86914152 -0.0529225 20.42578207 -0.04882812 17.98242188 C-0.03779403 11.98825741 -0.02052679 5.99413918 0 0 Z " fill="#323A65" transform="translate(2035,536)"/>
<path d="M0 0 C3.63 0 7.26 0 11 0 C11.0093457 1.4226416 11.01869141 2.8452832 11.02832031 4.31103516 C11.06825894 9.60041357 11.13402949 14.88921275 11.20751953 20.17822266 C11.23570652 22.46525621 11.25693231 24.75238677 11.27099609 27.03955078 C11.29245638 30.33155906 11.33912471 33.62240378 11.390625 36.9140625 C11.39185364 37.93303619 11.39308228 38.95200989 11.39434814 40.00186157 C11.51666027 45.95998618 12.00314835 49.47743797 16 54 C20.47375675 56.9825045 24.75456808 56.48095651 30 56 C34.75852474 54.356146 37.19569483 52.15452617 40 48 C40.92923977 45.21228069 41.14867338 43.41765752 41.20532227 40.52856445 C41.22526749 39.62785721 41.24521271 38.72714996 41.26576233 37.79914856 C41.28247482 36.83031235 41.29918732 35.86147614 41.31640625 34.86328125 C41.33718735 33.86870407 41.35796844 32.87412689 41.37937927 31.84941101 C41.44479412 28.67051133 41.5037224 25.49152866 41.5625 22.3125 C41.60569288 20.15819452 41.64930742 18.00389746 41.69335938 15.84960938 C41.80046731 10.56649142 41.90175766 5.28328995 42 0 C45.3 0 48.6 0 52 0 C52 21.78 52 43.56 52 66 C48.7 66 45.4 66 42 66 C41.505 61.545 41.505 61.545 41 57 C40.154375 58.093125 39.30875 59.18625 38.4375 60.3125 C34.50985503 64.81425548 31.02807825 66.70709325 25.1328125 67.27734375 C18.23252703 67.49243993 12.69157618 67.30667251 7.3515625 62.5234375 C0.38369883 55.07971973 -0.44013872 47.29486774 -0.29296875 37.5 C-0.28872391 36.42371338 -0.28447906 35.34742676 -0.28010559 34.23852539 C-0.26341025 30.8254213 -0.22577443 27.41292345 -0.1875 24 C-0.17244137 21.67578982 -0.15875503 19.35157032 -0.14648438 17.02734375 C-0.11353659 11.35133149 -0.06181718 5.67576828 0 0 Z " fill="#313863" transform="translate(950,536)"/>
<path d="M0 0 C5.45040605 4.25397546 8.7568084 9.33475127 10.5625 16 C11.42294164 24.80555861 11.08202569 33.8293388 5.98046875 41.32421875 C2.20076035 45.91092371 -0.68499238 48.60229834 -6.72265625 49.2421875 C-12.90982904 49.55947841 -16.46412793 48.70564977 -21.4375 45 C-27.74627072 38.97799158 -29.52237398 31.69679129 -29.9375 23.125 C-29.70430915 15.58516264 -27.49932918 8.85617165 -22.78125 2.9140625 C-16.40236597 -2.84315063 -7.85250738 -2.28436578 0 0 Z " fill="#FBFBFC" transform="translate(246.4375,546)"/>
<path d="M0 0 C5.52030047 4.14022535 9.08981154 9.0518574 10.5 15.875 C11.44295304 25.40802524 10.91847114 34.85861601 5.07421875 42.81640625 C0.72209311 47.48341437 -3.11908159 48.94373158 -9.3125 49.3125 C-14.80281259 49.17360816 -18.46932034 47.59148414 -22.5 43.875 C-28.11595725 37.0443955 -29.98891331 29.53221877 -29.8203125 20.7890625 C-29.0594131 13.86673378 -26.56669993 6.78816357 -21.5 1.875 C-15.15696745 -2.68753218 -7.25778541 -2.33285959 0 0 Z " fill="#FBFCFC" transform="translate(394.5,546.125)"/>
<path d="M0 0 C6.03807468 4.52855601 9.06982315 9.51508992 10.5 16.875 C11.45638123 26.07725353 10.69457607 35.15198937 5.07421875 42.8203125 C0.71690386 47.4816261 -3.11831572 48.94368597 -9.3125 49.3125 C-14.7948191 49.17381038 -18.48192515 47.59841603 -22.5 43.875 C-29.52061946 35.0555651 -29.62045563 24.73726324 -28.5 13.875 C-26.93494227 8.07095182 -23.9293581 2.87544831 -18.72265625 -0.3515625 C-12.69314159 -2.44970644 -5.9886885 -1.92493559 0 0 Z " fill="#FCFCFD" transform="translate(1969.5,546.125)"/>
<path d="M0 0 C6.03807468 4.52855601 9.06982315 9.51508992 10.5 16.875 C11.45638123 26.07725353 10.69457607 35.15198937 5.07421875 42.8203125 C0.71690386 47.4816261 -3.11831572 48.94368597 -9.3125 49.3125 C-14.7948191 49.17381038 -18.48192515 47.59841603 -22.5 43.875 C-29.52061946 35.0555651 -29.62045563 24.73726324 -28.5 13.875 C-26.93494227 8.07095182 -23.9293581 2.87544831 -18.72265625 -0.3515625 C-12.69314159 -2.44970644 -5.9886885 -1.92493559 0 0 Z " fill="#FCFCFD" transform="translate(1734.5,546.125)"/>
<path d="M0 0 C16.5 0 33 0 50 0 C50 10.29591187 50 10.29591187 45.3125 15.5 C44.29514986 16.70948851 43.27960147 17.92049427 42.265625 19.1328125 C41.73001953 19.7609082 41.19441406 20.38900391 40.64257812 21.03613281 C37.83415508 24.39388474 35.20592986 27.88693098 32.5625 31.375 C32.02641113 32.0774585 31.49032227 32.77991699 30.93798828 33.50366211 C25.24430349 40.96672966 19.62131466 48.48233823 14 56 C32.315 56.495 32.315 56.495 51 57 C51 60.3 51 63.6 51 67 C33.84 67 16.68 67 -1 67 C-1 58.38471997 -0.81961991 56.49105065 4.375 50.75 C5.49078782 49.43982691 6.60535345 48.12861207 7.71875 46.81640625 C8.27691406 46.17203613 8.83507813 45.52766602 9.41015625 44.86376953 C11.67179293 42.21245897 13.76869881 39.46430706 15.875 36.6875 C18.79825687 32.86294533 21.73553035 29.0511528 24.69921875 25.2578125 C25.33811035 24.43966064 25.97700195 23.62150879 26.63525391 22.77856445 C27.90310495 21.15624834 29.17227483 19.53496188 30.44287109 17.91479492 C31.0198877 17.17592041 31.5969043 16.4370459 32.19140625 15.67578125 C32.70904541 15.01489502 33.22668457 14.35400879 33.76000977 13.6730957 C35.06668376 12.01102987 35.06668376 12.01102987 36 10 C24.12 10 12.24 10 0 10 C0 6.7 0 3.4 0 0 Z " fill="#313964" transform="translate(1770,536)"/>
<path d="M0 0 C5.16089695 2.64175503 7.7558604 6.80026393 9.83203125 12.04296875 C12.35074934 21.01993836 11.7194252 31.81374528 7.74609375 40.30078125 C5.05046628 44.7934937 1.72474743 47.60991773 -3.25390625 49.30078125 C-8.90314539 50.25517489 -13.18676062 49.788866 -18.12890625 46.80078125 C-23.35295322 42.9150502 -25.25135733 38.308428 -27.25390625 32.30078125 C-28.04476024 21.0819525 -28.38608913 11.60259029 -20.8203125 2.59375 C-15.31143559 -2.3930887 -6.77767221 -2.10260542 0 0 Z " fill="#FBFCFC" transform="translate(1343.25390625,545.69921875)"/>
<path d="M0 0 C4.88867101 2.36410567 7.45275629 6.66956728 9.78515625 11.36328125 C12.39581877 19.1952688 11.92911356 30.91824187 8.76171875 38.5703125 C5.91706666 43.79309374 2.54273944 47.40787564 -3.21484375 49.36328125 C-9.35481235 50.292016 -14.32422991 49.75120985 -19.45703125 46.125 C-26.25746648 39.30945269 -27.52734375 30.32132574 -27.52734375 21.15039062 C-27.35889946 13.24116563 -25.16545633 8.03063459 -19.77734375 2.30078125 C-14.03946496 -2.31960804 -6.84184969 -1.96688095 0 0 Z " fill="#FCFCFD" transform="translate(317.21484375,545.63671875)"/>
<path d="M0 0 C3.3 0 6.6 0 10 0 C10.33 2.97 10.66 5.94 11 9 C11.9075 7.88625 12.815 6.7725 13.75 5.625 C15.95679556 2.91665999 17.67287902 1.16221349 21 0 C28.3611424 -0.68512797 36.88622048 -1.43152879 43.38671875 2.58984375 C47.32681655 6.03385175 50.34495429 10.03486286 52 15 C52.08754798 16.67220971 52.11765995 18.34772199 52.11352539 20.0222168 C52.11344986 21.04304855 52.11337433 22.06388031 52.11329651 23.11564636 C52.10813522 24.21572525 52.10297394 25.31580414 52.09765625 26.44921875 C52.0962413 27.5769722 52.09482635 28.70472565 52.09336853 29.86665344 C52.0877647 33.47362912 52.07521153 37.08054304 52.0625 40.6875 C52.05748549 43.13085848 52.0529225 45.57421793 52.04882812 48.01757812 C52.03779403 54.01174259 52.02052679 60.00586082 52 66 C48.7 66 45.4 66 42 66 C41.970271 63.91147705 41.970271 63.91147705 41.93994141 61.78076172 C41.86373372 56.60333508 41.77503943 51.42618392 41.68261719 46.24902344 C41.64439012 44.01047209 41.60952639 41.77186063 41.578125 39.53320312 C41.53233852 36.31097974 41.47436586 33.08916793 41.4140625 29.8671875 C41.40251129 28.87008759 41.39096008 27.87298767 41.37905884 26.84567261 C41.27451202 21.8969995 41.09654426 17.58333821 39 13 C37.08235826 11.6237206 37.08235826 11.6237206 35 11 C34.34 10.67 33.68 10.34 33 10 C25.11400349 9.10424238 25.11400349 9.10424238 17.65625 11.19921875 C14.04847736 14.23372243 11.323353 17.41367214 10.7215271 22.22735596 C10.70820343 23.03565857 10.69487976 23.84396118 10.68115234 24.67675781 C10.66128265 25.59741028 10.64141296 26.51806274 10.62094116 27.46661377 C10.60361435 28.94493683 10.60361435 28.94493683 10.5859375 30.453125 C10.56657135 31.46848328 10.5472052 32.48384155 10.5272522 33.52996826 C10.46751901 36.76989365 10.42109572 40.00985468 10.375 43.25 C10.33681449 45.44793208 10.29776242 47.64584928 10.2578125 49.84375 C10.16182245 55.22904574 10.07776795 60.61441154 10 66 C6.7 66 3.4 66 0 66 C0 44.22 0 22.44 0 0 Z " fill="#2C3460" transform="translate(1453,536)"/>
<path d="M0 0 C2.97 0 5.94 0 9 0 C9 3.3 9 6.6 9 10 C9.66 10 10.32 10 11 10 C11.20625 9.443125 11.4125 8.88625 11.625 8.3125 C13.82516669 4.61221966 17.1366872 1.9316564 21 0 C37.73669389 -1.16812166 37.73669389 -1.16812166 45 4 C50.02377125 9.02377125 52.14902414 14.49069917 52.34057617 21.47631836 C52.34010518 23.5975528 52.32339351 25.71882746 52.29296875 27.83984375 C52.28872391 28.96193741 52.28447906 30.08403107 52.28010559 31.24012756 C52.26338097 34.80616767 52.22573922 38.37163215 52.1875 41.9375 C52.17244517 44.36262202 52.15875817 46.78775294 52.14648438 49.21289062 C52.11349764 55.14214716 52.06175737 61.07097615 52 67 C48.7 67 45.4 67 42 67 C41.9906543 65.5773584 41.98130859 64.1547168 41.97167969 62.68896484 C41.93174106 57.39958643 41.86597051 52.11078725 41.79248047 46.82177734 C41.76429348 44.53474379 41.74306769 42.24761323 41.72900391 39.96044922 C41.70754362 36.66844094 41.66087529 33.37759622 41.609375 30.0859375 C41.60814636 29.06696381 41.60691772 28.04799011 41.60565186 26.99813843 C41.4831513 21.03083483 40.96529396 17.55148779 37 13 C31.77319926 8.94043226 26.35054139 9.2341488 20 10 C14.88720204 12.33215346 13.02324257 14.84218149 11 20 C10.5436109 23.54838192 10.51170193 27.07398787 10.48828125 30.6484375 C10.47033005 31.66096588 10.45237885 32.67349426 10.43388367 33.71670532 C10.37990042 36.93609511 10.34592293 40.15533763 10.3125 43.375 C10.2793164 45.56382252 10.24482578 47.75262564 10.20898438 49.94140625 C10.12418057 55.2941644 10.05731189 60.64687976 10 66 C6.7 66 3.4 66 0 66 C0 44.22 0 22.44 0 0 Z " fill="#2D3561" transform="translate(790,536)"/>
<path d="M0 0 C3.795 -0.061875 7.59 -0.12375 11.5 -0.1875 C13.27020508 -0.22846802 13.27020508 -0.22846802 15.07617188 -0.27026367 C22.82593485 -0.33109486 28.76135479 0.2541921 34.875 5.4375 C38.91550492 10.30987357 39.45037903 13.92888881 39.30859375 20.17578125 C38.85401789 24.33601346 37.80599794 27.84237324 35 31 C28.45816103 36.25019747 21.638885 35.46036858 13.5625 35.25 C9.086875 35.1675 4.61125 35.085 0 35 C0 23.45 0 11.9 0 0 Z " fill="#F9F9FA" transform="translate(1633,523)"/>
<path d="M0 0 C3.63 0 7.26 0 11 0 C11 5.28 11 10.56 11 16 C15.62 16 20.24 16 25 16 C25 18.97 25 21.94 25 25 C20.05 25 15.1 25 10 25 C10.06884811 31.05102627 10.15680147 37.10135963 10.26245117 43.15185547 C10.29570011 45.21004553 10.32373214 47.26832676 10.34643555 49.32666016 C10.3799819 52.28587691 10.43229802 55.24425817 10.48828125 58.203125 C10.49467117 59.12305237 10.5010611 60.04297974 10.50764465 60.99078369 C10.60410531 65.98339873 10.60410531 65.98339873 12.37695312 70.57421875 C14.60879046 72.53479788 16.25182936 72.59749763 19.1875 72.75 C20.53908203 72.83507812 20.53908203 72.83507812 21.91796875 72.921875 C22.60503906 72.94765625 23.29210937 72.9734375 24 73 C24.19412181 74.47831221 24.38012131 75.95769316 24.5625 77.4375 C24.71912109 78.67306641 24.71912109 78.67306641 24.87890625 79.93359375 C24.93884766 80.95646484 24.93884766 80.95646484 25 82 C23.23299368 83.76700632 20.83719584 83.29691228 18.4375 83.375 C13.29639776 83.31998226 10.00395969 82.56836848 5.71875 79.77734375 C0.74521588 74.63425733 -0.45547082 70.15411822 -0.45318604 63.1934967 C-0.43254089 62.22343185 -0.41189575 61.253367 -0.390625 60.25390625 C-0.38496521 59.24279282 -0.37930542 58.23167938 -0.37347412 57.18992615 C-0.35119521 53.98028977 -0.30101377 50.77179541 -0.25 47.5625 C-0.22992407 45.3782714 -0.21167522 43.1940252 -0.1953125 41.00976562 C-0.15135807 35.67274124 -0.08238861 30.33656384 0 25 C-3.3 25 -6.6 25 -10 25 C-10 22.03 -10 19.06 -10 16 C-6.7 16 -3.4 16 0 16 C0 10.72 0 5.44 0 0 Z " fill="#323964" transform="translate(865,520)"/>
<path d="M0 0 C6.125625 -0.1546875 6.125625 -0.1546875 12.375 -0.3125 C13.64134277 -0.35802002 14.90768555 -0.40354004 16.21240234 -0.45043945 C23.91421653 -0.54374735 29.57772548 0.6229901 36 5 C39.62678393 8.62678393 40.27093988 11.52804801 40.5 16.5 C40.27907305 21.42734051 39.64580392 24.44311813 36 28 C28.71623354 31.77489652 20.92359666 31.35178708 12.9375 31.1875 C8.668125 31.125625 4.39875 31.06375 0 31 C0 20.77 0 10.54 0 0 Z " fill="#FCFCFD" transform="translate(1173,562)"/>
<path d="M0 0 C0 45.87 0 91.74 0 139 C-5.79120638 136.10439681 -5.79120638 136.10439681 -8 134 C-8.5117445 131.64859295 -8.5117445 131.64859295 -8.52812195 128.82023621 C-8.54373672 127.74777145 -8.5593515 126.6753067 -8.57543945 125.57034302 C-8.57205566 124.39366058 -8.56867187 123.21697815 -8.56518555 122.00463867 C-8.5770137 120.76538132 -8.58884186 119.52612396 -8.60102844 118.24931335 C-8.62832485 114.8480599 -8.63735186 111.44778148 -8.63609672 108.04648376 C-8.63692678 105.20612847 -8.64916702 102.36586526 -8.66104633 99.52553827 C-8.68843635 92.82222409 -8.69374517 86.11912979 -8.6862793 79.41577148 C-8.6790428 72.50524106 -8.71242431 65.59573195 -8.76533669 58.68542308 C-8.80914212 52.74980466 -8.8258311 46.81451581 -8.8213008 40.87873822 C-8.81897993 37.33475296 -8.82726874 33.79159214 -8.86237144 30.24776268 C-8.90032019 26.29261874 -8.88182326 22.3388231 -8.8581543 18.38354492 C-8.87703705 17.21293518 -8.8959198 16.04232544 -8.91537476 14.83624268 C-8.80465886 7.06676651 -8.80465886 7.06676651 -6.41944313 3.90459633 C-1.9751576 0 -1.9751576 0 0 0 Z " fill="#343C66" transform="translate(2160,121)"/>
<path d="M0 0 C4.33125 -0.061875 8.6625 -0.12375 13.125 -0.1875 C14.47996582 -0.21481201 15.83493164 -0.24212402 17.23095703 -0.27026367 C18.85300049 -0.28150269 18.85300049 -0.28150269 20.5078125 -0.29296875 C21.60754395 -0.3086792 22.70727539 -0.32438965 23.84033203 -0.34057617 C28.79603227 0.1935918 32.00757764 1.92922851 35.375 5.5625 C37.57038953 10.20659324 38.15511223 13.96091979 37 19 C34.59360876 23.15085252 31.85555939 26.08983638 27.53125 28.2109375 C22.23136916 29.39520291 17.03452573 29.20719395 11.625 29.125 C5.870625 29.063125 5.870625 29.063125 0 29 C0 19.43 0 9.86 0 0 Z " fill="#FDFDFD" transform="translate(1173,524)"/>
<path d="M0 0 C3.3 0 6.6 0 10 0 C10.06966027 9.90134192 10.12289249 19.80262507 10.15543652 29.7041626 C10.17105987 34.30237515 10.19223702 38.90041943 10.22631836 43.49853516 C10.25903098 47.94002933 10.27687804 52.38136213 10.28463173 56.82296753 C10.29015394 58.513362 10.30093734 60.20374813 10.31719017 61.89407349 C10.33912318 64.27071889 10.34196039 66.64670639 10.34057617 69.0234375 C10.351362 69.71468216 10.36214783 70.40592682 10.3732605 71.11811829 C10.3366015 76.97509841 9.04947066 82.46301091 5.30859375 87.09375 C-0.10794705 91.16463662 -4.31184567 91.74008265 -11 91 C-11 88.03 -11 85.06 -11 82 C-9.906875 81.7525 -8.81375 81.505 -7.6875 81.25 C-3.72755341 79.90764522 -2.92789339 79.54826226 -1 76 C-0.69716835 73.44333185 -0.56235779 71.12582152 -0.56762695 68.56933594 C-0.5574353 67.82748047 -0.54724365 67.085625 -0.53674316 66.32128906 C-0.50661177 63.87557423 -0.49734726 61.43025106 -0.48828125 58.984375 C-0.47143462 57.28613991 -0.4532844 55.5879173 -0.43388367 53.88970947 C-0.38637557 49.42472226 -0.35657153 44.9597856 -0.33044434 40.49462891 C-0.30064286 35.93642186 -0.25411112 31.37838903 -0.20898438 26.8203125 C-0.1229421 17.88029946 -0.05560095 8.94025056 0 0 Z " fill="#2A325F" transform="translate(2006,536)"/>
<path d="M0 0 C0 3.3 0 6.6 0 10 C-0.72445312 10.03738281 -1.44890625 10.07476563 -2.1953125 10.11328125 C-9.2006593 10.58964483 -14.39179893 11.10983125 -19.3125 16.5625 C-21.57713614 19.83364108 -22.13029424 21.52681304 -22.20532227 25.44970703 C-22.22526749 26.37051056 -22.24521271 27.29131409 -22.26576233 28.24002075 C-22.29083107 29.73382767 -22.29083107 29.73382767 -22.31640625 31.2578125 C-22.33718735 32.27600067 -22.35796844 33.29418884 -22.37937927 34.3432312 C-22.44489466 37.60375055 -22.50376902 40.86435206 -22.5625 44.125 C-22.60568332 46.33203983 -22.64929755 48.53907128 -22.69335938 50.74609375 C-22.8005781 56.16397775 -22.90183996 61.58194461 -23 67 C-26.3 67 -29.6 67 -33 67 C-33 45.22 -33 23.44 -33 1 C-29.7 1 -26.4 1 -23 1 C-22.67 3.64 -22.34 6.28 -22 9 C-21.505 8.2575 -21.01 7.515 -20.5 6.75 C-14.53332477 0.18665725 -8.57969445 -0.47664969 0 0 Z " fill="#2B335F" transform="translate(938,535)"/>
<path d="M0 0 C0 3.3 0 6.6 0 10 C-0.72445312 10.03738281 -1.44890625 10.07476563 -2.1953125 10.11328125 C-9.2006593 10.58964483 -14.39179893 11.10983125 -19.3125 16.5625 C-21.57713614 19.83364108 -22.13029424 21.52681304 -22.20532227 25.44970703 C-22.22526749 26.37051056 -22.24521271 27.29131409 -22.26576233 28.24002075 C-22.29083107 29.73382767 -22.29083107 29.73382767 -22.31640625 31.2578125 C-22.33718735 32.27600067 -22.35796844 33.29418884 -22.37937927 34.3432312 C-22.44489466 37.60375055 -22.50376902 40.86435206 -22.5625 44.125 C-22.60568332 46.33203983 -22.64929755 48.53907128 -22.69335938 50.74609375 C-22.8005781 56.16397775 -22.90183996 61.58194461 -23 67 C-26.3 67 -29.6 67 -33 67 C-33 45.22 -33 23.44 -33 1 C-29.7 1 -26.4 1 -23 1 C-22.67 3.64 -22.34 6.28 -22 9 C-21.505 8.2575 -21.01 7.515 -20.5 6.75 C-14.53332477 0.18665725 -8.57969445 -0.47664969 0 0 Z " fill="#2B335F" transform="translate(200,535)"/>
<path d="M0 0 C3.3 0 6.6 0 10 0 C10 21.78 10 43.56 10 66 C6.7 66 3.4 66 0 66 C0 44.22 0 22.44 0 0 Z " fill="#2C3460" transform="translate(1558,536)"/>
<path d="M0 0 C0.624 11.68266667 0.624 11.68266667 -1.6875 16.5625 C-5.54666633 20.63026992 -9.58266353 24.55923801 -15.33203125 25.30078125 C-21.00533255 25.32758425 -25.07306655 24.91594021 -30 22 C-32.29223253 19.26410956 -32.92376722 17.52273903 -33.4375 14 C-32.87396725 10.13577546 -31.8275729 8.68256917 -29 6 C-23.52022937 3.22846004 -18.29983859 2.16807996 -12.25 1.3125 C-10.97576172 1.11817383 -10.97576172 1.11817383 -9.67578125 0.91992188 C-6.40474364 0.43159162 -3.31280675 0 0 0 Z " fill="#F9F9FA" transform="translate(1280,570)"/>
<path d="M0 0 C0.62626649 11.72510036 0.62626649 11.72510036 -1.75 16.5625 C-2.4925 17.366875 -3.235 18.17125 -4 19 C-4.61875 19.7425 -5.2375 20.485 -5.875 21.25 C-10.52406979 25.07864571 -15.70245812 25.44331159 -21.52734375 25.3203125 C-25.53113222 24.80165428 -27.77028208 23.42228844 -31 21 C-33.40706735 17.86034694 -33.47414213 14.87216075 -33 11 C-30.32506083 6.39910463 -26.90244531 4.63146856 -22 3 C-18.77076926 2.27055361 -15.52680204 1.77591173 -12.25 1.3125 C-10.97576172 1.11817383 -10.97576172 1.11817383 -9.67578125 0.91992188 C-6.40474364 0.43159162 -3.31280675 0 0 0 Z " fill="#F9F9FB" transform="translate(1424,570)"/>
<path d="M0 0 C0.44386627 7.39777121 0.77350435 13.94188286 -4 20 C-10.4130653 25.10427646 -16.04141346 25.64805633 -24 25 C-28.1610986 23.46696367 -29.53935571 22.69096643 -32 19 C-32.5457317 15.93241342 -32.51817575 13.07127083 -32 10 C-27.56172237 3.67881671 -20.65321419 3.0214691 -13.48828125 1.7578125 C-12.74964844 1.63148438 -12.01101562 1.50515625 -11.25 1.375 C-10.49589844 1.2409375 -9.74179688 1.106875 -8.96484375 0.96875 C-5.93865193 0.44198837 -3.07769118 0 0 0 Z " fill="#FBFBFC" transform="translate(138,570)"/>
<path d="M0 0 C4.20439532 2.21235649 6.66349092 5.11091417 8.7265625 9.31640625 C9.2215625 13.77140625 9.2215625 13.77140625 9.7265625 18.31640625 C-2.4834375 18.31640625 -14.6934375 18.31640625 -27.2734375 18.31640625 C-27.2734375 11.66679913 -26.20498513 9.32699277 -22.2734375 4.31640625 C-15.90194378 -1.46239038 -8.35899647 -2.51344395 0 0 Z " fill="#FCFCFC" transform="translate(560.2734375,545.68359375)"/>
<path d="M0 0 C3.66864538 2.68437467 6.50666083 5.76332166 8.5625 9.875 C8.5625 12.515 8.5625 15.155 8.5625 17.875 C-3.6475 17.875 -15.8575 17.875 -28.4375 17.875 C-27.15890489 8.92483421 -24.34192025 5.12836323 -17.4375 -0.125 C-12.43005839 -2.62872081 -5.14655051 -1.68432562 0 0 Z " fill="#FDFDFD" transform="translate(754.4375,546.125)"/>
<path d="M0 0 C3.63 0 7.26 0 11 0 C9.13626212 4.6593447 7.07151301 8.58432244 4.4375 12.8125 C4.04498047 13.50537109 3.65246094 14.19824219 3.24804688 14.91210938 C1.95655781 16.95713497 0.8879084 18.48128257 -1 20 C-4.09222241 20.58859653 -6.89521875 20.44134715 -10 20 C-8.56347895 15.08558588 -6.45840385 10.99761642 -3.875 6.625 C-3.50246094 5.98433594 -3.12992188 5.34367188 -2.74609375 4.68359375 C-1.83565998 3.11951523 -0.91851809 1.55934466 0 0 Z " fill="#313964" transform="translate(1485,507)"/>
<path d="M0 0 C4.91511194 1.34048507 4.91511194 1.34048507 6.4375 3.9375 C6.97818562 7.56781776 6.90129841 9.25964079 4.8125 12.3125 C1.74272452 14.4128727 0.09193439 14.47043835 -3.5625 13.9375 C-5.9375 12.875 -5.9375 12.875 -7.5625 10.9375 C-8.13599318 6.9947344 -8.1289946 4.84389136 -6 1.4375 C-3.5625 -0.0625 -3.5625 -0.0625 0 0 Z " fill="#313964" transform="translate(2011.5625,511.0625)"/>
<path d="M0 0 C1.9375 1.0625 1.9375 1.0625 3 3 C3.4375 6.5 3.4375 6.5 3 10 C0.79803976 12.62541413 -0.61973579 12.9445448 -4 13.4375 C-7 13 -7 13 -9.4375 11.4375 C-11 9 -11 9 -10.9375 5.375 C-9.26346191 -0.65153711 -5.61343058 -0.50119916 0 0 Z " fill="#303763" transform="translate(1567,512)"/>
</svg>
