<?xml version="1.0" encoding="UTF-8"?>
<svg version="1.1" xmlns="http://www.w3.org/2000/svg" width="1416" height="392">
<path d="M0 0 C467.28 0 934.56 0 1416 0 C1416 129.36 1416 258.72 1416 392 C948.72 392 481.44 392 0 392 C0 262.64 0 133.28 0 0 Z " fill="#FEFEFE" transform="translate(0,0)"/>
<path d="M0 0 C53.79 0 107.58 0 163 0 C163 2.31 163 4.62 163 7 C163.66 7 164.32 7 165 7 C165.33 11.62 165.66 16.24 166 21 C166.66 21 167.32 21 168 21 C168.33 24.3 168.66 27.6 169 31 C169.66 31 170.32 31 171 31 C171.99 37.435 171.99 37.435 173 44 C173.66 44 174.32 44 175 44 C175.33 46.97 175.66 49.94 176 53 C176.66 53 177.32 53 178 53 C178.33 55.31 178.66 57.62 179 60 C179.66 60 180.32 60 181 60 C181.33 62.64 181.66 65.28 182 68 C182.66 68 183.32 68 184 68 C184.33 69.65 184.66 71.3 185 73 C185.66 73 186.32 73 187 73 C187.33 74.98 187.66 76.96 188 79 C188.66 79 189.32 79 190 79 C190.33 80.98 190.66 82.96 191 85 C191.66 85 192.32 85 193 85 C193.99 89.455 193.99 89.455 195 94 C195.66 94 196.32 94 197 94 C197.33 95.98 197.66 97.96 198 100 C198.99 100.33 199.98 100.66 201 101 C201 101.99 201 102.98 201 104 C201.66 104 202.32 104 203 104 C203.33 105.65 203.66 107.3 204 109 C204.66 109 205.32 109 206 109 C206.33 109.99 206.66 110.98 207 112 C207.66 112.33 208.32 112.66 209 113 C209.625 115.5625 209.625 115.5625 210 118 C210.66 118 211.32 118 212 118 C212.33 118.99 212.66 119.98 213 121 C213.66 121.33 214.32 121.66 215 122 C215.33 122.99 215.66 123.98 216 125 C216.7425 125.7425 216.7425 125.7425 217.5 126.5 C219 128 219 128 220 131 C220.7734375 131.7425 220.7734375 131.7425 221.5625 132.5 C223 134 223 134 223 137 C223.99 137.33 224.98 137.66 226 138 C226 138.66 226 139.32 226 140 C226.99 140.33 227.98 140.66 229 141 C229 141.99 229 142.98 229 144 C229.66 144 230.32 144 231 144 C233.125 145.875 233.125 145.875 235 148 C235 148.66 235 149.32 235 150 C235.99 150.33 236.98 150.66 238 151 C238 151.66 238 152.32 238 153 C238.66 153 239.32 153 240 153 C240.33 153.99 240.66 154.98 241 156 C241.680625 156.680625 242.36125 157.36125 243.0625 158.0625 C243.701875 158.701875 244.34125 159.34125 245 160 C245 160.66 245 161.32 245 162 C245.99 162.33 246.98 162.66 248 163 C248 163.66 248 164.32 248 165 C248.99 165.33 249.98 165.66 251 166 C251 166.66 251 167.32 251 168 C251.99 168.33 252.98 168.66 254 169 C254 169.66 254 170.32 254 171 C255.98 171.66 257.96 172.32 260 173 C260 173.66 260 174.32 260 175 C260.99 175.33 261.98 175.66 263 176 C263 176.66 263 177.32 263 178 C263.99 178.33 264.98 178.66 266 179 C266 179.66 266 180.32 266 181 C266.99 181.33 267.98 181.66 269 182 C269 182.66 269 183.32 269 184 C270.32 184.33 271.64 184.66 273 185 C273 185.66 273 186.32 273 187 C273.99 187.33 274.98 187.66 276 188 C276 188.66 276 189.32 276 190 C277.2065625 190.185625 277.2065625 190.185625 278.4375 190.375 C279.283125 190.58125 280.12875 190.7875 281 191 C281.33 191.66 281.66 192.32 282 193 C282.825 193.33 283.65 193.66 284.5 194 C287 195 287 195 288 197 C288.99 197.33 289.98 197.66 291 198 C291 198.66 291 199.32 291 200 C292.32 200.33 293.64 200.66 295 201 C295 201.66 295 202.32 295 203 C296.2065625 203.185625 296.2065625 203.185625 297.4375 203.375 C298.283125 203.58125 299.12875 203.7875 300 204 C300.33 204.66 300.66 205.32 301 206 C301.99 206.33 302.98 206.66 304 207 C304 207.66 304 208.32 304 209 C305.65 209.33 307.3 209.66 309 210 C309 210.66 309 211.32 309 212 C310.32 212.33 311.64 212.66 313 213 C313 213.66 313 214.32 313 215 C314.98 215.33 316.96 215.66 319 216 C319 216.66 319 217.32 319 218 C319.63808594 218.12117187 320.27617187 218.24234375 320.93359375 218.3671875 C322.17302734 218.61855469 322.17302734 218.61855469 323.4375 218.875 C324.26121094 219.03742188 325.08492188 219.19984375 325.93359375 219.3671875 C326.61550781 219.57601562 327.29742187 219.78484375 328 220 C328.33 220.66 328.66 221.32 329 222 C331.52733235 222.65555119 331.52733235 222.65555119 334 223 C334 223.66 334 224.32 334 225 C335.98 225.33 337.96 225.66 340 226 C340 226.66 340 227.32 340 228 C341.65 228.33 343.3 228.66 345 229 C345 229.66 345 230.32 345 231 C347.64 231.33 350.28 231.66 353 232 C353 232.66 353 233.32 353 234 C355.31 234.33 357.62 234.66 360 235 C360 235.66 360 236.32 360 237 C363.3 237.33 366.6 237.66 370 238 C370 238.66 370 239.32 370 240 C372.97 240.33 375.94 240.66 379 241 C379 241.66 379 242.32 379 243 C379.58007812 243.06058594 380.16015625 243.12117187 380.7578125 243.18359375 C390.63629993 244.24316748 390.63629993 244.24316748 394 245 C395.2967379 247.5934758 395.12294945 249.46049729 395.12025452 252.3656311 C395.12231651 254.07362129 395.12231651 254.07362129 395.12442017 255.81611633 C395.12082489 257.07127548 395.11722961 258.32643463 395.11352539 259.61962891 C395.11367142 260.93665298 395.11381744 262.25367706 395.1139679 263.61061096 C395.11425551 267.22815931 395.10836458 270.84567469 395.10139394 274.46321535 C395.09515442 278.24153763 395.09455613 282.01986062 395.09336853 285.79818726 C395.09025698 292.95569495 395.08204596 300.11318743 395.07201904 307.27068841 C395.06085243 315.41809884 395.05534607 323.56550998 395.05032361 331.71292615 C395.03986321 348.47529302 395.02226718 365.23764457 395 382 C392.69 382 390.38 382 388 382 C387.67 381.01 387.34 380.02 387 379 C386.195625 378.87625 385.39125 378.7525 384.5625 378.625 C383.716875 378.41875 382.87125 378.2125 382 378 C381.67 377.34 381.34 376.68 381 376 C380.01 375.67 379.02 375.34 378 375 C378 374.34 378 373.68 378 373 C377.01 372.67 376.02 372.34 375 372 C375 371.34 375 370.68 375 370 C374.236875 369.896875 373.47375 369.79375 372.6875 369.6875 C369.77908957 368.94348803 368.92670112 368.20194413 367 366 C366.34 365.67 365.68 365.34 365 365 C365 364.34 365 363.68 365 363 C364.01 362.67 363.02 362.34 362 362 C362 361.34 362 360.68 362 360 C361.236875 359.896875 360.47375 359.79375 359.6875 359.6875 C356.81583516 358.95288806 355.76957906 358.3283935 354 356 C354 355.34 354 354.68 354 354 C352.68 353.67 351.36 353.34 350 353 C350 352.34 350 351.68 350 351 C349.2575 350.938125 348.515 350.87625 347.75 350.8125 C344.16992409 349.7547503 343.19853008 347.93137344 341 345 C340.01 344.67 339.02 344.34 338 344 C337 343 336 342 335 341 C334.01 340.67 333.02 340.34 332 340 C330.66666667 338.33333333 329.33333333 336.66666667 328 335 C327.01 334.67 326.02 334.34 325 334 C325 333.34 325 332.68 325 332 C324.01 331.67 323.02 331.34 322 331 C322 330.34 322 329.68 322 329 C320.68 328.67 319.36 328.34 318 328 C318 327.34 318 326.68 318 326 C317.01 325.67 316.02 325.34 315 325 C315 324.34 315 323.68 315 323 C314.195625 322.87625 313.39125 322.7525 312.5625 322.625 C311.716875 322.41875 310.87125 322.2125 310 322 C309.67 321.34 309.34 320.68 309 320 C308.175 319.67 307.35 319.34 306.5 319 C304 318 304 318 303 316 C302.01 315.67 301.02 315.34 300 315 C300 314.34 300 313.68 300 313 C299.01 312.67 298.02 312.34 297 312 C297 311.34 297 310.68 297 310 C295.68 309.67 294.36 309.34 293 309 C293 308.34 293 307.68 293 307 C292.01 306.67 291.02 306.34 290 306 C290 305.34 290 304.68 290 304 C289.236875 303.896875 288.47375 303.79375 287.6875 303.6875 C284.81583516 302.95288806 283.76957906 302.3283935 282 300 C282 299.34 282 298.68 282 298 C280.68 297.67 279.36 297.34 278 297 C278 296.34 278 295.68 278 295 C276.02 294.34 274.04 293.68 272 293 C272 292.34 272 291.68 272 291 C271.01 290.67 270.02 290.34 269 290 C269 289.34 269 288.68 269 288 C267.68 287.67 266.36 287.34 265 287 C265 286.34 265 285.68 265 285 C264.236875 284.896875 263.47375 284.79375 262.6875 284.6875 C259.81583516 283.95288806 258.76957906 283.3283935 257 281 C257 280.34 257 279.68 257 279 C255.68 278.67 254.36 278.34 253 278 C253 277.34 253 276.68 253 276 C252.01 275.67 251.02 275.34 250 275 C250 274.34 250 273.68 250 273 C249.195625 272.87625 248.39125 272.7525 247.5625 272.625 C246.2940625 272.315625 246.2940625 272.315625 245 272 C244.67 271.34 244.34 270.68 244 270 C241.98330173 268.86649466 241.98330173 268.86649466 240 268 C240 267.34 240 266.68 240 266 C239.01 265.67 238.02 265.34 237 265 C237 264.34 237 263.68 237 263 C236.195625 262.87625 235.39125 262.7525 234.5625 262.625 C233.2940625 262.315625 233.2940625 262.315625 232 262 C231.67 261.34 231.34 260.68 231 260 C230.01 259.67 229.02 259.34 228 259 C228 258.34 228 257.68 228 257 C227.01 256.67 226.02 256.34 225 256 C225 255.34 225 254.68 225 254 C224.21625 253.938125 223.4325 253.87625 222.625 253.8125 C221.75875 253.544375 220.8925 253.27625 220 253 C219.33333333 251.33333333 218.66666667 249.66666667 218 248 C215.48051222 247.26259783 215.48051222 247.26259783 213 247 C212.67 246.34 212.34 245.68 212 245 C211.21625 244.690625 210.4325 244.38125 209.625 244.0625 C207.02412163 243.00976352 205.72372195 242.177333 204 240 C204 239.34 204 238.68 204 238 C202.68 237.67 201.36 237.34 200 237 C200 236.34 200 235.68 200 235 C199.21625 234.938125 198.4325 234.87625 197.625 234.8125 C196.75875 234.544375 195.8925 234.27625 195 234 C194.33333333 232.33333333 193.66666667 230.66666667 193 229 C190.55936559 228.32852082 190.55936559 228.32852082 188 228 C186.1875 226.5625 186.1875 226.5625 185 225 C185 224.34 185 223.68 185 223 C183.68 222.67 182.36 222.34 181 222 C181 221.34 181 220.68 181 220 C178.03 219.01 178.03 219.01 175 218 C175 217.34 175 216.68 175 216 C174.01 215.67 173.02 215.34 172 215 C172 214.34 172 213.68 172 213 C170.68 212.67 169.36 212.34 168 212 C168 211.34 168 210.68 168 210 C167.01 209.67 166.02 209.34 165 209 C165 208.34 165 207.68 165 207 C163.7934375 206.814375 163.7934375 206.814375 162.5625 206.625 C161.716875 206.41875 160.87125 206.2125 160 206 C159.67 205.34 159.34 204.68 159 204 C158.01 203.67 157.02 203.34 156 203 C156 202.34 156 201.68 156 201 C155.01 200.67 154.02 200.34 153 200 C153 199.34 153 198.68 153 198 C151.824375 197.8453125 151.824375 197.8453125 150.625 197.6875 C148 197 148 197 146 194 C145.01 193.67 144.02 193.34 143 193 C143 192.34 143 191.68 143 191 C142.01 190.67 141.02 190.34 140 190 C140 189.34 140 188.68 140 188 C138.8553125 187.8453125 138.8553125 187.8453125 137.6875 187.6875 C134.81583516 186.95288806 133.76957906 186.3283935 132 184 C132 183.34 132 182.68 132 182 C130.68 181.67 129.36 181.34 128 181 C128 180.34 128 179.68 128 179 C127.21625 178.938125 126.4325 178.87625 125.625 178.8125 C124.325625 178.4103125 124.325625 178.4103125 123 178 C122.690625 177.195625 122.38125 176.39125 122.0625 175.5625 C121.20990208 172.65720566 121.20990208 172.65720566 117.875 171.6875 C116.451875 171.3471875 116.451875 171.3471875 115 171 C115 170.34 115 169.68 115 169 C113.8553125 168.8453125 113.8553125 168.8453125 112.6875 168.6875 C109.81583516 167.95288806 108.76957906 167.3283935 107 165 C107 164.34 107 163.68 107 163 C105.68 162.67 104.36 162.34 103 162 C103 161.34 103 160.68 103 160 C102.01 159.67 101.02 159.34 100 159 C100 158.34 100 157.68 100 157 C98.68 156.67 97.36 156.34 96 156 C96 155.34 96 154.68 96 154 C95.2575 153.938125 94.515 153.87625 93.75 153.8125 C90.16074558 152.75203847 89.26660905 150.90409284 87 148 C84.40084462 146.80972016 84.40084462 146.80972016 82 146 C81.67 145.34 81.34 144.68 81 144 C80.01 143.67 79.02 143.34 78 143 C78 142.34 78 141.68 78 141 C77.01 140.67 76.02 140.34 75 140 C75 139.34 75 138.68 75 138 C73.68 137.67 72.36 137.34 71 137 C71 136.34 71 135.68 71 135 C70.01 134.67 69.02 134.34 68 134 C68 133.34 68 132.68 68 132 C67.01 132 66.02 132 65 132 C65 214.5 65 297 65 382 C43.55 382 22.1 382 0 382 C0 255.94 0 129.88 0 0 Z " fill="#D80C37" transform="translate(4,6)"/>
<path d="M0 0 C51.15 0 102.3 0 155 0 C155 55.77 155 111.54 155 169 C153.68 168.67 152.36 168.34 151 168 C151 167.34 151 166.68 151 166 C147.7 165.67 144.4 165.34 141 165 C141 164.34 141 163.68 141 163 C139.02 162.67 137.04 162.34 135 162 C135 161.34 135 160.68 135 160 C133.02 159.67 131.04 159.34 129 159 C129 158.34 129 157.68 129 157 C126.69 156.67 124.38 156.34 122 156 C122 155.34 122 154.68 122 154 C120.02 153.67 118.04 153.34 116 153 C116 152.34 116 151.68 116 151 C114.35 150.67 112.7 150.34 111 150 C111 149.34 111 148.68 111 148 C110.1028125 147.7834375 110.1028125 147.7834375 109.1875 147.5625 C107.43849596 147.1127561 105.71322977 146.57107659 104 146 C104 145.34 104 144.68 104 144 C102.68 143.67 101.36 143.34 100 143 C100 142.34 100 141.68 100 141 C98.35 140.67 96.7 140.34 95 140 C95 139.34 95 138.68 95 138 C93.68 137.67 92.36 137.34 91 137 C91 136.34 91 135.68 91 135 C90.2575 134.938125 89.515 134.87625 88.75 134.8125 C85.16992409 133.7547503 84.19853008 131.93137344 82 129 C81.01 128.67 80.02 128.34 79 128 C78.38125 127.195625 77.7625 126.39125 77.125 125.5625 C75.22868295 122.86061852 75.22868295 122.86061852 72.5 122 C69.23564918 120.69425967 68.11152088 118.77137116 66 116 C65.175 115.34 64.35 114.68 63.5 114 C60.87044767 111.89635814 59.0470282 109.66113666 57 107 C56.443125 106.46375 55.88625 105.9275 55.3125 105.375 C54 104 54 104 53 101 C51.989375 100.175 50.97875 99.35 49.9375 98.5 C48.4834375 97.2625 48.4834375 97.2625 47 96 C47 95.01 47 94.02 47 93 C46.34 93 45.68 93 45 93 C41 88.64705882 41 88.64705882 41 85 C40.01 84.67 39.02 84.34 38 84 C38 83.34 38 82.68 38 82 C37.34 82 36.68 82 36 82 C35.67 81.01 35.34 80.02 35 79 C34.01 78.505 34.01 78.505 33 78 C32.375 75.4375 32.375 75.4375 32 73 C31.34 73 30.68 73 30 73 C29.34 70.69 28.68 68.38 28 66 C27.34 66 26.68 66 26 66 C25.67 64.02 25.34 62.04 25 60 C23.515 59.505 23.515 59.505 22 59 C22 58.01 22 57.02 22 56 C21.34 56 20.68 56 20 56 C19.67 54.02 19.34 52.04 19 50 C18.34 50 17.68 50 17 50 C16.67 48.02 16.34 46.04 16 44 C15.34 44 14.68 44 14 44 C13.67 41.69 13.34 39.38 13 37 C12.34 37 11.68 37 11 37 C10.67 34.36 10.34 31.72 10 29 C9.34 29 8.68 29 8 29 C7.67 26.36 7.34 23.72 7 21 C6.34 21 5.68 21 5 21 C3.86235649 16.73383684 3 13.43513689 3 9 C2.34 9 1.68 9 1 9 C0.67 6.03 0.34 3.06 0 0 Z " fill="#D80D37" transform="translate(244,6)"/>
<path d="M0 0 C2 0 2 0 3.625 1.375 C5 3 5 3 5 5 C5.928125 5.2165625 5.928125 5.2165625 6.875 5.4375 C9 6 9 6 11 7 C11 7.66 11 8.32 11 9 C12.32 9.33 13.64 9.66 15 10 C15 10.66 15 11.32 15 12 C16.32 12.33 17.64 12.66 19 13 C19 13.66 19 14.32 19 15 C19.99 15.33 20.98 15.66 22 16 C22 16.66 22 17.32 22 18 C22.804375 18.12375 23.60875 18.2475 24.4375 18.375 C25.7059375 18.684375 25.7059375 18.684375 27 19 C27.33 19.66 27.66 20.32 28 21 C28.99 21.33 29.98 21.66 31 22 C31 22.66 31 23.32 31 24 C31.99 24.33 32.98 24.66 34 25 C34 25.66 34 26.32 34 27 C34.763125 27.103125 35.52625 27.20625 36.3125 27.3125 C39.22091043 28.05651197 40.07329888 28.79805587 42 31 C42.66 31.33 43.32 31.66 44 32 C44 32.66 44 33.32 44 34 C44.99 34.33 45.98 34.66 47 35 C47 35.66 47 36.32 47 37 C48.2065625 37.185625 48.2065625 37.185625 49.4375 37.375 C50.283125 37.58125 51.12875 37.7875 52 38 C52.33 38.66 52.66 39.32 53 40 C53.99 40.33 54.98 40.66 56 41 C56 41.66 56 42.32 56 43 C56.99 43.33 57.98 43.66 59 44 C59 44.66 59 45.32 59 46 C60.2065625 46.185625 60.2065625 46.185625 61.4375 46.375 C62.283125 46.58125 63.12875 46.7875 64 47 C64.33 47.66 64.66 48.32 65 49 C66.485 49.495 66.485 49.495 68 50 C69.6875 51.4375 69.6875 51.4375 71 53 C71 53.66 71 54.32 71 55 C71.61875 55.144375 72.2375 55.28875 72.875 55.4375 C75 56 75 56 77 57 C77 57.66 77 58.32 77 59 C78.98 59.495 78.98 59.495 81 60 C81 60.66 81 61.32 81 62 C82.485 62.495 82.485 62.495 84 63 C84 63.66 84 64.32 84 65 C84.804375 65.12375 85.60875 65.2475 86.4375 65.375 C87.283125 65.58125 88.12875 65.7875 89 66 C89.33 66.66 89.66 67.32 90 68 C91.485 68.495 91.485 68.495 93 69 C94.6875 70.4375 94.6875 70.4375 96 72 C96 72.66 96 73.32 96 74 C97.98 74.495 97.98 74.495 100 75 C100 75.66 100 76.32 100 77 C101.98 77.66 103.96 78.32 106 79 C106 79.66 106 80.32 106 81 C106.763125 81.103125 107.52625 81.20625 108.3125 81.3125 C111.18416484 82.04711194 112.23042094 82.6716065 114 85 C114 85.66 114 86.32 114 87 C114.598125 87.103125 115.19625 87.20625 115.8125 87.3125 C118.31258286 88.09824033 119.37535082 88.96918853 121 91 C121 91.66 121 92.32 121 93 C122.98 93.495 122.98 93.495 125 94 C125 94.66 125 95.32 125 96 C125.763125 96.103125 126.52625 96.20625 127.3125 96.3125 C130.18416484 97.04711194 131.23042094 97.6716065 133 100 C133 100.66 133 101.32 133 102 C133.61875 102.144375 134.2375 102.28875 134.875 102.4375 C137 103 137 103 139 104 C139 104.66 139 105.32 139 106 C139.9590625 106.185625 139.9590625 106.185625 140.9375 106.375 C141.9584375 106.684375 141.9584375 106.684375 143 107 C143.33 107.66 143.66 108.32 144 109 C144.99 109.33 145.98 109.66 147 110 C147 110.66 147 111.32 147 112 C147.99 112.33 148.98 112.66 150 113 C150 113.66 150 114.32 150 115 C151.65 115.33 153.3 115.66 155 116 C155.33 116.99 155.66 117.98 156 119 C104.52 119 53.04 119 0 119 C0 79.73 0 40.46 0 0 Z " fill="#D80C37" transform="translate(133,269)"/>
<path d="M0 0 C4.62 0 9.24 0 14 0 C17.55338185 3.84949701 19.58161018 6.54949096 22 11 C23.16488784 12.85528474 24.33141789 14.70953994 25.5 16.5625 C28 20.71808511 28 20.71808511 28 23 C28.66 23 29.32 23 30 23 C31.49633789 24.88012695 31.49633789 24.88012695 33.22265625 27.48828125 C33.84333984 28.42220703 34.46402344 29.35613281 35.10351562 30.31835938 C35.74998047 31.30642578 36.39644531 32.29449219 37.0625 33.3125 C37.71283203 34.28896484 38.36316406 35.26542969 39.03320312 36.27148438 C43.85965402 43.57896205 43.85965402 43.57896205 45 47 C45.66 47 46.32 47 47 47 C47.31710937 47.63164062 47.63421875 48.26328125 47.9609375 48.9140625 C51.69696274 56.07649763 56.06952088 62.53047524 60.828125 69.03125 C62.26136625 70.99035675 63.65351972 72.98027958 65 75 C65.33 50.25 65.66 25.5 66 0 C69.96 0 73.92 0 78 0 C78 32.01 78 64.02 78 97 C64 97 64 97 60.125 93.25 C59.0475934 91.52177419 58.00880989 89.76914444 57 88 C55.59156856 85.91109045 54.17467489 83.82786518 52.75 81.75 C50.97897237 79.07220622 49.23572968 76.39670781 47.59570312 73.63671875 C44.82432355 69.05732778 41.76319647 64.6724997 38.75 60.25 C38.10675781 59.29867187 37.46351563 58.34734375 36.80078125 57.3671875 C33.20016105 52.07855018 29.49179907 46.95038857 25.46630859 41.97607422 C23.58462671 39.44022122 22.29137452 36.78016199 20.9765625 33.921875 C19.90946378 31.82182472 18.6498306 30.01750841 17.25 28.125 C15 25 15 25 15 23 C14.34 23 13.68 23 13 23 C13 47.75 13 72.5 13 98 C8.71 98 4.42 98 0 98 C0 65.66 0 33.32 0 0 Z " fill="#48484A" transform="translate(464,288)"/>
<path d="M0 0 C4.62 0 9.24 0 14 0 C17.46984341 3.81194065 19.54523318 6.64209936 22 11 C23.23191326 12.76277898 24.48112135 14.51363974 25.75 16.25 C28.0095003 19.43084993 29.96054653 22.697087 31.87548828 26.09521484 C33.93029058 29.57579833 36.255144 32.8712596 38.5625 36.1875 C39.04396484 36.88552734 39.52542969 37.58355469 40.02148438 38.30273438 C41.91195869 41.03573094 43.79796622 43.74048739 45.83984375 46.36328125 C47 48 47 48 47 50 C47.66 50 48.32 50 49 50 C50.11328125 51.43359375 50.11328125 51.43359375 51.3125 53.4375 C51.75078125 54.16453125 52.1890625 54.8915625 52.640625 55.640625 C53.98362134 57.97157267 55.27768401 60.32407305 56.5625 62.6875 C58.41852887 66.09413527 60.53998812 68.99331881 63 72 C63 72.66 63 73.32 63 74 C63.66 74 64.32 74 65 74 C65 49.58 65 25.16 65 0 C69.29 0 73.58 0 78 0 C78 32.01 78 64.02 78 97 C63 97 63 97 59.70703125 94.18359375 C58.67773438 92.36523438 58.67773438 92.36523438 57.8125 90.4375 C57.48443359 89.82841797 57.15636719 89.21933594 56.81835938 88.59179688 C56.16260358 87.36468949 55.52945234 86.12522385 54.91992188 84.87451172 C52.66611269 80.2819568 50.14775542 75.94704172 46.875 72 C43.55357251 67.8246979 40.53345454 63.48997001 37.5625 59.0625 C37.11310059 58.39927734 36.66370117 57.73605469 36.20068359 57.05273438 C33 52.24240106 33 52.24240106 33 50 C32.34 50 31.68 50 31 50 C29.92741755 48.33627837 28.94470191 46.61452323 28 44.875 C25.13439231 39.80275348 22.03187279 35.03733328 18.625 30.3125 C18.18414062 29.70067871 17.74328125 29.08885742 17.2890625 28.45849609 C15.28512336 25.61294061 15.28512336 25.61294061 13 23 C12.67 47.42 12.34 71.84 12 97 C8.04 97 4.08 97 0 97 C0 64.99 0 32.98 0 0 Z " fill="#464648" transform="translate(459,18)"/>
<path d="M0 0 C6.38623323 -0.07647595 12.77234702 -0.12877762 19.15893555 -0.16479492 C21.3285768 -0.17982036 23.49818798 -0.20024653 25.66772461 -0.22631836 C28.7980901 -0.26297706 31.9280517 -0.27978926 35.05859375 -0.29296875 C36.01833603 -0.30845261 36.97807831 -0.32393646 37.96690369 -0.33988953 C45.65277637 -0.34178197 53.88681172 0.96560965 60 6 C63.51737389 13.03474779 65.26335071 19.41937205 63.50390625 27.19140625 C61.58888865 32.89318182 58.46460676 36.18397397 53.625 39.75 C50.42949617 41.27166849 47.50480967 41.65639121 44 42 C44.70125 42.680625 45.4025 43.36125 46.125 44.0625 C48.7348915 46.66499804 51.11345585 49.42417281 53.47265625 52.25390625 C55.01028243 54.07324018 55.01028243 54.07324018 56.96484375 55.8203125 C59.41224663 58.44152326 60.85426877 61.12950619 62.5 64.3125 C63.09941406 65.4571875 63.69882812 66.601875 64.31640625 67.78125 C64.87199219 68.8434375 65.42757812 69.905625 66 71 C67.30819128 73.34940474 68.64839379 75.67523732 70 78 C65.52765289 78.60528006 61.453315 78.83010209 57 78 C53.7035828 75.21254488 51.99212175 71.78655202 50 68 C48.87085642 66.15634062 47.72488225 64.3228858 46.5625 62.5 C45.99015625 61.59378906 45.4178125 60.68757813 44.828125 59.75390625 C39.25522032 50.9065114 39.25522032 50.9065114 31 45 C28.78395837 44.63991339 28.78395837 44.63991339 26.453125 44.5859375 C25.69161133 44.55032715 24.93009766 44.5147168 24.14550781 44.47802734 C23.18999023 44.44402832 22.23447266 44.4100293 21.25 44.375 C18.1975 44.25125 15.145 44.1275 12 44 C12 55.55 12 67.1 12 79 C8.37 79 4.74 79 1 79 C-0.69668207 77.30331793 -0.11968993 75.18867982 -0.12442017 72.92559814 C-0.12082489 72.19983582 -0.11722961 71.47407349 -0.11352539 70.72631836 C-0.11367142 69.96539383 -0.11381744 69.2044693 -0.1139679 68.42048645 C-0.11326862 65.89357702 -0.10547555 63.36674038 -0.09765625 60.83984375 C-0.09579212 59.0924941 -0.0943682 57.34514393 -0.09336853 55.59779358 C-0.08954293 50.98968066 -0.07971229 46.38159905 -0.06866455 41.77349854 C-0.05845134 37.07491479 -0.0538711 32.37632601 -0.04882812 27.67773438 C-0.03809005 18.45180913 -0.02101313 9.22590716 0 0 Z " fill="#4D4D4E" transform="translate(718,37)"/>
<path d="M0 0 C6.44120913 -0.05081435 12.88236632 -0.08578161 19.32373047 -0.10986328 C21.51385429 -0.11990526 23.70396475 -0.13354147 25.89404297 -0.15087891 C29.04658306 -0.17520627 32.19894548 -0.18650131 35.3515625 -0.1953125 C36.32678864 -0.20563507 37.30201477 -0.21595764 38.30679321 -0.22659302 C46.06066948 -0.22786549 51.82081149 1.00406036 58 6 C62.3297124 11.13280421 64.32391523 16.27596661 64 23 C63.14483315 30.85762003 59.63944507 35.22998846 53.65234375 40.21484375 C50.06821071 42.62713948 47.25911858 43.44789204 43 44 C43.53367187 44.2475 44.06734375 44.495 44.6171875 44.75 C52.77891217 49.26860189 56.45330948 56.43965335 60.95996094 64.27441406 C62.05281485 66.15565899 62.05281485 66.15565899 63.7890625 68.3671875 C65 70 65 70 65 72 C65.66 72 66.32 72 67 72 C67.99 73.98 68.98 75.96 70 78 C65.22830746 78.52946178 60.75529499 78.75616113 56 78 C52.94103268 75.55045944 51.65929222 72.49564307 50 69 C48.87875232 67.15152799 47.73198188 65.31833915 46.5625 63.5 C45.97726562 62.5821875 45.39203125 61.664375 44.7890625 60.71875 C38.97425551 51.58178454 38.97425551 51.58178454 30 46 C26.70893763 45.52634834 23.44616046 45.4007103 20.125 45.3125 C17.11375 45.209375 14.1025 45.10625 11 45 C11 56.22 11 67.44 11 79 C7.7 79 4.4 79 1 79 C-0.69668207 77.30331793 -0.11968993 75.18867982 -0.12442017 72.92559814 C-0.12082489 72.19983582 -0.11722961 71.47407349 -0.11352539 70.72631836 C-0.11367142 69.96539383 -0.11381744 69.2044693 -0.1139679 68.42048645 C-0.11326862 65.89357702 -0.10547555 63.36674038 -0.09765625 60.83984375 C-0.09579212 59.0924941 -0.0943682 57.34514393 -0.09336853 55.59779358 C-0.08954293 50.98968066 -0.07971229 46.38159905 -0.06866455 41.77349854 C-0.05845134 37.07491479 -0.0538711 32.37632601 -0.04882812 27.67773438 C-0.03809005 18.45180913 -0.02101313 9.22590716 0 0 Z " fill="#4C4C4E" transform="translate(941,169)"/>
<path d="M0 0 C5.28 0 10.56 0 16 0 C18.35346948 6.57758642 20.70104042 13.15723883 23.04345703 19.73876953 C23.83908763 21.9717514 24.63625372 24.20418685 25.43505859 26.43603516 C37 58.75707916 37 58.75707916 37 65 C37.66 65 38.32 65 39 65 C39.10594482 64.45037598 39.21188965 63.90075195 39.32104492 63.33447266 C40.47047609 57.74370607 42.14783438 52.64628023 44.3125 47.375 C47.08457827 40.44732766 49.57422504 33.48992684 51.87890625 26.39453125 C52.89536817 23.31681206 53.98755937 20.28460576 55.125 17.25 C56.84708965 12.60663275 58.17002797 7.91597907 59.38671875 3.1171875 C60 1 60 1 61 0 C65.95 0 70.9 0 76 0 C76 26.07 76 52.14 76 79 C72.37 79 68.74 79 65 79 C64.67 58.87 64.34 38.74 64 18 C60.01576386 28.96316352 60.01576386 28.96316352 56.875 40 C55.72057081 44.74031101 54.20688035 48.66114646 52 53 C51.35362174 55.00773003 50.750295 57.02975641 50.1875 59.0625 C48.11215018 66.07185271 45.21969729 72.44254985 42 79 C39.03 79 36.06 79 33 79 C32.74831055 78.26475098 32.49662109 77.52950195 32.23730469 76.77197266 C31.07749211 73.38874303 29.91377176 70.00686967 28.75 66.625 C28.35425781 65.46871094 27.95851563 64.31242187 27.55078125 63.12109375 C25.49173127 57.14647331 23.33821897 51.24541715 20.95117188 45.39453125 C19.2880667 41.20774082 17.83912896 36.94707872 16.375 32.6875 C15.77969253 30.96187814 15.18336976 29.23660614 14.5859375 27.51171875 C14.3286084 26.76365967 14.0712793 26.01560059 13.80615234 25.24487305 C12.93086773 22.80748902 11.9618204 20.40455101 11 18 C10.67 38.13 10.34 58.26 10 79 C6.7 79 3.4 79 0 79 C0 52.93 0 26.86 0 0 Z " fill="#4A4A4C" transform="translate(1179,169)"/>
<path d="M0 0 C3.63 0 7.26 0 11 0 C15.46267256 12.27234955 17.89603853 25.10288778 20.20703125 37.921875 C21.18305122 43.13241819 22.44284405 48.27673342 23.73046875 53.41796875 C24.55081698 56.75704243 25 59.53266519 25 63 C25.66 63 26.32 63 27 63 C27.11174561 61.86570557 27.22349121 60.73141113 27.33862305 59.56274414 C27.92931663 54.86714558 29.17880208 50.50547322 30.58203125 45.99609375 C30.83748215 45.15514664 31.09293304 44.31419952 31.35612488 43.44776917 C32.16878274 40.77576126 32.99009026 38.10652083 33.8125 35.4375 C34.8850613 31.93727519 35.95369897 28.4358732 37.01953125 24.93359375 C37.27695099 24.08896576 37.53437073 23.24433777 37.79959106 22.37411499 C40.04462402 14.95824504 42.05551694 7.50014896 44 0 C48.62 0 53.24 0 58 0 C63.81722346 17.12849129 68.31791415 34.27871012 72.28564453 51.92724609 C73.14645831 55.62998097 74.07041908 59.31393622 75 63 C75.17095184 62.31397202 75.34190369 61.62794403 75.51803589 60.92112732 C77.13499627 54.4331887 78.75310978 47.94553889 80.37249565 41.45820522 C81.20485155 38.12357912 82.03677249 34.7888458 82.86767578 31.45385742 C83.82452618 27.61343968 84.78331098 23.77350613 85.7421875 19.93359375 C86.03809784 18.74479111 86.33400818 17.55598846 86.6388855 16.3311615 C88.00673292 10.85940299 89.3997226 5.40866287 91 0 C94.63 0 98.26 0 102 0 C101.70867187 0.99644531 101.41734375 1.99289063 101.1171875 3.01953125 C100.20045251 6.22649259 99.3858319 9.45130344 98.60498047 12.69433594 C97.25243995 18.31088772 95.80081971 23.79590613 93.875 29.25 C92.58432711 32.96377525 91.70853821 36.41871981 91.1875 40.3125 C89.98018153 48.65296611 87.17904709 56.59414645 84.65625 64.609375 C83.26728051 69.0421898 82.07100658 73.48035222 81 78 C77.04 78 73.08 78 69 78 C67.5240117 74.20460152 66.75548151 70.57082666 66.1875 66.5625 C65.20981808 60.30843948 63.29010212 54.52914986 61.22265625 48.578125 C59.92573212 44.78265374 58.83934369 40.97856624 57.8203125 37.1015625 C56.5021623 32.11769935 55.09978289 27.15723345 53.71289062 22.19213867 C53.40254883 21.07802612 53.40254883 21.07802612 53.0859375 19.94140625 C52.8082251 18.94669312 52.8082251 18.94669312 52.52490234 17.93188477 C51.98935012 15.9608035 51.48868363 13.98317205 51 12 C49.9845927 14.99545152 48.98760386 17.99534081 48 21 C47.67515625 21.96679688 47.3503125 22.93359375 47.015625 23.9296875 C45.09126105 29.86561015 43.61004696 35.72577298 42.5625 41.875 C41.40223097 48.63014621 39.54958226 54.8163023 37.2734375 61.29296875 C35.26952236 67.12645177 33.63966999 73.05505125 32 79 C28.04 79 24.08 79 20 79 C18.79462957 75.22317266 17.91532502 71.76255605 17.59765625 67.80859375 C17.0910836 62.98360004 15.85233888 58.60730217 14.375 54 C13.83119508 52.24675555 13.28963636 50.49281324 12.75 48.73828125 C12.46511719 47.81354004 12.18023438 46.88879883 11.88671875 45.93603516 C9.08946839 36.67399419 6.57118273 27.32677617 4 18 C3.76974121 17.16839355 3.53948242 16.33678711 3.30224609 15.47998047 C2.71750346 13.36293306 2.13838269 11.24447203 1.5625 9.125 C1.25441406 7.99320313 0.94632813 6.86140625 0.62890625 5.6953125 C0 3 0 3 0 0 Z " fill="#4C4C4E" transform="translate(1200,37)"/>
<path d="M0 0 C6.50166389 4.01257805 11.58170833 8.75627188 15.25 15.5 C16.03117188 16.90765625 16.03117188 16.90765625 16.828125 18.34375 C18 21 18 21 18 25 C12.06 26.485 12.06 26.485 6 28 C4.50260417 25.16796875 3.00520833 22.3359375 1.5078125 19.50390625 C0.24345886 16.89859558 0.24345886 16.89859558 -2 16 C-2 15.34 -2 14.68 -2 14 C-2.721875 13.731875 -3.44375 13.46375 -4.1875 13.1875 C-7 12 -7 12 -9.1328125 10.45703125 C-13.03905788 8.4719774 -16.36151254 8.46546028 -20.6875 8.5 C-21.88971191 8.50640503 -21.88971191 8.50640503 -23.11621094 8.51293945 C-29.71253687 8.70195932 -34.57951278 10.12210203 -40 14 C-40.59039062 14.38414062 -41.18078125 14.76828125 -41.7890625 15.1640625 C-48.75935362 20.21151469 -50.77183975 28.33617518 -52.45703125 36.37109375 C-54.46454164 49.78819556 -53.29869758 62.69033392 -45.4765625 74.18359375 C-40.7401164 80.01017427 -36.41101377 83.34880133 -29 85 C-20.91937811 85.77541321 -12.79449001 86.2950987 -5.8203125 81.53515625 C0.68409078 76.04968309 3.79931817 69.83175686 7 62 C11.71403788 62.47939368 15.66579301 62.96834048 20 65 C18.85665727 72.75420902 14.57472984 82.220643 8.6875 87.5625 C-0.63256649 94.36929013 -10.43906217 97.35562194 -21.875 97.3125 C-22.72191406 97.32861328 -23.56882812 97.34472656 -24.44140625 97.36132812 C-35.12818124 97.36951095 -46.32978947 93.35576236 -54.18359375 85.9375 C-57.98010919 81.64372786 -60.94177746 77.69733931 -62.5 72.125 C-63.276365 69.4194856 -64.05835555 66.85735309 -65.125 64.25 C-70.01359844 51.67931829 -67.8398857 33.41791557 -62.8125 21.3125 C-57.51942274 10.44776247 -48.18930097 2.46759748 -37 -2 C-25.26587902 -5.97815321 -11.140241 -5.55308649 0 0 Z " fill="#49494B" transform="translate(519,152)"/>
<path d="M0 0 C7.8948834 -0.42861889 14.74651598 2.08520564 20.91796875 7.00390625 C26.98017383 12.68098301 29.70890149 19.857209 30.34375 28.09375 C30.36282691 29.43867247 30.36642215 30.78389309 30.35546875 32.12890625 C30.34918457 33.18440674 30.34918457 33.18440674 30.34277344 34.26123047 C30.15307998 42.96493137 27.40338347 49.75629492 21.21875 56.046875 C14.32864279 62.41202166 8.53233898 63.60409481 -0.76171875 63.4453125 C-7.15292471 62.93745384 -12.36481147 60.78362603 -16.95703125 56.19140625 C-18.53300668 53.8274431 -19.76721488 51.73374891 -20.95703125 49.19140625 C-21.25867187 48.5675 -21.5603125 47.94359375 -21.87109375 47.30078125 C-25.60775569 38.15119781 -25.3850581 25.68762655 -22.0625 16.4375 C-18.60154284 9.4055199 -14.121431 4.37558392 -6.95703125 1.19140625 C-4.60061503 0.44727481 -2.44692303 0.23931982 0 0 Z " fill="#FDFDFD" transform="translate(1113.95703125,43.80859375)"/>
<path d="M0 0 C6.92833532 3.96221093 12.92085787 10.1083131 15.1796875 17.95703125 C16.50947592 27.87616734 17.66253414 40.06957819 12.1796875 48.8359375 C7.63009417 54.39655157 2.58612171 58.85509723 -4.4375 60.8125 C-13.41001187 61.50961245 -21.27066942 61.05586167 -28.6953125 55.578125 C-32.24418713 51.98150766 -34.27171313 47.32576726 -36.4375 42.8125 C-36.7675 42.1525 -37.0975 41.4925 -37.4375 40.8125 C-37.7044321 37.63155908 -37.66914839 34.44088646 -37.6875 31.25 C-37.708125 30.38052734 -37.72875 29.51105469 -37.75 28.61523438 C-37.80344328 19.65680455 -35.52055007 10.65593132 -29.4375 3.8125 C-20.55559165 -2.48927652 -10.16242613 -4.86758849 0 0 Z " fill="#FDFDFD" transform="translate(883.4375,46.1875)"/>
<path d="M0 0 C11 0 11 0 13.48291016 1.82910156 C14.25320557 3.09705566 14.25320557 3.09705566 15.0390625 4.390625 C15.93274536 5.78837158 15.93274536 5.78837158 16.84448242 7.21435547 C17.43205322 8.21611816 18.01962402 9.21788086 18.625 10.25 C19.90279522 12.28000246 21.18273016 14.30865969 22.46484375 16.3359375 C23.06925293 17.3165918 23.67366211 18.29724609 24.29638672 19.30761719 C26.42002862 22.66381135 28.73716646 25.75052198 31.1875 28.875 C34.42547752 33.09105329 36.76541746 37.187053 39 42 C39.98866506 43.34175973 40.9838154 44.67896002 42 46 C42 46.66 42 47.32 42 48 C42.66 48 43.32 48 44 48 C46.31 51.3 48.62 54.6 51 58 C51.33 38.86 51.66 19.72 52 0 C55.3 0 58.6 0 62 0 C62 26.07 62 52.14 62 79 C52 79 52 79 49.375 76.625 C48 74 48 74 48 72 C47.34 72 46.68 72 46 72 C44.81079102 70.53466797 44.81079102 70.53466797 43.50390625 68.4921875 C43.02759766 67.75226563 42.55128906 67.01234375 42.06054688 66.25 C41.56619141 65.46625 41.07183594 64.6825 40.5625 63.875 C40.07201172 63.11445313 39.58152344 62.35390625 39.07617188 61.5703125 C37.00518636 58.3282839 35.0788624 55.16312369 33.40234375 51.6953125 C32.15618638 48.96588473 32.15618638 48.96588473 30.1237793 47.13867188 C27.92493738 44.92441102 26.32218799 42.69536844 24.6171875 40.0859375 C24.00746094 39.16039062 23.39773438 38.23484375 22.76953125 37.28125 C22.14433594 36.3221875 21.51914062 35.363125 20.875 34.375 C19.62445376 32.46479699 18.37194265 30.55587844 17.1171875 28.6484375 C16.56659668 27.80458496 16.01600586 26.96073242 15.44873047 26.09130859 C14.03138277 23.9123169 14.03138277 23.9123169 12 22 C11.67 40.81 11.34 59.62 11 79 C7.37 79 3.74 79 0 79 C0 52.93 0 26.86 0 0 Z " fill="#4B4B4D" transform="translate(715,169)"/>
<path d="M0 0 C3.96 0 7.92 0 12 0 C12.7734375 1.81242187 13.546875 3.62484375 14.34375 5.4921875 C15.39554245 7.95324988 16.44761784 10.41418986 17.5 12.875 C17.90833572 13.83039169 17.90833572 13.83039169 18.32492065 14.80508423 C21.96498399 23.31763521 25.63457488 31.81468797 29.5 40.22802734 C30.99751646 43.53337895 32.30607513 46.81911188 33.421875 50.2734375 C35.53702583 56.81799599 38.29067763 63.10461687 40.94726562 69.44335938 C41.33978516 70.38888672 41.73230469 71.33441406 42.13671875 72.30859375 C42.49467529 73.16251709 42.85263184 74.01644043 43.22143555 74.89624023 C44 77 44 77 44 79 C40.04 79 36.08 79 32 79 C31.43410156 77.50726563 30.86820313 76.01453125 30.28515625 74.4765625 C29.54432554 72.52602089 28.80343714 70.57550119 28.0625 68.625 C27.68931641 67.64015625 27.31613281 66.6553125 26.93164062 65.640625 C26.57392578 64.69960937 26.21621094 63.75859375 25.84765625 62.7890625 C25.3527771 61.48509521 25.3527771 61.48509521 24.84790039 60.15478516 C24.03613248 57.99839517 24.03613248 57.99839517 23 56 C11.78 55.67 0.56 55.34 -11 55 C-11.99 58.3 -12.98 61.6 -14 65 C-14.350625 65.86625 -14.70125 66.7325 -15.0625 67.625 C-16.39824874 71.00889682 -17.16027128 74.46114326 -18 78 C-21.96 78 -25.92 78 -30 78 C-27.96986742 70.81994644 -25.47687757 64.05015522 -22.5625 57.1875 C-20.09740706 51.28806096 -17.69439142 45.4695339 -15.9375 39.3125 C-13.66110489 31.37110338 -10.28618798 23.88488176 -7.00488281 16.31835938 C-6.04583619 14.10574841 -5.09528325 11.88973037 -4.1484375 9.671875 C-2.77101094 6.44558832 -1.38758631 3.22193335 0 0 Z " fill="#49494B" transform="translate(627,37)"/>
<path d="M0 0 C29.58590481 0 29.58590481 0 37.16796875 6.9296875 C44.2318671 14.91234449 44.45256033 24.88884956 44 35 C43.16188247 42.77054677 40.14714414 49.67801451 34.75 55.375 C23.07697561 62.27269623 14.32086081 60 0 60 C0 40.2 0 20.4 0 0 Z " fill="#FDFDFD" transform="translate(974,46)"/>
<path d="M0 0 C1.51400391 0.01740234 1.51400391 0.01740234 3.05859375 0.03515625 C4.07050781 0.04417969 5.08242188 0.05320312 6.125 0.0625 C6.90746094 0.07410156 7.68992187 0.08570313 8.49609375 0.09765625 C12.54114541 7.8004674 15.97645061 15.54254926 19.1015625 23.65234375 C20.41572663 26.89910219 21.92734051 29.96881691 23.49609375 33.09765625 C24.01136827 34.50159261 24.49436108 35.91810394 24.93359375 37.34765625 C27.47182326 45.21222231 30.74500865 52.70806571 34.19140625 60.2109375 C40.49609375 74.1605305 40.49609375 74.1605305 40.49609375 77.09765625 C36.53609375 77.09765625 32.57609375 77.09765625 28.49609375 77.09765625 C24.3717581 69.28312554 22.22649741 62.74967457 20.49609375 54.09765625 C9.27609375 54.42765625 -1.94390625 54.75765625 -13.50390625 55.09765625 C-16.14390625 62.35765625 -18.78390625 69.61765625 -21.50390625 77.09765625 C-25.13390625 77.09765625 -28.76390625 77.09765625 -32.50390625 77.09765625 C-32.11203125 75.94265625 -31.72015625 74.78765625 -31.31640625 73.59765625 C-30.06509847 69.86723165 -28.89959463 66.11633987 -27.75854492 62.35083008 C-25.74451725 55.74335117 -23.50224216 49.37037574 -20.75390625 43.0234375 C-19.42313829 39.90860874 -18.20594282 36.76427134 -17.00390625 33.59765625 C-14.62897556 27.37548581 -12.10422983 21.22862446 -9.50390625 15.09765625 C-9.11404541 14.17243164 -9.11404541 14.17243164 -8.71630859 13.22851562 C-7.89834525 11.28784801 -7.07669155 9.34878384 -6.25390625 7.41015625 C-5.75375 6.23066406 -5.25359375 5.05117188 -4.73828125 3.8359375 C-3.06295038 0.11945984 -3.06295038 0.11945984 0 0 Z " fill="#49494B" transform="translate(635.50390625,307.90234375)"/>
<path d="M0 0 C46.26086957 0 46.26086957 0 56 8 C64.27795352 16.62286825 65.33973594 29.03773864 65.3828125 40.44360352 C65.14344321 51.40347557 62.4246871 63.38778265 54.37890625 71.265625 C38.54989253 82.80598968 18.60764922 79 0 79 C0 52.93 0 26.86 0 0 Z M11 9 C11 28.8 11 48.6 11 69 C31.29808063 70.45660269 31.29808063 70.45660269 47.9375 62.3125 C54.50501151 51.76467848 57.01410212 40.34252189 54.3515625 27.9921875 C51.85891655 20.34381234 47.71735528 14.47823686 41 10 C31.18874709 8.03774942 21.00555401 9 11 9 Z " fill="#4A4A4C" transform="translate(963,37)"/>
<path d="M0 0 C0.77472656 0.31582031 1.54945313 0.63164063 2.34765625 0.95703125 C10.52755042 4.60316104 13.5700772 11.59536743 17.09765625 19.44140625 C21.09628138 30.4329758 20.28283255 44.58861904 15.58984375 55.18359375 C11.13787552 64.11795369 6.44016703 70.27320557 -2.75 74.4375 C-8.19106696 76.20794535 -13.51451236 76.38404979 -19.1875 76.4375 C-20.03086914 76.44773193 -20.87423828 76.45796387 -21.74316406 76.46850586 C-31.7554996 76.32797151 -38.70003076 72.75822756 -46 66 C-55.16692055 56.0200488 -57.3945866 45.222407 -57.27734375 31.9609375 C-56.54568942 21.51167714 -53.03835581 12.81934808 -45.4921875 5.546875 C-32.8768922 -5.41720364 -14.98108514 -8.27395712 0 0 Z M-36.75 10.1875 C-45.60462399 21.25577998 -46.38789333 33.23624458 -45 47 C-43.88119843 50.84867742 -42.3675063 53.7864684 -40 57 C-39.360625 57.94875 -38.72125 58.8975 -38.0625 59.875 C-32.26282075 65.85042711 -26.86935286 67.11984997 -18.8125 67.375 C-11.34111663 67.29893388 -5.79977692 65.38122698 -0.19140625 60.390625 C6.24859677 53.38852695 8.66003234 46.4878212 8.4375 37.0625 C8.44458984 36.22009766 8.45167969 35.37769531 8.45898438 34.50976562 C8.37197032 25.81505377 6.19351174 17.38457123 0 11 C-11.54675679 2.17012716 -25.05032181 0.8809378 -36.75 10.1875 Z " fill="#4A4A4C" transform="translate(891,40)"/>
<path d="M0 0 C1.07121094 0.5259375 1.07121094 0.5259375 2.1640625 1.0625 C9.81196361 5.18721071 13.44893418 11.8425515 16.375 19.8125 C19.63290858 31.52447517 20.09722151 45.42631639 14.54296875 56.45703125 C8.90721889 65.74531772 2.42615434 72.3302587 -8 76 C-11.76305348 76.42839698 -15.5273308 76.37021168 -19.3125 76.375 C-20.31990234 76.39949219 -21.32730469 76.42398438 -22.36523438 76.44921875 C-33.11464217 76.49123598 -39.01065354 72.59336862 -46.734375 65.3671875 C-49.78640784 62.1783394 -52.02480315 58.93426965 -54 55 C-54.30550781 54.3915625 -54.61101562 53.783125 -54.92578125 53.15625 C-60.04811389 42.08618515 -58.75333202 29.30201097 -55 18 C-51.32961802 10.24790012 -46.65443054 4.10725541 -39 0 C-38.01 -0.53625 -37.02 -1.0725 -36 -1.625 C-25.41610908 -6.47595001 -10.01094498 -5.65674215 0 0 Z M-39 12 C-46.50286636 21.71204368 -46.76683308 32.1979597 -46 44 C-45.40569511 47.2733199 -44.47528252 50.02564008 -43 53 C-42.6596875 53.70640625 -42.319375 54.4128125 -41.96875 55.140625 C-38.81565817 60.89288712 -34.41030266 64.55460669 -28.140625 66.609375 C-19.70557288 68.14861809 -11.24811872 67.8415168 -4 63 C2.5036433 57.63957525 5.96620713 52.20212764 8 44 C9.02874031 32.37284205 8.30035737 21.97884958 0.75 12.5625 C-4.07736929 7.4963576 -10.0618877 4.49097866 -17.04296875 3.796875 C-25.76214615 3.60629189 -32.77655448 5.63511254 -39 12 Z " fill="#4A4A4C" transform="translate(1136,40)"/>
<path d="M0 0 C19.14 0 38.28 0 58 0 C58 2.97 58 5.94 58 9 C42.49 9 26.98 9 11 9 C11 16.92 11 24.84 11 33 C25.19 33 39.38 33 54 33 C54 35.97 54 38.94 54 42 C39.81 42 25.62 42 11 42 C11 50.91 11 59.82 11 69 C26.84 69 42.68 69 59 69 C59 72.3 59 75.6 59 79 C39.53 79 20.06 79 0 79 C0 52.93 0 26.86 0 0 Z " fill="#49494B" transform="translate(1351,37)"/>
<path d="M0 0 C18.81 0 37.62 0 57 0 C57 3.3 57 6.6 57 10 C41.49 10 25.98 10 10 10 C10 17.92 10 25.84 10 34 C24.19 34 38.38 34 53 34 C53 36.97 53 39.94 53 43 C38.81 43 24.62 43 10 43 C10 51.91 10 60.82 10 70 C25.84 70 41.68 70 58 70 C58 72.97 58 75.94 58 79 C38.86 79 19.72 79 0 79 C0 52.93 0 26.86 0 0 Z " fill="#49494B" transform="translate(603,169)"/>
<path d="M0 0 C3.63 0 7.26 0 11 0 C11.33 11.88 11.66 23.76 12 36 C16.455 31.545 16.455 31.545 21 27 C22.36125 25.989375 23.7225 24.97875 25.125 23.9375 C30.62382 19.83767308 35.08673339 14.74168984 39.68408203 9.68530273 C48.36003616 0.18041406 48.36003616 0.18041406 53.55078125 -0.390625 C54.79214844 -0.34421875 56.03351562 -0.2978125 57.3125 -0.25 C59.19388672 -0.19585937 59.19388672 -0.19585937 61.11328125 -0.140625 C62.54220703 -0.07101562 62.54220703 -0.07101562 64 0 C63.34 0.99 62.68 1.98 62 3 C61.34 3 60.68 3 60 3 C59.74565186 3.58483154 59.49130371 4.16966309 59.22924805 4.7722168 C57.86834964 7.23859177 56.40119308 8.74025298 54.33203125 10.64453125 C53.60306641 11.32193359 52.87410156 11.99933594 52.12304688 12.69726562 C51.36056641 13.39529297 50.59808594 14.09332031 49.8125 14.8125 C48.31800923 16.19292729 46.82450969 17.57442853 45.33203125 18.95703125 C44.24269287 19.9617749 44.24269287 19.9617749 43.13134766 20.98681641 C40.47437903 23.49648001 37.93360031 26.10701998 35.41674805 28.7565918 C34 30 34 30 32 30 C35.91781732 36.37091875 39.95948394 42.44306509 44.71484375 48.22265625 C46 50 46 50 46 52 C46.66 52 47.32 52 48 52 C49.26513672 53.35766602 49.26513672 53.35766602 50.6796875 55.25390625 C51.45505859 56.2893457 51.45505859 56.2893457 52.24609375 57.34570312 C52.78363281 58.07724609 53.32117188 58.80878906 53.875 59.5625 C54.40480469 60.26697266 54.93460938 60.97144531 55.48046875 61.69726562 C59.113861 66.58837058 62.27129614 71.54259229 65 77 C62.93933896 77.1357683 60.87607243 77.23233903 58.8125 77.3125 C57.66394531 77.37050781 56.51539063 77.42851562 55.33203125 77.48828125 C50.31068746 76.75244541 48.56716265 74.0657929 45.59887695 70.15307617 C44.1077577 68.10724958 42.67364588 66.03075829 41.25 63.9375 C40.50943359 62.87692383 40.50943359 62.87692383 39.75390625 61.79492188 C39.28339844 61.10849609 38.81289063 60.42207031 38.328125 59.71484375 C37.9043457 59.09730225 37.48056641 58.47976074 37.04394531 57.84350586 C35.94620321 55.90500011 35.4362821 54.17570159 35 52 C34.34 52 33.68 52 33 52 C31.55473264 50.26451831 30.1912778 48.46024037 28.875 46.625 C28.15054688 45.62726563 27.42609375 44.62953125 26.6796875 43.6015625 C25 41 25 41 25 39 C23.76878615 40.06012706 22.54014315 41.12324005 21.3125 42.1875 C20.62800781 42.77917969 19.94351563 43.37085938 19.23828125 43.98046875 C18.49964844 44.64691406 17.76101563 45.31335938 17 46 C15.65421875 46.928125 15.65421875 46.928125 14.28125 47.875 C10.53971784 53.00038651 11.2162762 58.63201081 11.1875 64.8125 C11.16236328 66.07771484 11.13722656 67.34292969 11.11132812 68.64648438 C11.05249509 71.76463543 11.01618494 74.88138367 11 78 C9.35425434 78.02688151 7.70838587 78.04634123 6.0625 78.0625 C5.14597656 78.07410156 4.22945312 78.08570313 3.28515625 78.09765625 C1 78 1 78 0 77 C-0.09496708 74.59651714 -0.12558862 72.22189018 -0.11352539 69.81811523 C-0.11367142 69.06694427 -0.11381744 68.31577332 -0.1139679 67.5418396 C-0.11326863 65.04739541 -0.10547564 62.55302497 -0.09765625 60.05859375 C-0.09579212 58.33366436 -0.09436819 56.60873443 -0.09336853 54.88380432 C-0.08954297 50.33487497 -0.07971238 45.78597733 -0.06866455 41.23706055 C-0.05845124 36.59879994 -0.05387108 31.96053423 -0.04882812 27.32226562 C-0.03809014 18.21482978 -0.02101327 9.10741752 0 0 Z " fill="#4C4C4E" transform="translate(842,308)"/>
<path d="M0 0 C3.63 0 7.26 0 11 0 C11.0093457 1.68480469 11.01869141 3.36960938 11.02832031 5.10546875 C11.06396776 10.69757293 11.11784124 16.28930696 11.18390274 21.88113403 C11.22326475 25.26859356 11.25550766 28.65579755 11.27099609 32.04345703 C11.29247832 35.94606166 11.33916004 39.84768949 11.390625 43.75 C11.39185364 44.95551514 11.39308228 46.16103027 11.39434814 47.40307617 C11.5149503 54.37903026 12.17692914 59.09808018 16 65 C22.92003395 70.50778212 29.41590918 70.73983309 38 70 C42.74044498 68.585926 46.57571212 66.44452778 49 62 C50.73012219 58.26693427 51.26423631 55.30490371 51.31884766 51.19995117 C51.33871735 50.05914597 51.35858704 48.91834076 51.37905884 47.7429657 C51.39061005 46.52196671 51.40216125 45.30096771 51.4140625 44.04296875 C51.43342865 42.78486893 51.4527948 41.5267691 51.4727478 40.23054504 C51.52233077 36.89825681 51.56363098 33.56607669 51.60089111 30.23364258 C51.64101624 26.82818761 51.6920696 23.4228981 51.7421875 20.01757812 C51.83817501 13.34514966 51.92223075 6.67266467 52 0 C55.63 0 59.26 0 63 0 C63.09957408 7.45235387 63.17180125 14.90431241 63.21972656 22.35717773 C63.23972544 24.88751988 63.26693353 27.41781651 63.30175781 29.94799805 C63.3507936 33.60476989 63.3730871 37.26092577 63.390625 40.91796875 C63.41127014 42.03205612 63.43191528 43.14614349 63.45318604 44.29399109 C63.45587623 53.91182764 61.88598679 65.76088568 55 73 C44.32809238 79.97143192 33.64979219 81.63840054 21.078125 79.50390625 C18.61712049 78.82751215 16.34543752 78.00281958 14 77 C13.27039062 76.72929687 12.54078125 76.45859375 11.7890625 76.1796875 C6.55793046 73.70997089 5.04965678 70.47896813 3.0625 65.125 C0.21520832 56.34182907 -0.14142451 48.3138722 -0.09765625 39.16015625 C-0.0962413 38.03806259 -0.09482635 36.91596893 -0.09336853 35.75987244 C-0.087794 32.19405392 -0.07524616 28.62829938 -0.0625 25.0625 C-0.05748171 22.6373707 -0.05291938 20.21224041 -0.04882812 17.78710938 C-0.03783291 11.85804846 -0.02058583 5.92903506 0 0 Z " fill="#515153" transform="translate(1060,169)"/>
<path d="M0 0 C3.3 0 6.6 0 10 0 C10.01458252 1.52286621 10.02916504 3.04573242 10.04418945 4.61474609 C10.10244099 10.29922211 10.17967204 15.9833131 10.26245117 21.66748047 C10.29557451 24.12119264 10.32364506 26.5749787 10.34643555 29.02880859 C10.38021329 32.56900328 10.43254167 36.10852849 10.48828125 39.6484375 C10.49467117 40.73426117 10.5010611 41.82008484 10.50764465 42.93881226 C10.71657173 54.21985165 10.71657173 54.21985165 15.74409485 63.97323608 C21.37566823 69.07035443 26.26307876 69.28933162 33.6953125 69.21484375 C39.26007111 68.85306866 43.22563906 67.68097352 47.375 63.75 C51.54756594 56.68873457 51.33338229 49.50162189 51.4140625 41.50390625 C51.43342865 40.31522446 51.4527948 39.12654266 51.4727478 37.90184021 C51.53231089 34.1221321 51.5788363 30.34239316 51.625 26.5625 C51.66320114 23.99282559 51.70225411 21.4231637 51.7421875 18.85351562 C51.83799351 12.56911258 51.92211075 6.28464961 52 0 C55.3 0 58.6 0 62 0 C62.04960663 7.66804064 62.08581761 15.3359869 62.10986328 23.00415039 C62.11989248 25.61028675 62.13351911 28.21641193 62.15087891 30.82250977 C62.1752626 34.57831589 62.18651424 38.33397263 62.1953125 42.08984375 C62.20563507 43.24645004 62.21595764 44.40305634 62.22659302 45.5947113 C62.22772589 53.8475069 62.04073808 61.92165028 57.125 68.875 C56.63257813 69.59429687 56.14015625 70.31359375 55.6328125 71.0546875 C50.41570354 77.27028621 43.23444802 78.60998505 35.4375 79.328125 C26.32318748 79.59395912 15.22126408 79.38663822 7.8984375 73.234375 C1.98621786 65.83681939 -0.13582391 56.77439311 -0.11352539 47.45361328 C-0.11344986 46.39296661 -0.11337433 45.33231995 -0.11329651 44.23953247 C-0.10813522 43.11118988 -0.10297394 41.98284729 -0.09765625 40.8203125 C-0.09553383 39.06846146 -0.09553383 39.06846146 -0.09336853 37.28121948 C-0.08778498 33.56245326 -0.07523544 29.84374793 -0.0625 26.125 C-0.05748288 23.5989592 -0.05292034 21.07291746 -0.04882812 18.546875 C-0.03782093 12.36455998 -0.02056755 6.18229031 0 0 Z " fill="#49494B" transform="translate(724,308)"/>
<path d="M0 0 C21.12 0 42.24 0 64 0 C64 3.3 64 6.6 64 10 C55.09 10 46.18 10 37 10 C37 32.77 37 55.54 37 79 C33.37 79 29.74 79 26 79 C26 56.23 26 33.46 26 10 C17.42 10 8.84 10 0 10 C0 6.7 0 3.4 0 0 Z " fill="#4B4B4D" transform="translate(828,169)"/>
<path d="M0 0 C4.14492657 -0.06921028 8.28781539 -0.12883443 12.43286133 -0.16479492 C13.84015734 -0.17979877 15.24740724 -0.20020863 16.65454102 -0.22631836 C18.68777907 -0.26307665 20.72039432 -0.27980984 22.75390625 -0.29296875 C23.97408447 -0.3086792 25.1942627 -0.32438965 26.45141602 -0.34057617 C31.45072937 0.13923409 35.14849591 1.86061287 39.4375 4.5 C42.07516424 8.72026278 41.68758266 13.17975909 41 18 C38.85864258 22.28271484 36.08030489 23.78225345 31.63476562 25.38916016 C25.86839053 26.72602732 19.88303933 26.29985971 14 26.1875 C12.63933774 26.17242476 11.27865931 26.15874138 9.91796875 26.14648438 C6.61180568 26.11131243 3.30584993 26.05751156 0 26 C0 17.42 0 8.84 0 0 Z " fill="#FBFBFB" transform="translate(952,178)"/>
<path d="M0 0 C4.00229288 -0.06922608 8.00304204 -0.12884797 12.00561523 -0.16479492 C13.36441117 -0.17979409 14.72315941 -0.20020038 16.08178711 -0.22631836 C31.94276978 -0.52338414 31.94276978 -0.52338414 38.375 5.0625 C41.10069746 8.31237005 41.30271942 10.73008301 41.1953125 14.97265625 C40.88319101 18.2124773 40.25800098 19.60917543 38 22 C30.0945232 26.56432513 22.27812379 26.48839466 13.375 26.25 C11.43947266 26.22292969 11.43947266 26.22292969 9.46484375 26.1953125 C6.30957041 26.14856771 3.15468392 26.07683939 0 26 C0 17.42 0 8.84 0 0 Z " fill="#FBFBFB" transform="translate(730,45)"/>
<path d="M0 0 C3.3 0 6.6 0 10 0 C10 25.41 10 50.82 10 77 C6.7 77 3.4 77 0 77 C0 51.59 0 26.18 0 0 Z " fill="#464648" transform="translate(958,308)"/>
<path d="M0 0 C2.8865616 1.4432808 3.06464583 3.60771087 4.05566406 6.52392578 C4.30541992 7.27915527 4.55517578 8.03438477 4.8125 8.8125 C6.94796197 15.08854637 9.25054018 21.21622801 11.921875 27.2890625 C13.1767336 30.44439537 14.06712877 33.7349507 15 37 C6.42 37 -2.16 37 -11 37 C-8.80024361 27.10109622 -8.80024361 27.10109622 -6.625 23 C-3.11389237 15.69647938 -1.65464202 7.88497006 0 0 Z " fill="#F9F9FA" transform="translate(637,317)"/>
<path d="M0 0 C0.33 0 0.66 0 1 0 C1.12375 0.63421875 1.2475 1.2684375 1.375 1.921875 C3.1625321 10.01045774 6.03089163 17.42472809 9.21875 25.05566406 C9.56164062 25.88163086 9.90453125 26.70759766 10.2578125 27.55859375 C10.72405029 28.66158813 10.72405029 28.66158813 11.19970703 29.78686523 C12 32 12 32 13 37 C4.42 37 -4.16 37 -13 37 C-11.03924558 30.46415192 -9.03122796 24.23240971 -6.5 17.9375 C-4.13118282 12.01545705 -1.956731 6.07177931 0 0 Z " fill="#F9F9F9" transform="translate(633,46)"/>
</svg>
