<?xml version="1.0" encoding="UTF-8"?>
<svg version="1.1" xmlns="http://www.w3.org/2000/svg" width="778" height="1079">
<path d="M0 0 C0.88945312 0.43699219 1.77890625 0.87398437 2.6953125 1.32421875 C15.72327007 8.08668719 25.60419417 17.48306272 34.6875 28.9375 C35.11458252 29.47375 35.54166504 30.01 35.98168945 30.5625 C55.05741784 55.18667122 68.53069589 85.15444036 79.30761719 114.18212891 C80.33659138 116.8837304 81.48169291 119.53264274 82.625 122.1875 C84.9759243 127.74493089 86.85927896 133.42043853 88.69140625 139.1640625 C89.63978212 142.05231546 90.7366985 144.85184427 91.890625 147.6640625 C94.29305145 153.59801655 96.24947876 159.65116228 98.1875 165.75 C98.57405762 166.96010742 98.96061523 168.17021484 99.35888672 169.41699219 C103.74496189 183.2261233 107.89446977 197.10509503 112 211 C112.32774414 212.10456543 112.65548828 213.20913086 112.99316406 214.34716797 C114.76274337 220.31564136 116.5076887 226.2902893 118.21679688 232.27636719 C118.73656801 234.08390049 119.26385209 235.88929121 119.79882812 237.69238281 C122.98847382 248.44844367 125.54532554 257.36402339 121.875 268.375 C118.81237546 272.66267436 114.98363009 275.33878997 110 277 C104.27921225 277.46591195 98.91144272 277.79933059 93.5625 275.5625 C85.40256168 267.40256168 83.43142388 258.9101802 81.078125 247.86328125 C80.28036124 244.1318056 79.25724057 240.60691489 78 237 C76.98922408 233.61320131 76.02728789 230.21264551 75.0625 226.8125 C74.79526123 225.87575439 74.52802246 224.93900879 74.25268555 223.97387695 C72.68951557 218.48058742 71.15762489 212.98176232 69.73828125 207.44921875 C69.13001524 205.43132039 68.40599304 203.44869487 67.65234375 201.48046875 C65.54846676 195.95658493 63.93995529 190.28589528 62.25 184.625 C59.41748266 175.27035938 56.28400456 166.16043322 52.625 157.1015625 C51.31977364 153.86126218 50.15329318 150.59636912 49.0402832 147.28588867 C41.98358991 126.35405313 32.90196392 105.72790509 23 86 C22.66162109 85.32066406 22.32324219 84.64132813 21.97460938 83.94140625 C18.15005382 76.32154605 14.0009956 69.23111681 8.8046875 62.4375 C7.15545265 60.20996202 5.7941164 57.9742625 4.4375 55.5625 C1.99381379 51.63485913 -0.52189457 49.34175444 -5 48 C-10.21632616 47.26140515 -15.16539917 47.18250538 -19.9375 49.625 C-26.66706752 54.84384828 -28.17994585 61.03726308 -30 69 C-30.23203125 70.00039307 -30.23203125 70.00039307 -30.46875 71.02099609 C-33.14084965 82.66185208 -35.07217208 94.34660885 -36.62744141 106.18505859 C-36.89334723 108.19416351 -37.1673537 110.20220314 -37.44677734 112.20947266 C-42.04650974 145.61588735 -44.44427463 179.21988296 -46.25 212.875 C-46.29165031 213.64626976 -46.33330063 214.41753952 -46.37621307 215.21218109 C-47.25246764 231.46707122 -48.03476294 247.72363121 -48.609375 263.9921875 C-48.65040344 265.14596893 -48.69143188 266.29975037 -48.73370361 267.48849487 C-48.96225944 274.41199695 -49.04561009 281.32303236 -49 288.25 C-48.96294213 295.1628361 -49.0058021 302.06256163 -49.21875 308.97265625 C-51.18889743 373.48093751 -50.1372847 438.12462276 -48.48828125 502.62890625 C-48.46580574 503.50934727 -48.44333023 504.38978828 -48.42017365 505.29690933 C-48.19813638 513.97026338 -47.97143012 522.6434534 -47.72886658 531.31625938 C-47.47210474 540.50166156 -47.24222115 549.68723627 -47.04683685 558.87415314 C-47.00028304 560.98715313 -46.94849257 563.09997435 -46.89581299 565.21282959 C-46.80133989 569.1038413 -46.74380813 572.99490194 -46.69140625 576.88671875 C-46.66143051 578.02083694 -46.63145477 579.15495514 -46.60057068 580.32344055 C-46.5511754 586.81687552 -47.11286575 590.72845583 -51 596 C-55.46828336 600.35069695 -59.66579814 601.77040637 -65.8125 602.375 C-70.74784998 602.1957043 -74.94258701 600.82970869 -79 598 C-83.84705908 592.3822788 -86.07644289 587.38111757 -86.28125 579.97265625 C-86.31798828 578.72444092 -86.35472656 577.47622559 -86.39257812 576.19018555 C-86.42846973 574.81429256 -86.46427437 573.43839731 -86.5 572.0625 C-86.54061692 570.62604661 -86.58164061 569.18960468 -86.62304688 567.75317383 C-86.73188943 563.93951632 -86.83527049 560.12572941 -86.9375 556.31188965 C-87.038523 552.57502535 -87.14438355 548.83829931 -87.25 545.1015625 C-87.37672112 540.60885936 -87.50237786 536.11613435 -87.6240387 531.62329102 C-87.82403919 524.24446951 -88.03194442 516.86612702 -88.26538086 509.48828125 C-88.97089807 486.96832571 -89.30315571 464.45074335 -89.53263092 441.92125702 C-89.56298087 438.95297019 -89.59423528 435.98469396 -89.62567139 433.01641846 C-90.48358916 351.53467667 -90.48358916 351.53467667 -89.35595703 315.28662109 C-89.12609684 307.83639909 -88.98084215 300.40326884 -89.01953125 292.94921875 C-89.06653998 281.22708973 -88.62837725 269.52484222 -88.1875 257.8125 C-88.1217276 256.04329193 -88.1217276 256.04329193 -88.05462646 254.23834229 C-86.46037613 211.74131851 -84.34887632 169.31339124 -80 127 C-79.92114563 126.22350098 -79.84229126 125.44700195 -79.76104736 124.64697266 C-77.67264387 104.16192608 -74.46171493 84.10622177 -70 64 C-69.79262207 63.03755371 -69.58524414 62.07510742 -69.37158203 61.08349609 C-64.7907262 40.01766201 -57.55979631 15.41514819 -39.375 2.07421875 C-28.46936997 -4.7255714 -11.69665546 -5.89246605 0 0 Z " fill="#000000" transform="translate(141,9)"/>
<path d="M0 0 C20.74016745 17.38002859 25.79459621 47.08388363 30.66015625 72.3203125 C30.99304603 73.88290706 31.3263344 75.4454168 31.66015625 77.0078125 C33.12173388 84.38758151 34.16995018 91.83671816 35.22607422 99.28320312 C35.51819939 101.32709353 35.81682328 103.37006451 36.12158203 105.41210938 C38.81858117 123.59696213 40.46094253 141.80613914 41.84765625 160.1328125 C41.97453323 161.78807449 41.97453323 161.78807449 42.10397339 163.47677612 C43.11454896 176.79190408 43.89591361 190.09335406 44.30912781 203.44136047 C44.49665804 209.23431329 44.87527183 214.96307575 45.43547058 220.73146057 C45.77354216 224.62675693 45.87145393 228.5139379 45.94140625 232.421875 C45.95981567 233.26027924 45.9782251 234.09868347 45.99719238 234.9624939 C46.05507698 237.6233724 46.10796074 240.28431689 46.16015625 242.9453125 C46.23098125 246.39587982 46.30462038 249.84638067 46.37890625 253.296875 C46.39697673 254.15831242 46.41504721 255.01974983 46.43366528 255.90729141 C46.55595671 261.45901673 46.71082236 267.00843944 46.90046692 272.55828857 C47.53842783 291.36732307 47.82306034 310.15610515 47.82719851 328.9763906 C47.82847617 332.00402322 47.83299109 335.0316486 47.83729076 338.05927819 C47.85079562 347.84602741 47.85086697 357.63275523 47.84813166 367.41951132 C47.84765474 369.95335638 47.84780762 372.48720061 47.84818649 375.02104568 C47.85474405 419.94171116 47.66104094 464.84539955 46.72265625 509.7578125 C46.68993433 511.3371394 46.68993433 511.3371394 46.65655136 512.94837189 C46.39080312 525.67707456 46.08815189 538.40433718 45.72263336 551.13057709 C45.66271408 553.23066421 45.60515111 555.3308043 45.54803467 557.43096924 C45.44889661 560.947913 45.33730247 564.4641329 45.21875 567.98046875 C45.17851463 569.40739296 45.17851463 569.40739296 45.13746643 570.86314392 C44.82422379 579.08646412 44.10912344 586.81182391 38.66015625 593.3203125 C32.85186372 597.79753799 28.9198438 598.68944916 21.66015625 598.3203125 C16.15331968 597.43528519 13.15244903 595.40056424 9.23828125 591.66015625 C3.80358053 583.60227077 4.38198457 574.91800777 4.76953125 565.5625 C4.81777106 564.09616901 4.86446499 562.62978646 4.909729 561.1633606 C5.03321047 557.2846445 5.17575084 553.40686934 5.32299805 549.5289917 C5.46340162 545.76965659 5.58928556 542.00985572 5.71484375 538.25 C5.75213954 537.13796739 5.75213954 537.13796739 5.79018879 536.00346947 C5.86693818 533.71065628 5.94326387 531.41782927 6.01953125 529.125 C6.05902925 527.94353834 6.05902925 527.94353834 6.09932518 526.73820877 C6.2928792 520.93244602 6.47997377 515.12650587 6.66015625 509.3203125 C6.68532444 508.50981194 6.71049263 507.69931137 6.73642349 506.86425018 C7.95897732 466.80947187 7.84798188 426.73815127 7.84526765 386.66911542 C7.84557037 380.10344848 7.853736 373.53782277 7.8659668 366.97216797 C7.94653214 322.73413248 7.66201743 278.58528693 5.78971481 234.38122368 C5.65844351 231.27984792 5.530595 228.17834587 5.4034729 225.07679749 C3.33680308 174.98301105 0.06411687 124.64377038 -9.33984375 75.3203125 C-9.51902344 74.37478516 -9.69820312 73.42925781 -9.8828125 72.45507812 C-10.36871657 69.94700939 -10.87686462 67.4453592 -11.40234375 64.9453125 C-11.540354 64.26774902 -11.67836426 63.59018555 -11.82055664 62.89208984 C-13.12259859 57.10803311 -14.94878082 51.24277515 -19.671875 47.4453125 C-26.3069949 44.43599828 -30.80902677 43.16366556 -37.96484375 45.5078125 C-73.68907264 64.69304654 -90.38772164 141.4406833 -102.46484375 177.5703125 C-102.71882935 178.32940918 -102.97281494 179.08850586 -103.23449707 179.87060547 C-107.71897932 193.2885129 -112.19041172 206.72673174 -115.90234375 220.3828125 C-116.10867432 221.13191895 -116.31500488 221.88102539 -116.52758789 222.65283203 C-117.81029595 227.325236 -119.04849884 232.00843706 -120.27734375 236.6953125 C-120.95923859 239.23867027 -121.64626963 241.78015627 -122.33984375 244.3203125 C-122.56285156 245.14450684 -122.78585937 245.96870117 -123.015625 246.81787109 C-123.75238818 249.51129209 -124.5123833 252.1972767 -125.27734375 254.8828125 C-125.50607178 255.72827637 -125.7347998 256.57374023 -125.97045898 257.44482422 C-127.85221888 263.92377859 -130.34044926 268.07076663 -135.83984375 272.1953125 C-142.34481782 274.28619702 -149.33486968 274.28619702 -155.83984375 272.1953125 C-160.49871814 268.70115671 -163.49961523 264.82464047 -165.33984375 259.3203125 C-166.11116882 252.79910962 -165.26115341 247.04444118 -163.1796875 240.8671875 C-162.33495426 238.30548484 -161.7009511 235.75943538 -161.08984375 233.1328125 C-159.36500184 226.06917422 -157.19444434 219.14650454 -155.02832031 212.20825195 C-153.37171051 206.86322733 -151.85055832 201.50682825 -150.4453125 196.08984375 C-148.32449834 188.048317 -145.75783044 180.19442862 -143.08984375 172.3203125 C-142.60240134 170.87198127 -142.11518114 169.42357524 -141.62817383 167.97509766 C-140.20661606 163.7541442 -138.77426273 159.53690908 -137.33984375 155.3203125 C-136.94651855 154.16112305 -136.55319336 153.00193359 -136.14794922 151.80761719 C-132.59625113 141.36667176 -128.93832637 131.01043644 -124.74609375 120.80859375 C-123.31412663 117.25651974 -122.01269234 113.67335146 -120.71484375 110.0703125 C-114.71418993 93.7526725 -107.5069178 77.67203461 -99.0703125 62.46875 C-97.36145979 59.35964101 -95.8119246 56.20586287 -94.27734375 53.0078125 C-91.91495219 48.23181223 -89.1795319 43.96652881 -86.0390625 39.66796875 C-84.48056372 37.5147325 -83.06529943 35.32026832 -81.65234375 33.0703125 C-74.76943029 22.67193248 -65.33648612 10.42955826 -54.33984375 4.3203125 C-53.7365625 3.65128906 -53.7365625 3.65128906 -53.12109375 2.96875 C-50.58954817 0.62596001 -47.65065349 -0.78074004 -44.58984375 -2.3046875 C-43.69652344 -2.77261719 -43.69652344 -2.77261719 -42.78515625 -3.25 C-29.57642219 -9.88295736 -11.92541965 -8.56081878 0 0 Z " fill="#000000" transform="translate(681.33984375,12.6796875)"/>
<path d="M0 0 C1.40242195 -0.00450165 1.40242195 -0.00450165 2.83317566 -0.00909424 C3.84253677 0.00325256 4.85189789 0.01559937 5.8918457 0.02832031 C6.93403763 0.03019348 7.97622955 0.03206665 9.05000305 0.03399658 C11.25830272 0.04072408 13.46659033 0.05465229 15.67480469 0.07519531 C19.03697937 0.10616303 22.39868357 0.11614946 25.76098633 0.12207031 C27.90877844 0.1312487 30.05656582 0.1416271 32.2043457 0.15332031 C33.20358566 0.15757019 34.20282562 0.16182007 35.23234558 0.16619873 C40.68667332 0.22131834 46.01373384 0.32726877 51.38012695 1.35644531 C53.03386385 3.88896168 53.61479154 5.48789365 54.38012695 8.35644531 C54.83307129 9.85425537 54.83307129 9.85425537 55.29516602 11.38232422 C56.41101437 15.13231506 57.4633669 18.89793314 58.50512695 22.66894531 C58.89997383 24.08435807 59.29499691 25.49972169 59.69018555 26.91503906 C62.75262825 37.92238062 65.67415002 48.96581352 68.57171631 60.01748657 C71.47418312 71.07982232 74.55645852 82.0744678 77.8215332 93.03613281 C78.86422484 96.54923104 79.85022473 100.07025919 80.7824707 103.61425781 C81.00128906 104.43925781 81.22010742 105.26425781 81.44555664 106.11425781 C81.84250835 107.62479306 82.23079314 109.13765075 82.60766602 110.65332031 C83.90610704 115.57172946 85.73965932 119.71597768 89.38012695 123.35644531 C93.36716703 123.8164884 95.56909685 123.93629394 98.88793945 121.56347656 C102.68851299 117.44570797 103.61796667 111.95121557 105.00512695 106.66894531 C105.33504639 105.46431641 105.66496582 104.2596875 106.00488281 103.01855469 C106.94523487 99.57438746 107.86037902 96.12395076 108.76959229 92.67144775 C109.41072128 90.24043891 110.05682214 87.81079084 110.70385742 85.38134766 C115.35365349 67.90660303 119.90221946 50.4075837 124.25512695 32.85644531 C128.23201522 16.87216773 128.23201522 16.87216773 130.13012695 9.73144531 C130.31687988 8.99603516 130.50363281 8.260625 130.69604492 7.50292969 C132.03289514 2.58793319 132.03289514 2.58793319 135.38012695 0.35644531 C137.56074524 0.10247803 137.56074524 0.10247803 140.12353516 0.09765625 C141.08495926 0.09135193 142.04638336 0.08504761 143.03694153 0.07855225 C144.07445053 0.08260071 145.11195953 0.08664917 146.1809082 0.09082031 C147.78460518 0.08795013 147.78460518 0.08795013 149.42070007 0.08502197 C151.68444046 0.08366014 153.94818865 0.08735641 156.21191406 0.09570312 C159.66855566 0.10637102 163.12467378 0.09582382 166.58129883 0.08300781 C168.78116976 0.08433002 170.98104037 0.08689369 173.1809082 0.09082031 C174.21234451 0.08677185 175.24378082 0.08272339 176.30647278 0.07855225 C181.33681261 0.11121628 185.7327665 0.17611913 190.38012695 2.35644531 C191.93197679 5.46014499 191.52070603 8.74293165 191.51383972 12.14935303 C191.51610528 12.96353895 191.51837083 13.77772488 191.52070504 14.61658311 C191.52706379 17.36028835 191.52621447 20.10394443 191.52539062 22.84765625 C191.52838101 24.80863509 191.53178325 26.76961335 191.53556824 28.73059082 C191.54442616 34.0695511 191.54674714 39.40849536 191.54738402 44.74746227 C191.54833196 49.20070702 191.55200904 53.65394802 191.55555612 58.10719132 C191.56370798 68.61378052 191.56613974 79.12036114 191.56542969 89.62695312 C191.56482914 100.47072702 191.57537476 111.31445113 191.59117335 122.15821242 C191.60424474 131.461032 191.60961373 140.76383529 191.60897428 150.06666398 C191.60871911 155.6257974 191.61158035 161.18488663 191.62215233 166.74401093 C191.63182618 171.97406753 191.63191735 177.20403765 191.6246357 182.43409729 C191.62358887 184.35374833 191.62595853 186.27340474 191.63199615 188.19304657 C191.63970542 190.81400071 191.63507825 193.43465541 191.62736511 196.05560303 C191.63250868 196.8149514 191.63765224 197.57429977 191.64295167 198.3566587 C191.6145801 202.72080504 191.13147514 206.34138575 189.38012695 210.35644531 C181.73519485 214.17891136 168.36350137 212.57468577 159.88012695 212.16894531 C158.69418945 212.11351562 157.50825195 212.05808594 156.28637695 212.00097656 C153.38012695 211.35644531 153.38012695 211.35644531 151.72253418 209.69586182 C150.0117726 206.71451323 150.0018878 204.71155252 149.99536133 201.28125 C149.98525024 200.05186707 149.97513916 198.82248413 149.96472168 197.55584717 C149.96627762 196.90052757 149.96783356 196.24520798 149.96943665 195.57003021 C149.97394224 193.49830127 149.95983047 191.42741469 149.94104004 189.35577393 C149.90429013 184.93934505 149.89059673 180.52300436 149.88012695 176.10644531 C149.8679502 171.02355885 149.84573379 165.94108108 149.80012512 160.85837555 C149.78683152 158.84709433 149.79087503 156.83572161 149.79553223 154.82440186 C149.68820641 137.02351134 149.68820641 137.02351134 142.38012695 121.35644531 C138.92424599 120.18961383 138.92424599 120.18961383 135.38012695 121.35644531 C129.76929025 127.14912442 128.32369632 135.76056204 126.44262695 143.29394531 C126.09877894 144.63135068 125.75395642 145.96850585 125.40820312 147.30541992 C124.3767035 151.31700802 123.373581 155.33528522 122.38012695 159.35644531 C122.09459961 160.51176758 121.80907227 161.66708984 121.51489258 162.85742188 C119.26709098 172.02007077 117.09435891 181.19933191 115.00512695 190.39941406 C114.7836499 191.36161865 114.56217285 192.32382324 114.33398438 193.31518555 C113.92013236 195.11631615 113.51350449 196.91912917 113.11572266 198.72387695 C112.12075428 203.04177069 111.20011082 206.82114846 108.38012695 210.35644531 C102.50090559 213.53510126 94.4122593 212.41966595 87.94262695 212.16894531 C87.05389893 212.13913574 86.1651709 212.10932617 85.24951172 212.07861328 C84.40702881 212.03236816 83.5645459 211.98612305 82.6965332 211.93847656 C81.55873413 211.8801062 81.55873413 211.8801062 80.39794922 211.82055664 C77.82688538 211.2291964 76.95866416 210.45687102 75.38012695 208.35644531 C74.58398438 206.2253418 74.58398438 206.2253418 73.9855957 203.72753906 C73.75565918 202.78869873 73.52572266 201.8498584 73.28881836 200.88256836 C73.0508252 199.86332275 72.81283203 198.84407715 72.56762695 197.79394531 C72.30900879 196.72764893 72.05039062 195.66135254 71.78393555 194.56274414 C70.45158311 189.0311816 69.17867334 183.48751286 67.9387207 177.93457031 C65.38344317 166.51359833 62.61733311 155.21334666 59.31762695 143.98144531 C59.00132324 142.89500732 58.68501953 141.80856934 58.35913086 140.68920898 C55.41299229 128.03472006 55.41299229 128.03472006 48.41113281 118.04638672 C45.53723144 117.07011009 43.39373915 116.97974379 40.38012695 117.35644531 C37.64739832 118.95053702 36.64564718 120.42081943 35.78381348 123.45770264 C34.32324267 131.05778484 34.07217511 138.55291322 34.04460144 146.2692337 C34.03618549 148.54893397 34.01557262 150.82825728 33.99206543 153.10784912 C33.93617224 158.76102619 33.90047173 164.41429463 33.86444092 170.06762695 C33.83308965 174.86782813 33.79384637 179.66784013 33.7441864 184.46788788 C33.72427034 186.70292299 33.71583393 188.93780777 33.70788574 191.1729126 C33.69490593 192.55212951 33.68138454 193.93134146 33.66723633 195.31054688 C33.65994507 196.50536682 33.65265381 197.70018677 33.6451416 198.93121338 C33.28193325 203.62556836 32.7911949 207.94537737 29.38012695 211.35644531 C23.90718457 212.29432481 18.54805908 212.5182417 13.00512695 212.48144531 C12.26705811 212.47806152 11.52898926 212.47467773 10.76855469 212.47119141 C-4.65041361 212.32590475 -4.65041361 212.32590475 -7.61987305 209.35644531 C-7.86969996 206.68052063 -7.99155928 204.10362757 -8.02954102 201.42211914 C-8.04861637 200.58043623 -8.06769173 199.73875332 -8.08734512 198.87156487 C-8.1482934 195.99813811 -8.1932598 193.1247132 -8.23706055 190.25097656 C-8.27492943 188.16819683 -8.31284386 186.08541792 -8.35079956 184.00263977 C-8.8379989 155.06874701 -8.77045079 126.12707496 -8.74844337 97.19006646 C-8.74407656 90.7799661 -8.7472217 84.36988526 -8.75207055 77.95978612 C-8.75663611 71.66391472 -8.75723753 65.36805166 -8.75463188 59.07217914 C-8.75309669 55.35999612 -8.75279881 51.64782625 -8.75616837 47.93564415 C-8.77619275 21.85017814 -8.77619275 21.85017814 -8.29907227 10.60961914 C-8.27710848 9.89433642 -8.25514469 9.17905371 -8.23251534 8.44209576 C-8.08410399 5.71085766 -7.8718879 3.7446156 -6.36616516 1.42539978 C-4.10742307 0.04276029 -2.64442123 -0.01172929 0 0 Z " fill="#000000" transform="translate(384.619873046875,784.6435546875)"/>
<path d="M0 0 C1.53642151 0.00280975 1.53642151 0.00280975 3.10388184 0.00567627 C5.26573958 0.01238756 7.42758537 0.02628365 9.58935547 0.046875 C12.89432092 0.07801261 16.19880866 0.08784716 19.50390625 0.09375 C21.60677663 0.10292147 23.70964218 0.1132977 25.8125 0.125 C26.79907593 0.12924988 27.78565186 0.13349976 28.80212402 0.13787842 C29.72658325 0.14748596 30.65104248 0.15709351 31.60351562 0.16699219 C32.41228149 0.17382019 33.22104736 0.18064819 34.05432129 0.18768311 C36.57834337 0.3384013 38.94071714 0.77902028 41.40625 1.328125 C45.52935868 12.96638852 47.87932928 24.54291507 49.74493408 36.73242188 C50.23237656 39.91715489 50.73423153 43.09933815 51.23974609 46.28125 C51.94702811 50.73633644 52.64960993 55.1921247 53.34912109 59.6484375 C55.01481006 70.21848359 56.7708075 80.77352066 58.53125 91.328125 C58.78217911 92.83738556 58.78217911 92.83738556 59.03817749 94.37713623 C61.09777767 106.7562058 63.2419373 119.11453998 65.53125 131.453125 C67.9657041 144.58102909 70.09877228 157.74035449 72.15234375 170.93212891 C73.88713569 182.0740992 75.67627906 193.20550055 77.53125 204.328125 C77.65755798 205.0860434 77.78386597 205.84396179 77.91400146 206.62484741 C79.38175526 215.41444642 80.90430461 224.1913971 82.53125 232.953125 C89.29951505 269.68102003 89.29951505 269.68102003 88.40625 283.328125 C83.55836954 284.88706341 79.47693067 285.58399083 74.3359375 285.59375 C73.02753906 285.59632813 71.71914063 285.59890625 70.37109375 285.6015625 C69.69933105 285.59737305 69.02756836 285.59318359 68.33544922 285.58886719 C66.27932489 285.57811493 64.22406703 285.5888191 62.16796875 285.6015625 C60.20923828 285.59769531 60.20923828 285.59769531 58.2109375 285.59375 C57.02483887 285.59149414 55.83874023 285.58923828 54.61669922 285.58691406 C51.32956679 285.32194369 49.21560094 285.06300054 46.40625 283.328125 C44.50057813 279.211576 43.96256501 275.00784738 43.40625 270.53125 C43.24125 269.2421875 43.07625 267.953125 42.90625 266.625 C42.73910662 265.27610065 42.57244264 263.92714182 42.40625 262.578125 C40.70862356 241.24534977 40.70862356 241.24534977 30.40625 223.328125 C25.00295401 220.21083885 20.01164371 220.06181799 13.90625 220.015625 C13.19436523 220.00998535 12.48248047 220.0043457 11.74902344 219.99853516 C4.25507959 220.10017715 -2.74825517 221.29828061 -8.59375 226.328125 C-11.20873775 231.51426474 -12.39444326 236.49080011 -13.34765625 242.19140625 C-13.49404037 243.02343063 -13.6404245 243.85545502 -13.79124451 244.71269226 C-14.25429668 247.35400916 -14.70564548 249.99715903 -15.15625 252.640625 C-15.4620761 254.40313632 -15.76870982 256.1655077 -16.07617188 257.92773438 C-16.22516937 258.78350067 -16.37416687 259.63926697 -16.52767944 260.52096558 C-16.82181048 262.20350971 -17.11769871 263.88574771 -17.41543579 265.56765747 C-18.01082664 268.93563763 -18.5890569 272.29560479 -19.07763672 275.68115234 C-19.28477295 277.01267334 -19.28477295 277.01267334 -19.49609375 278.37109375 C-19.59269287 279.08676514 -19.68929199 279.80243652 -19.78881836 280.53979492 C-21.079901 283.40821481 -22.74760579 284.08627075 -25.59375 285.328125 C-28.27295885 285.59155317 -30.70752543 285.70301094 -33.37890625 285.65625 C-34.11701035 285.65437683 -34.85511444 285.65250366 -35.61558533 285.65057373 C-37.16963243 285.64387565 -38.72366331 285.63000588 -40.27758789 285.609375 C-42.65201557 285.57818063 -45.02577813 285.56839539 -47.40039062 285.5625 C-48.91407057 285.55333025 -50.42774379 285.54295456 -51.94140625 285.53125 C-52.64878433 285.52700012 -53.35616241 285.52275024 -54.0849762 285.51837158 C-57.39042669 285.47056346 -60.4313002 285.34083955 -63.59375 284.328125 C-64.05757949 274.61731181 -62.30786285 265.35091222 -60.65625 255.828125 C-60.34273328 253.98493927 -60.02967477 252.14167555 -59.71704102 250.29833984 C-56.88251788 233.6746969 -53.86806544 217.08279884 -50.859375 200.48999023 C-48.33337657 186.543613 -45.92088629 172.58445857 -43.62164307 158.59915161 C-43.44154694 157.50399734 -43.44154694 157.50399734 -43.2578125 156.38671875 C-43.13468689 155.6376828 -43.01156128 154.88864685 -42.88470459 154.11691284 C-40.81364037 141.55451305 -38.66347278 129.00525208 -36.53125 116.453125 C-32.72121577 94.02046187 -32.72121577 94.02046187 -28.96875 71.578125 C-28.6042913 69.39451044 -28.23970443 67.21091728 -27.875 65.02734375 C-27.13176308 60.57473522 -26.39499104 56.12115011 -25.6640625 51.66650391 C-24.78587937 46.31722661 -23.89809857 40.96959979 -23.00567627 35.62268066 C-22.6511933 33.48885195 -22.29985149 31.35449874 -21.95184326 29.21960449 C-21.4631528 26.22438966 -20.96324317 23.23123869 -20.4609375 20.23828125 C-20.24552307 18.89344414 -20.24552307 18.89344414 -20.02575684 17.5214386 C-17.99365072 5.59958359 -17.99365072 5.59958359 -13.56835938 1.41113281 C-9.05916186 -0.23059406 -4.76111029 -0.05958435 0 0 Z M4.40625 115.328125 C2.73887046 119.61414792 1.94735894 123.72060367 1.37109375 128.2734375 C1.24571983 129.25012894 1.24571983 129.25012894 1.11781311 130.24655151 C0.94279304 131.61941035 0.77067356 132.99264179 0.60131836 134.36621094 C0.34693411 136.4273262 0.08347449 138.48711551 -0.18164062 140.546875 C-3.96015976 159.1754295 -3.96015976 159.1754295 -0.96875 176.828125 C5.69171136 181.03473217 12.77853649 180.94556134 20.40625 180.328125 C23.9341937 179.5047378 26.51157587 178.23195478 29.10009766 175.61694336 C30.88135091 172.49558835 30.54327996 170.51082975 30.1796875 166.95703125 C30.06077148 165.71195801 29.94185547 164.46688477 29.81933594 163.18408203 C29.68301758 161.91161621 29.54669922 160.63915039 29.40625 159.328125 C29.29829102 158.15491699 29.19033203 156.98170898 29.07910156 155.77294922 C28.75545764 152.26746251 28.39714552 148.76693372 28.03125 145.265625 C27.86109375 143.52055664 27.86109375 143.52055664 27.6875 141.74023438 C26.32550679 125.67443186 26.32550679 125.67443186 19.1484375 111.671875 C16.54535487 109.6641162 14.52934657 109.38641084 11.30078125 109.73828125 C7.97125366 110.77489706 6.44236553 112.57338046 4.40625 115.328125 Z " fill="#000000" transform="translate(681.59375,784.671875)"/>
<path d="M0 0 C1.26231445 -0.00315216 2.52462891 -0.00630432 3.82519531 -0.009552 C5.20247431 -0.0077605 6.57975299 -0.00570912 7.95703125 -0.00341797 C9.37988298 -0.00409241 10.8027346 -0.0050636 12.22558594 -0.00631714 C15.21143691 -0.00779134 18.19725797 -0.005651 21.18310547 -0.00097656 C24.9775485 0.0046791 28.77192014 0.00146662 32.56636047 -0.00454903 C35.50922157 -0.00819774 38.45206633 -0.00699577 41.39492798 -0.00442123 C42.79171762 -0.00376165 44.18850882 -0.00454584 45.58529663 -0.00690079 C68.10361302 -0.03649967 88.46190675 2.60741961 105.48046875 18.70751953 C123.53216382 37.80658257 123.40677256 62.16801892 123.1607666 86.94317627 C123.13904522 89.70089333 123.13983296 92.458412 123.14104271 95.21619987 C123.1403627 98.55973643 123.12266504 101.90308811 123.10546875 105.24658203 C123.1032431 106.46248016 123.10101746 107.6783783 123.09872437 108.93112183 C122.91288902 125.85856598 119.53613563 140.72562592 108.76953125 154.12939453 C108.11210937 154.97373047 107.4546875 155.81806641 106.77734375 156.68798828 C98.426631 166.73637341 85.81495326 174.89569025 72.76953125 177.12939453 C70.44226888 177.29484956 68.11218604 177.42262084 65.78125 177.52392578 C64.42118024 177.5927284 63.06115511 177.662418 61.70117188 177.73291016 C59.58198827 177.83986052 57.46314363 177.94164535 55.34301758 178.02807617 C43.97122377 178.47550794 43.97122377 178.47550794 33.76953125 183.12939453 C27.45998872 192.49194151 29.63865996 207.72704735 29.72493172 218.66863441 C29.74268346 220.99517573 29.75273102 223.32164524 29.760849 225.64823914 C29.78500318 232.25148266 29.8209442 238.85462711 29.86547852 245.45776367 C29.89239133 249.5263475 29.90934283 253.59487776 29.92034721 257.66353416 C29.92650707 259.19958689 29.93644842 260.73562976 29.9504261 262.27163124 C30.02149741 270.14038379 29.9313023 277.50535315 27.76953125 285.12939453 C22.09669168 286.67226476 16.28334285 286.39207665 10.44287109 286.42456055 C8.99387882 286.43611733 7.54493033 286.45662749 6.09619141 286.48608398 C3.99742863 286.52872627 1.89992315 286.54491882 -0.19921875 286.55517578 C-2.07770508 286.57704956 -2.07770508 286.57704956 -3.99414062 286.59936523 C-7.90594917 286.03130312 -8.79768497 285.16885382 -11.23046875 282.12939453 C-11.83529472 279.6917944 -11.83529472 279.6917944 -11.97238159 276.79588318 C-12.02764889 275.6337776 -12.08291618 274.47167202 -12.13985825 273.27435112 C-12.36817487 264.33901358 -12.36883354 255.4031921 -12.35986328 246.46557617 C-12.36122042 244.18724032 -12.36300211 241.90890468 -12.36517334 239.63056946 C-12.36971485 233.46835896 -12.36797046 227.30616529 -12.36479425 221.14395452 C-12.36224843 214.65842347 -12.36461484 208.17289378 -12.36618042 201.68736267 C-12.36811409 190.08288344 -12.36501601 178.47841181 -12.35992108 166.87393378 C-12.355472 156.41880038 -12.35621502 145.96367811 -12.36083984 135.50854492 C-12.36623318 123.31073184 -12.36816004 111.11292668 -12.36522758 98.91511244 C-12.36368366 92.48013412 -12.36341795 86.04516342 -12.36676407 79.61018562 C-12.38734099 33.58900292 -12.38734099 33.58900292 -11.78466797 14.87329102 C-11.74594637 13.66557824 -11.70722477 12.45786547 -11.66732979 11.21355534 C-11.36437225 3.39720154 -11.36437225 3.39720154 -10.23046875 1.12939453 C-6.87706329 -0.10709116 -3.54060045 0.00253855 0 0 Z M34.76953125 45.12939453 C34.04765625 45.66564453 33.32578125 46.20189453 32.58203125 46.75439453 C27.37424527 53.57838995 28.49561037 63.74854323 28.58203125 71.87939453 C28.59303551 73.21940023 28.60393796 74.55940677 28.61474609 75.89941406 C28.64095795 78.77276293 28.67654944 81.64585217 28.71630859 84.51904297 C28.76877398 88.53075934 28.77847841 92.541694 28.78196716 96.55371094 C28.79135574 99.88950392 28.82767014 103.22466141 28.87020874 106.56018066 C28.88628054 108.17526562 28.89266304 109.7904793 28.88882446 111.40563965 C28.85987474 123.21541584 28.85987474 123.21541584 34.1887207 133.56738281 C38.83608896 138.15948507 44.20984187 138.95585627 50.45703125 139.37939453 C59.92112135 139.2362703 67.46489076 135.2820809 74.33203125 129.00439453 C84.46520007 118.44527392 85.12331515 104.55373494 85.01953125 90.62939453 C85.02726562 89.59169922 85.035 88.55400391 85.04296875 87.48486328 C85.008953 73.82754127 83.09520736 61.62916655 73.76953125 51.12939453 C71.20423741 49.13595016 71.20423741 49.13595016 68.39453125 47.44189453 C67.47929688 46.86052734 66.5640625 46.27916016 65.62109375 45.68017578 C59.75885524 42.49208169 54.7481748 41.78833059 48.20703125 41.81689453 C47.46517578 41.80078125 46.72332031 41.78466797 45.95898438 41.76806641 C41.36504684 41.76397563 38.56110054 42.28571756 34.76953125 45.12939453 Z " fill="#000000" transform="translate(22.23046875,784.87060546875)"/>
<path d="M0 0 C0.95003906 -0.00773438 1.90007812 -0.01546875 2.87890625 -0.0234375 C8.20358733 -0.00866723 12.96084851 0.08620916 17.875 2.25 C20.3488582 6.56686403 20.13892978 11.02286365 20.08618164 15.85595703 C20.0848674 16.71420578 20.08355316 17.57245453 20.0821991 18.45671082 C20.07569329 21.30718876 20.05519573 24.15740031 20.03515625 27.0078125 C20.02886683 29.02757476 20.02363311 31.04734055 20.01939392 33.06710815 C20.00606294 38.41989715 19.98170039 43.77257303 19.95404053 49.12530518 C19.75388656 86.25152358 19.75388656 86.25152358 20.07925224 123.37591171 C20.10672252 125.21667958 20.12789842 127.05755431 20.14216805 128.89847183 C20.24687841 141.20682145 20.68548368 153.88985606 29.875 163.25 C35.52129972 167.91275073 40.79979677 169.68501742 48.0625 169.0625 C55.1630411 167.87907648 61.05374499 164.64902836 65.66796875 159.08984375 C72.52913614 148.671034 73.32190349 136.66691731 73.27563477 124.52099609 C73.28261383 123.21693817 73.2895929 121.91288025 73.29678345 120.56930542 C73.31174585 117.76313763 73.31768413 114.95715821 73.31625557 112.15095139 C73.31420285 107.71312853 73.3339094 103.27555565 73.35643005 98.83779907 C73.39716829 90.2327297 73.41597199 81.62768117 73.43260193 73.02253723 C73.45505318 62.03296225 73.48844735 51.04344581 73.53980106 40.05396712 C73.55971342 35.64166677 73.56930179 31.2295001 73.57075322 26.81715655 C73.57283861 24.73929096 73.57938378 22.66149701 73.58792114 20.58364868 C73.59821445 18.05000726 73.60131767 15.51632281 73.59602356 12.98266602 C73.60285156 11.86983246 73.60967957 10.7569989 73.61671448 9.61044312 C73.61834878 8.64193106 73.61998308 7.673419 73.62166691 6.67555809 C73.875 4.25 73.875 4.25 75.875 1.25 C81.24086791 -0.53862264 87.01008798 0.0653301 92.625 0.0625 C93.88828125 0.05025391 95.1515625 0.03800781 96.453125 0.02539062 C108.77562077 0.00597493 108.77562077 0.00597493 113.875 2.25 C114.95092601 5.47777803 115.00345939 7.80506484 115.00871277 11.2000885 C115.01511024 13.06516052 115.01511024 13.06516052 115.02163696 14.96791077 C115.02128743 16.34848026 115.02082589 17.72904972 115.02026367 19.10961914 C115.02325554 20.56179898 115.02665814 22.01397802 115.03044128 23.46615601 C115.03928679 27.41487522 115.04161975 31.36357276 115.04225707 35.31230092 C115.04296774 37.78165808 115.04510248 40.25100973 115.04775429 42.72036552 C115.05701245 51.34247055 115.06108895 59.9645601 115.06030273 68.58666992 C115.05970315 76.61008763 115.07023026 84.63343784 115.0860464 92.65683848 C115.09915341 99.55296743 115.10448524 106.44907443 115.10384732 113.34521574 C115.10359309 117.4602355 115.10640267 121.57519541 115.11702538 125.69020271 C115.12675858 129.56683526 115.12675 133.44335142 115.11950874 137.31998825 C115.11846907 138.73645512 115.12078878 140.15292942 115.1268692 141.56938362 C115.17061866 152.47492638 114.26120744 162.16871147 109.8125 172.1875 C109.50868408 172.87279785 109.20486816 173.5580957 108.8918457 174.26416016 C105.85329963 180.79095405 101.81959866 186.02308331 96.875 191.25 C96.03324219 192.1471875 95.19148438 193.044375 94.32421875 193.96875 C87.25673063 201.26145397 81.19531234 206.5066122 71.25 209 C70.43168701 209.20753906 69.61337402 209.41507813 68.77026367 209.62890625 C47.15337149 214.70415879 26.9301749 212.82582809 7.875 201.25 C4.65846147 199.11323432 1.74000344 196.83505508 -1.125 194.25 C-1.73472656 193.73179687 -2.34445313 193.21359375 -2.97265625 192.6796875 C-16.73706834 180.15558507 -20.38132592 160.53933416 -21.30911827 142.71225739 C-21.37516171 139.02583875 -21.38417864 135.34419745 -21.36791992 131.65722656 C-21.36899637 130.25940869 -21.37094041 128.86159126 -21.37367249 127.46377563 C-21.37846074 123.71661058 -21.37094559 119.96956722 -21.36071944 116.22241688 C-21.35185611 112.2862801 -21.35369786 108.35014619 -21.3540802 104.41400146 C-21.35314838 97.82090241 -21.34452303 91.22784985 -21.33081055 84.63476562 C-21.31501175 77.01030578 -21.30981539 69.38589647 -21.3105461 61.76142144 C-21.31122042 53.62618794 -21.30429488 45.4909739 -21.2950995 37.35574627 C-21.29296753 35.01428593 -21.29225829 32.67282872 -21.29186058 30.33136749 C-21.29085877 26.66393043 -21.28477553 22.99653601 -21.27469444 19.32911301 C-21.27036721 17.33768907 -21.270942 15.3462564 -21.27163696 13.35482788 C-21.26737198 12.17750092 -21.26310699 11.00017395 -21.25871277 9.78717041 C-21.256199 8.24647573 -21.256199 8.24647573 -21.25363445 6.67465591 C-21.125 4.25 -21.125 4.25 -20.125 2.25 C-13.69373827 -0.14555596 -6.7637046 -0.05551604 0 0 Z " fill="#000000" transform="translate(212.125,784.75)"/>
<path d="M0 0 C1.41499622 -0.00158935 2.82999169 -0.0040542 4.24498504 -0.00731641 C8.12431955 -0.01371814 12.00354938 -0.00767077 15.88287699 0.00044787 C20.0705216 0.00703473 24.25815468 0.0020741 28.44580078 -0.00143433 C36.64784426 -0.006474 44.84984739 -0.00083681 53.05188585 0.00841597 C62.61092513 0.01881071 72.16995574 0.01872946 81.72899961 0.01824339 C98.79419 0.01774277 115.85936166 0.02690253 132.92454529 0.04142761 C149.46588991 0.05549947 166.00721803 0.06259903 182.54856873 0.06193542 C184.07522638 0.06187549 184.07522638 0.06187549 185.6327256 0.06181435 C187.15679434 0.06175381 187.15679434 0.06175381 188.71165234 0.06169206 C207.55966543 0.06100088 226.40767154 0.06690194 245.25568237 0.07584528 C251.91018661 0.078854 258.56468956 0.07992395 265.21919441 0.08037758 C273.34041423 0.08106215 281.46162228 0.08556013 289.58283711 0.09471039 C293.7222439 0.09930527 297.86163572 0.10238249 302.00104523 0.10111618 C305.79919643 0.10001068 309.5973147 0.10360251 313.39545905 0.1107647 C315.40190464 0.11340069 317.40835482 0.11123587 319.4148007 0.10883266 C346.56516821 0.18048236 346.56516821 0.18048236 352.86863708 5.71989441 C356.69975755 9.73388459 358.86108091 13.66738722 359.19285583 19.24723816 C358.93694664 26.22354545 356.75957036 30.58521902 352.04441833 35.65348816 C343.74246592 42.79947251 328.98487463 40.39331839 318.71992493 40.38095093 C317.30586249 40.38282389 315.89180057 40.38512651 314.47773945 40.38781625 C310.62900349 40.39388016 306.78028942 40.39380713 302.93154979 40.39262187 C298.7665631 40.3924165 294.6015832 40.39794939 290.43659973 40.40267944 C282.29254748 40.41095544 274.14850248 40.41373285 266.00444637 40.41429182 C259.3834729 40.41476818 252.7625018 40.41682887 246.14152908 40.41999245 C227.34862139 40.42878859 208.55571939 40.43341314 189.76280962 40.43266197 C188.75149733 40.43262202 187.74018504 40.43258206 186.69822693 40.43254089 C185.68567361 40.43250001 184.67312029 40.43245913 183.62988354 40.43241701 C167.20668767 40.43201024 150.78351469 40.44159048 134.36032544 40.45567926 C117.47634386 40.47004861 100.59237344 40.47694922 83.70838559 40.47608548 C74.23742843 40.47575384 64.76649531 40.47848706 55.29554367 40.48926353 C47.23622871 40.4983756 39.17694871 40.50053776 31.11763082 40.49375411 C27.00891263 40.49049326 22.90026147 40.49041666 18.79154968 40.49910736 C15.02522439 40.50699182 11.25901909 40.50552119 7.49269666 40.49682323 C5.49624357 40.49457154 3.49978671 40.5021013 1.50334823 40.51006287 C-18.76255313 40.43273272 -18.76255313 40.43273272 -25.80714417 34.24723816 C-30.87115366 27.54084721 -31.92824327 21.52451189 -30.80714417 13.24723816 C-28.08411307 7.65925904 -23.84378748 3.42033987 -18.03044224 1.17455578 C-12.15894399 -0.4190323 -6.03378806 -0.02371728 0 0 Z " fill="#000000" transform="translate(215.80714416503906,1030.7527618408203)"/>
<path d="M0 0 C1.57744078 -0.00270036 3.15487993 -0.00658728 4.73231506 -0.01159668 C8.026377 -0.01746798 11.32000277 -0.00900723 14.61401367 0.00976562 C18.81127953 0.03253542 23.00752089 0.01943027 27.20474911 -0.00452423 C30.45898485 -0.01906299 33.71298263 -0.01433924 36.96722603 -0.00401306 C38.51359749 -0.00136702 40.05999139 -0.00453978 41.60633659 -0.01393127 C51.62186416 -0.06141859 60.8598024 0.09125301 68.59765625 7.15625 C73.24531585 14.53782701 76.11262424 21.71407929 74.72265625 30.53125 C72.23774778 38.87629021 67.32944659 44.30525537 59.72265625 48.53125 C58.02206897 48.97848237 56.31243863 49.39197469 54.59765625 49.78125 C43.5311967 52.60800869 36.09503513 59.46884916 29.46484375 68.40625 C28.88992188 69.1075 28.315 69.80875 27.72265625 70.53125 C27.06265625 70.53125 26.40265625 70.53125 25.72265625 70.53125 C25.72265625 71.19125 25.72265625 71.85125 25.72265625 72.53125 C26.27953125 72.70430664 26.83640625 72.87736328 27.41015625 73.05566406 C32.74118847 74.76438596 37.70558957 76.81153064 42.72265625 79.28125 C49.02386401 82.32782297 55.35720646 85.2922056 61.734375 88.17578125 C62.44449738 88.49700958 63.15461975 88.81823792 63.88626099 89.14920044 C66.75471454 90.44555448 69.62370132 91.7406694 72.49536133 93.02990723 C77.25247475 95.16593332 81.99337169 97.33431928 86.72265625 99.53125 C87.44503479 99.86372742 88.16741333 100.19620483 88.91168213 100.53875732 C91.09256016 101.54974805 93.26197554 102.58221788 95.4296875 103.62109375 C96.08788986 103.92358536 96.74609222 104.22607697 97.42424011 104.53773499 C103.24917735 107.37982494 106.60221221 110.83199845 109.09765625 116.84375 C110.09815142 122.74667148 109.81432096 127.42878463 107.03515625 132.78125 C102.9770253 137.60713545 99.03315577 141.3176924 92.72265625 142.53125 C82.85760129 143.09067388 74.35066152 138.08967504 65.72265625 133.96875 C64.15309401 133.23269166 62.58277749 132.49823962 61.01171875 131.76538086 C57.95032042 130.33611861 54.89193178 128.90073932 51.8359375 127.45996094 C46.8277968 125.10425231 41.78543691 122.82941207 36.72265625 120.59375 C36.02527344 120.28300537 35.32789063 119.97226074 34.609375 119.65209961 C29.99443546 117.60798237 26.28234011 116.3452421 21.22265625 116.21875 C20.26359375 116.18136719 19.30453125 116.14398437 18.31640625 116.10546875 C6.79379836 117.47064729 -4.248038 124.09924475 -14.65234375 128.96875 C-47.54630304 144.35941103 -47.54630304 144.35941103 -56.27734375 141.53125 C-61.54805577 139.17855047 -65.25909021 136.39019929 -67.83984375 131.15625 C-69.99461617 125.22814339 -70.27320305 120.22416541 -67.65234375 114.34375 C-64.38931855 107.72008774 -57.87527771 104.55480702 -51.46484375 101.65625 C-50.67005615 101.28822266 -49.87526855 100.92019531 -49.05639648 100.54101562 C-46.13499575 99.19338174 -43.20640174 97.86215891 -40.27734375 96.53125 C-39.01386216 95.95439768 -37.75052314 95.37723301 -36.48730469 94.79980469 C-20.11174003 87.31575274 -3.70630687 79.89733431 12.72265625 72.53125 C12.72265625 67.79958627 5.58731052 62.32326451 2.3125 59.03710938 C-3.18178214 53.83306573 -9.39094427 51.42158562 -16.46484375 49.03125 C-24.08473116 46.41682609 -28.9174486 43.6356552 -32.71484375 36.40625 C-35.47317299 29.31340338 -35.49425125 21.69795635 -32.58984375 14.65625 C-29.30002443 8.33933999 -25.76513593 4.15849959 -19.18649292 1.36279297 C-12.96577868 -0.41531839 -6.42029484 -0.03893359 0 0 Z " fill="#000000" transform="translate(370.27734375,609.46875)"/>
<path d="M0 0 C0.85672147 -0.00507454 1.71344294 -0.01014909 2.59612566 -0.0153774 C4.008546 -0.01612404 4.008546 -0.01612404 5.44950008 -0.01688576 C6.94959233 -0.02345914 6.94959233 -0.02345914 8.47998947 -0.03016531 C11.84693901 -0.04357031 15.21386237 -0.04973605 18.58083248 -0.0558567 C20.98866552 -0.06375641 23.39649737 -0.07202528 25.80432796 -0.08063698 C33.04233702 -0.10460923 40.28034784 -0.11978855 47.5183827 -0.13269705 C49.56348371 -0.13640979 51.60858404 -0.14038297 53.65368438 -0.14444971 C66.35859612 -0.16969018 79.06350896 -0.19173926 91.76844025 -0.20417786 C94.7111127 -0.20710747 97.65378511 -0.21006914 100.59645748 -0.21308327 C101.69351492 -0.21420234 101.69351492 -0.21420234 102.81273513 -0.21534403 C114.6525388 -0.22798947 126.49219202 -0.2612016 138.3319254 -0.3028851 C150.49326311 -0.34534902 162.65452391 -0.36887814 174.81593555 -0.37409842 C181.64176462 -0.37750781 188.4673587 -0.38920665 195.29311466 -0.42220116 C201.7174747 -0.45320469 208.14153779 -0.45859348 214.5659647 -0.4468174 C216.92095369 -0.44659665 219.27596166 -0.45490247 221.63088512 -0.47247124 C224.85289617 -0.49519571 228.07342757 -0.48685133 231.29544735 -0.47098732 C232.22144586 -0.48486941 233.14744436 -0.49875149 234.10150343 -0.51305425 C242.01247937 -0.41746946 248.78786238 2.03408094 254.37941647 7.76201439 C257.9535635 13.66712688 257.57864877 20.45891465 256.81691647 27.13701439 C254.44973715 32.85842565 250.55076082 35.62762097 245.14415538 38.27147222 C241.05103394 39.79377799 237.05089253 39.68024076 232.72818661 39.63149071 C231.73948163 39.63631954 230.75077665 39.64114837 229.73211092 39.64612353 C226.43336554 39.65735633 223.13540192 39.64010362 219.83669186 39.62285423 C217.46590624 39.62500105 215.09512165 39.62888017 212.72434139 39.63435936 C206.2945599 39.64404411 199.86505656 39.62875935 193.43530869 39.60845327 C187.38514845 39.59088553 181.3349829 39.59412914 175.28480309 39.59500392 C163.29456389 39.59600414 151.30443155 39.57771088 139.31423092 39.54863548 C127.69279184 39.52046908 116.07144679 39.50629378 104.44997311 39.50761986 C103.73431059 39.50769977 103.01864808 39.50777968 102.28129882 39.50786202 C101.56684596 39.50794273 100.8523931 39.50802343 100.11629015 39.50810659 C86.86795046 39.50948842 73.61965053 39.49769311 60.37132375 39.47980016 C55.69467307 39.47378169 51.01803275 39.47166465 46.34137821 39.47073555 C40.04010448 39.46872318 33.73892912 39.45648488 27.43768787 39.43640327 C25.12744785 39.43057263 22.81719651 39.42809862 20.50694942 39.42925835 C17.34873913 39.43024362 14.19080209 39.41889064 11.03262997 39.40443993 C10.12269301 39.40753713 9.21275605 39.41063433 8.27524525 39.41382539 C-0.83749529 39.34516966 -7.89351659 38.41061512 -14.58542728 31.91826439 C-18.48404871 27.57163512 -18.58020778 23.26840195 -18.42136478 17.62529564 C-17.74428785 10.55483651 -14.29836552 6.89348364 -9.12058353 2.51982689 C-6.11681291 0.37600673 -3.58313241 0.01127402 0 0 Z " fill="#000000" transform="translate(516.1830835342407,680.8629856109619)"/>
<path d="M0 0 C1.49402649 -0.00785502 1.49402649 -0.00785502 3.01823533 -0.01586872 C6.34749443 -0.03084096 9.67659946 -0.03157327 13.00588989 -0.03224182 C15.39623269 -0.03986505 17.78657304 -0.04829283 20.1769104 -0.0574646 C26.66449756 -0.07939764 33.15205053 -0.08822874 39.63966894 -0.09329104 C43.69368442 -0.09655366 47.74769046 -0.10307941 51.80170059 -0.11029243 C63.03618246 -0.12984876 74.27065558 -0.14625941 85.50515556 -0.14916897 C86.2232428 -0.14935654 86.94133004 -0.14954411 87.6811775 -0.14973736 C89.13676079 -0.1501036 90.59234408 -0.1504673 92.04792736 -0.15082847 C92.77043195 -0.15101128 93.49293654 -0.1511941 94.23733521 -0.15138245 C94.9607259 -0.151563 95.6841166 -0.15174354 96.42942823 -0.15192956 C108.15326453 -0.15547193 119.87691725 -0.18250244 131.60068987 -0.21988034 C143.65028699 -0.25798839 155.69979305 -0.27732661 167.74945176 -0.27762848 C174.50978579 -0.27821238 181.26990059 -0.28666123 188.03017807 -0.31562614 C194.38816342 -0.34178477 200.74571469 -0.34402377 207.10372925 -0.3279705 C209.43494742 -0.32615442 211.76619043 -0.33286101 214.09735489 -0.34878922 C217.28449202 -0.36923579 220.47010834 -0.35870501 223.65722656 -0.34057617 C224.57562754 -0.35377614 225.49402851 -0.36697611 226.44025981 -0.38057607 C232.9397138 -0.29636559 237.71376212 1.37340747 242.95559692 5.27415466 C247.63589995 10.42623633 248.31746418 15.77717964 248.22903442 22.48899841 C247.57870324 29.11308607 243.68365802 32.90224086 238.83450317 37.11009216 C233.91235546 40.15957245 227.65469687 39.42508806 222.06904602 39.42805481 C221.06586454 39.43243706 220.06268306 39.43681932 219.02910215 39.44133437 C215.66369679 39.45470143 212.29831761 39.46089648 208.93289185 39.46702576 C206.52151878 39.47492819 204.11014689 39.48319723 201.69877625 39.49180603 C194.46161317 39.51574208 187.22444837 39.53094791 179.9872596 39.5438661 C177.94246365 39.54758054 175.89766837 39.55155354 173.85287309 39.55561876 C161.14731762 39.58085137 148.44176101 39.60289816 135.73618603 39.61534691 C132.79589522 39.61827644 129.85560444 39.62123814 126.91531372 39.62425232 C126.18454848 39.62499837 125.45378324 39.62574442 124.70087359 39.62651308 C112.85984612 39.63917 101.01896869 39.67240097 89.17801138 39.71405415 C77.01435998 39.75649112 64.8507854 39.78004371 52.68706018 39.78526747 C45.8602069 39.78867895 39.0335884 39.80040338 32.20680809 39.83337021 C25.7857108 39.86432804 19.36491059 39.86977772 12.94374657 39.85798645 C10.58791581 39.85776538 8.23206627 39.86609817 5.87630081 39.88364029 C2.65807307 39.90629948 -0.55866595 39.8980508 -3.77690125 39.88215637 C-4.7073612 39.89603846 -5.63782115 39.90992055 -6.59647685 39.9242233 C-12.94726922 39.84702938 -17.10834262 38.30511465 -22.04440308 34.27415466 C-27.26707334 28.64974053 -27.39602546 23.87824046 -27.32174683 16.44212341 C-26.82668929 10.78731131 -24.13452449 8.34005115 -20.23190308 4.52415466 C-13.84739847 0.01744553 -7.55966532 -0.01978326 0 0 Z " fill="#000000" transform="translate(32.044403076171875,680.7258453369141)"/>
<path d="M0 0 C25.74220654 -0.12484178 51.48403229 -0.16143655 77.22651064 -0.15979207 C85.28105646 -0.16013905 93.33555998 -0.17188067 101.39009231 -0.18572444 C109.28533941 -0.19879849 117.18056745 -0.20416551 125.07582527 -0.20352536 C129.73653743 -0.20327259 134.39719656 -0.20600782 139.05789757 -0.21670341 C143.39005772 -0.22639524 147.72211355 -0.2264564 152.05427742 -0.21918678 C153.6320524 -0.21814603 155.20983403 -0.22047332 156.78759766 -0.22654724 C179.69805453 -0.30903657 179.69805453 -0.30903657 186.24246979 6.06438446 C189.65479394 10.58413835 191.80823336 15.81422293 191.65653229 21.52532196 C190.46499114 27.88020807 187.70831133 32.86490921 182.38033295 36.6473465 C176.78428054 40.01706066 171.21363734 39.79781943 164.82962799 39.82292938 C163.48142691 39.84526959 162.13325508 39.86943276 160.78511524 39.8952055 C156.946512 39.9600651 153.10833302 39.98928075 149.2692647 40.01019621 C146.63402334 40.02585014 143.99891771 40.04857225 141.36374283 40.07290268 C126.58123972 40.20584307 111.79892862 40.2416689 97.01590729 40.26360321 C94.66127068 40.26766381 92.30663417 40.27178104 89.95199776 40.27595329 C78.91562883 40.29487072 67.87926616 40.30914888 56.84288424 40.31756526 C44.17079376 40.32739677 31.49887517 40.35392495 18.82684535 40.39406615 C8.9662716 40.42421977 -0.89425259 40.43903195 -10.75487155 40.44234627 C-16.62004679 40.44469009 -22.48503538 40.45357016 -28.3501606 40.47880745 C-33.8457879 40.50209124 -39.34110524 40.50632015 -44.8367691 40.49604607 C-46.84668956 40.49555131 -48.85662545 40.50185392 -50.86649895 40.51560211 C-71.08912704 40.6461772 -71.08912704 40.6461772 -78.27706146 36.02532196 C-80.77706146 33.52532196 -80.77706146 33.52532196 -82.27706146 31.02532196 C-82.62768646 30.45297821 -82.97831146 29.88063446 -83.33956146 29.29094696 C-85.45087594 24.18860363 -84.95131845 18.40733755 -84.27706146 13.02532196 C-81.92156936 7.36174905 -78.17134052 4.56566277 -72.70678139 1.89749336 C-68.07777152 0.23586562 -63.36123841 0.42539321 -58.49166107 0.42253876 C-56.72087157 0.39842265 -56.72087157 0.39842265 -54.91430855 0.37381935 C-51.63539111 0.33384723 -48.35693938 0.31183994 -45.07782483 0.29809403 C-42.24551244 0.28308556 -39.41342172 0.25357213 -36.58122844 0.22410387 C-27.01195562 0.1249288 -17.44266716 0.07591221 -7.8729887 0.036376 C-5.24865381 0.02520099 -2.62432748 0.01279048 0 0 Z " fill="#000000" transform="translate(89.27706146240234,625.9746780395508)"/>
<path d="M0 0 C1.29364975 -0.00419449 2.5872995 -0.00838898 3.92015076 -0.01271057 C5.33885268 -0.00722602 6.75755385 -0.001543 8.17625427 0.00431824 C9.68617841 0.00324358 11.19610213 0.00130218 12.70602417 -0.00143433 C16.81819433 -0.00628594 20.93025591 0.00140042 25.042413 0.01151872 C29.4315025 0.02040783 33.82058961 0.01853895 38.20968628 0.01815796 C45.65559136 0.01909699 53.10145596 0.02777282 60.54734802 0.04142761 C68.01773383 0.05508473 75.48808235 0.06245383 82.95848083 0.06193542 C108.43303695 0.06053052 133.90685859 0.11496514 159.38108826 0.24723816 C160.30989146 0.25194594 161.23869467 0.25665373 162.19564342 0.26150417 C174.20170505 0.32304154 186.20732683 0.40657687 198.21298027 0.52351952 C201.64969767 0.55664436 205.08636639 0.58326285 208.52318001 0.60405922 C212.5141662 0.62868456 216.50475722 0.66757689 220.49550176 0.71774507 C221.9490305 0.7337457 223.40262308 0.74484623 224.85622859 0.75057769 C240.91359695 0.82119097 240.91359695 0.82119097 246.34202576 6.18473816 C246.80866638 6.86536316 247.27530701 7.54598816 247.75608826 8.24723816 C248.47925232 9.26817566 248.47925232 9.26817566 249.21702576 10.30973816 C252.19736533 15.27030336 251.90947157 20.64943812 251.38108826 26.24723816 C250.03204424 31.35985722 247.74321038 34.32462331 243.31858826 37.18473816 C238.49359079 39.91674248 234.42739552 40.39127278 228.96055603 40.3742218 C227.81624784 40.37656179 227.81624784 40.37656179 226.64882231 40.37894905 C224.08234464 40.38294917 221.51592578 40.37977256 218.94944763 40.37663269 C217.11059535 40.37798771 215.27174334 40.37976821 213.43289185 40.38194275 C208.41533563 40.38652045 203.39779989 40.38472211 198.3802433 40.38156366 C193.08295768 40.37902364 187.78567376 40.38138385 182.48838806 40.38294983 C173.54002065 40.38477435 164.59166145 40.38236578 155.64329529 40.37760925 C146.55442259 40.3728324 137.46556636 40.37273987 128.37669373 40.37760925 C99.37793227 40.3925324 70.37962396 40.37100432 41.38108826 40.24723816 C40.578312 40.24395948 39.77553574 40.24068081 38.94843292 40.23730278 C30.39942499 40.20171527 21.85120451 40.14600869 13.30282593 40.03016281 C11.2088727 40.0035309 9.11483029 39.98302258 7.02075195 39.96940994 C4.27493623 39.94947392 1.53073562 39.90506675 -1.21461487 39.85221863 C-1.96934586 39.85138149 -2.72407684 39.85054436 -3.50167847 39.84968185 C-9.60729017 39.68129607 -15.05080546 37.78262971 -19.45875549 33.43083191 C-20.00209534 32.5665155 -20.00209534 32.5665155 -20.55641174 31.68473816 C-20.93668518 31.1059491 -21.31695862 30.52716003 -21.70875549 29.93083191 C-24.38434488 24.9815657 -24.03509757 19.71262191 -23.61891174 14.24723816 C-21.91070384 8.92164883 -18.3487953 5.15524064 -13.61891174 2.24723816 C-8.95336985 0.70237354 -4.9052599 -0.00239365 0 0 Z " fill="#000000" transform="translate(521.6189117431641,625.7527618408203)"/>
<path d="M0 0 C5.082317 3.66399597 8.77090383 7.92351304 10.6875 13.9375 C10.97767836 16.89420689 10.96167048 19.83672767 10.94819641 22.80575562 C10.95393473 24.14620231 10.95393473 24.14620231 10.95978898 25.51372874 C10.97010844 28.50839851 10.9661288 31.50287618 10.9621582 34.49755859 C10.96650527 36.64454831 10.9716884 38.79153648 10.97764587 40.93852234 C10.99104805 46.77117233 10.99161315 52.60375757 10.98908257 58.43641996 C10.98801363 63.3047744 10.9928943 68.17311569 10.997688 73.04146731 C11.00878753 84.52667829 11.00921816 96.01185656 11.00317383 107.49707031 C10.9971335 119.34690638 11.00944558 131.19662372 11.0307439 143.04643953 C11.0483555 153.2189724 11.05436192 163.39146747 11.05110615 173.56401503 C11.04929236 179.64014578 11.0519391 185.71619185 11.06582069 191.79230881 C11.07838706 197.50670088 11.07646608 203.22090781 11.06340981 208.93529701 C11.06104184 211.03191121 11.06378655 213.12853839 11.07203293 215.22513771 C11.08248337 218.08873269 11.07441317 220.95170451 11.0617218 223.8152771 C11.06909609 224.64359429 11.07647037 225.47191148 11.08406812 226.32532918 C11.02282631 232.90044492 9.71693816 237.58762424 5.3125 242.6875 C-0.52510451 247.69116101 -4.53963804 248.49203899 -12.1484375 248.27734375 C-16.76748485 247.78122385 -18.72101283 246.93040597 -22.3125 243.9375 C-27.01892435 237.70333581 -28.46090724 233.16365588 -28.45294189 225.39204407 C-28.45591302 224.49689266 -28.45888414 223.60174125 -28.4619453 222.67946404 C-28.47065892 219.66170695 -28.4721428 216.6439894 -28.47363281 213.6262207 C-28.47825917 211.46982233 -28.48328358 209.31342478 -28.48867798 207.1570282 C-28.5018231 201.28496338 -28.50825125 195.41291 -28.51268864 189.54083276 C-28.51561646 185.87397815 -28.51972075 182.20712669 -28.52419281 178.54027367 C-28.5378744 167.07292327 -28.54753735 155.60558004 -28.5513947 144.13822204 C-28.55587475 130.89135831 -28.5734175 117.6445978 -28.6023953 104.39776546 C-28.62400231 94.16585112 -28.63409849 83.93396584 -28.63543582 73.70202893 C-28.63648471 67.58783995 -28.64241027 61.47374791 -28.66025543 55.3595829 C-28.6767187 49.60666518 -28.67890001 43.85391744 -28.67011642 38.10098457 C-28.66934507 35.98985591 -28.67370167 33.87871818 -28.68357468 31.76761246 C-28.69626821 28.88416351 -28.69043125 26.00131888 -28.67999268 23.11787415 C-28.68804908 22.28361965 -28.69610548 21.44936515 -28.70440602 20.58983022 C-28.64873508 14.00841519 -27.33567383 9.34343645 -23 4.1875 C-16.02807146 -1.64946343 -8.66659542 -2.77985136 0 0 Z " fill="#000000" transform="translate(399.3125,292.0625)"/>
<path d="M0 0 C6.51851761 6.19259173 8.74103849 10.55037953 10.5 19.375 C10.63680176 20.05304688 10.77360352 20.73109375 10.91455078 21.4296875 C16.74720001 51.41489663 14.45116965 80.89067402 -1.5 107.375 C-3.65688493 110.55176943 -5.97124986 113.48736611 -8.5 116.375 C-9.06976562 117.03886719 -9.63953125 117.70273437 -10.2265625 118.38671875 C-20.47751841 129.4882859 -34.75377926 135.70348217 -48.27001953 141.85717773 C-67.87128064 150.82664262 -77.33428468 161.38864607 -85.5859375 180.94921875 C-87.82666593 185.97649406 -90.65655488 188.90016949 -95.5 191.375 C-101.63350753 193.27059189 -107.72505106 192.94771481 -113.609375 190.48046875 C-118.26278237 187.75957146 -120.86020502 183.87712733 -122.9375 179 C-124.99476597 165.74206377 -117.75652286 152.10620709 -110.5 141.375 C-110.07460938 140.72660156 -109.64921875 140.07820312 -109.2109375 139.41015625 C-97.24896838 122.306639 -80.61293303 112.52333368 -62.05078125 103.953125 C-44.82045076 95.99546256 -35.30646143 89.49599331 -28.375 71.4453125 C-24.90535036 59.27055976 -25.85890749 45.94988007 -28 33.625 C-31.37859714 13.93771573 -31.37859714 13.93771573 -27.5 6.875 C-20.74103061 -1.98675986 -10.33955631 -4.80050828 0 0 Z " fill="#000000" transform="translate(652.5,415.625)"/>
<path d="M0 0 C4.75464184 2.1909535 7.61462615 5.05672134 10.60546875 9.31640625 C13.2912292 17.3736876 11.55614574 26.26136268 10.10546875 34.44140625 C6.9028144 53.11387432 7.1619246 71.21431768 17.64453125 87.734375 C25.02838726 97.45694237 37.00259186 101.74385786 47.7890625 106.69921875 C57.45464817 111.168151 66.38969543 115.4450322 74.60546875 122.31640625 C75.57613281 123.08210937 75.57613281 123.08210937 76.56640625 123.86328125 C90.37157506 135.07621312 102.37611027 153.68353737 105.60546875 171.31640625 C105.8655039 177.65086256 104.23127843 182.17984254 100.60546875 187.31640625 C96.03782755 191.64980944 92.03688067 193.40498827 85.79296875 193.69140625 C80.61925086 193.54534289 76.68848039 192.58105565 72.60546875 189.31640625 C68.2986436 184.42138044 65.9330752 178.89733652 63.65625 172.86328125 C56.17309033 154.72566004 41.01691834 147.09976102 23.92578125 139.60644531 C5.67788809 131.56040401 -9.31555926 120.81246789 -19.39453125 103.31640625 C-19.77351563 102.66027344 -20.1525 102.00414062 -20.54296875 101.328125 C-34.92761477 74.45760624 -34.62926946 39.94796486 -26.01171875 11.296875 C-24.75256907 7.77993967 -23.33139154 5.64861911 -20.33203125 3.31640625 C-19.63980469 2.75953125 -18.94757813 2.20265625 -18.234375 1.62890625 C-13.08920652 -2.04153241 -5.93637862 -1.69472473 0 0 Z " fill="#000000" transform="translate(143.39453125,414.68359375)"/>
<path d="M0 0 C5.70394496 7.17067366 5.58131968 13.97766657 5.1875 22.75 C5.15534565 24.1497191 5.12414512 25.54946034 5.09375 26.94921875 C4.69805471 40.11667294 1.83963804 49.61720002 -7.3671875 59.40234375 C-15.77444915 67.30677875 -26.46901988 70.34921654 -37.75390625 70.08203125 C-48.06943542 69.48873573 -55.63989396 64.81354493 -62.7890625 57.640625 C-64.75974477 55.5361273 -64.75974477 55.5361273 -67.8125 54.75 C-82.91180651 62.9206204 -95.10687335 80.24037414 -103.4375 94.625 C-110.18299479 106.25446025 -110.18299479 106.25446025 -116.7109375 108.36328125 C-122.09192361 109.35346271 -127.67509571 109.74106784 -132.625 107.125 C-137.61613104 103.40611805 -141.81649164 98.96262553 -143.2890625 92.734375 C-144.10856693 80.39867679 -135.02063193 68.08233584 -127.8125 58.75 C-127.38501465 58.19006348 -126.9575293 57.63012695 -126.51708984 57.05322266 C-125.08132035 55.17544872 -123.63682466 53.30482918 -122.1875 51.4375 C-121.73205811 50.8501709 -121.27661621 50.2628418 -120.80737305 49.65771484 C-118.01872713 46.11919369 -115.1552891 42.79045493 -111.8125 39.75 C-111.1525 39.75 -110.4925 39.75 -109.8125 39.75 C-109.56757813 39.16992188 -109.32265625 38.58984375 -109.0703125 37.9921875 C-107.60022525 35.37159719 -105.95458363 33.84191228 -103.6875 31.875 C-102.96304688 31.23820312 -102.23859375 30.60140625 -101.4921875 29.9453125 C-80.28291094 12.56978272 -26.4958231 -21.19665848 0 0 Z " fill="#000000" transform="translate(568.8125,413.25)"/>
<path d="M0 0 C12.5127184 12.00592384 30.61807853 32.11705217 32.01171875 50.234375 C31.56204169 56.97953096 29.91466354 61.28288443 24.88671875 65.921875 C20.16803873 69.98364075 15.14608833 70.35838697 9.1015625 70.2578125 C4.46047616 69.71544849 0.63208389 67.90698498 -2.63671875 64.546875 C-5.18202622 61.17474791 -7.07049255 57.45604358 -9.05078125 53.734375 C-15.6657084 41.42792424 -29.3671505 20.65732315 -43.5234375 16.27734375 C-44.08933594 16.18066406 -44.65523438 16.08398438 -45.23828125 15.984375 C-45.56699219 16.43167969 -45.89570313 16.87898438 -46.234375 17.33984375 C-52.30921561 25.06098263 -60.61751937 29.23758862 -70.23828125 30.984375 C-81.61104956 32.06875523 -92.20908328 30.40838222 -101.23828125 22.984375 C-111.84716104 12.69249361 -115.33106197 2.80708867 -115.92578125 -11.640625 C-115.98572266 -12.79175781 -116.04566406 -13.94289063 -116.10742188 -15.12890625 C-116.71940077 -29.83316637 -116.71940077 -29.83316637 -112.87109375 -36.3203125 C-109.79672281 -39.52211851 -109.79672281 -39.52211851 -108.23828125 -41.015625 C-107.61953125 -41.634375 -107.00078125 -42.253125 -106.36328125 -42.890625 C-75.62592026 -59.16334552 -20.58281059 -19.32906731 0 0 Z " fill="#000000" transform="translate(320.23828125,452.015625)"/>
<path d="M0 0 C5.56535389 4.67995668 8.76742714 9.73426934 11.75 16.25 C12.1217334 17.04921875 12.4934668 17.8484375 12.87646484 18.671875 C18.86457675 31.7262974 24.32423028 45.01709967 29.75 58.3125 C30.16685059 59.32103027 30.58370117 60.32956055 31.01318359 61.36865234 C39.23906544 81.40605684 39.23906544 81.40605684 35.6875 92.6875 C32.16066602 97.46579121 27.65372836 101.87256625 21.75 103.3125 C14.53803238 103.89411029 9.91091054 102.40028768 3.79296875 98.359375 C-0.42605772 94.75982957 -1.64985865 89.88370889 -3.3125 84.75 C-3.94612199 82.87264989 -4.58286304 80.99634971 -5.22265625 79.12109375 C-5.54693604 78.16904053 -5.87121582 77.2169873 -6.20532227 76.23608398 C-9.5315886 66.9273578 -13.70102203 57.9149374 -17.6875 48.875 C-18.40655518 47.2353125 -18.40655518 47.2353125 -19.14013672 45.5625 C-21.62031126 39.9252052 -24.17600894 34.34771896 -26.875 28.8125 C-29.84210225 22.3880786 -31.34181772 16.94360471 -29.125 10.0625 C-26.7078704 4.53606277 -22.59316088 0.98408044 -17.25 -1.6875 C-11.46703213 -3.61515596 -5.32033854 -2.76248347 0 0 Z " fill="#000000" transform="translate(482.25,284.6875)"/>
<path d="M0 0 C4.29980078 3.9089098 7.48725758 8.60536685 7.88793945 14.54467773 C7.59507432 22.15210467 4.32740145 28.52144644 1.06292725 35.24716187 C-6.08464596 50.003013 -12.0772239 65.05613647 -17.5925293 80.48950195 C-17.86851456 81.24776276 -18.14449982 82.00602356 -18.42884827 82.78726196 C-18.94082379 84.19486902 -19.44282259 85.60616798 -19.93211365 87.02182007 C-22.05182514 92.82265637 -25.31482763 98.03241381 -31 100.875 C-36.16472517 103.18553495 -41.01545722 103.53551909 -46.421875 101.8046875 C-52.56249662 99.0575673 -56.62123193 94.74124158 -59.25 88.5 C-60.15774979 81.57548873 -58.7498078 75.48354226 -56.4375 69 C-56.13199219 68.11417236 -55.82648438 67.22834473 -55.51171875 66.31567383 C-51.68115154 55.48515651 -47.11198809 44.94837254 -42.52197266 34.42285156 C-41.40108564 31.84717797 -40.29579544 29.26577626 -39.19921875 26.6796875 C-28.45468123 1.44797049 -28.45468123 1.44797049 -19.12109375 -2.37109375 C-12.15843994 -4.32063682 -6.44033651 -2.97246301 0 0 Z " fill="#000000" transform="translate(318.25,285.5)"/>
</svg>
